<svg width="32" height="32" xmlns="http://www.w3.org/2000/svg"><path style="fill:#3a5651;fill-opacity:1" d="m28 10.5.6-.4q.4-.1.8 0l.6.4.5.5.4.6.1.9-.1.9-.4.6-.5.5-.5.5-.5.5-.5.5-.5.5-.6.4-.9.1h-3l-.9.1q-.4.1-.6.4l-.5.5-.4.6-.1.9.1.9q.1.4.4.6l.5.5.5.5.5.5.5.5.4.6.1.9-.1.9q-.1.4-.4.6l-.5.5-.5.5-.5.5-.5.5-.5.5-.5.5-.5.5-.5.5-.5.5-.6.4q-.4.1-.8 0t-.6-.4l-.5-.5-.5-.5-.5-.5-.5-.5-.5-.5-.5-.5q-.3-.3-.5-.3-.3 0-.5.3l-.5.5-.5.5-.5.5-.5.5-.5.5-.5.5-.6.4-.9.1h-1l-.9-.1-.6-.4-.5-.5-.5-.5-.5-.5q-.3-.3-.4-.7L4 28h-.2.8-.3L4 28l.4-.1.6-.4.5-.5.5-.5.5-.5.5-.5.5-.5.5-.5.6-.4.9-.1.9.1.6.4.6.4.9.1.9-.1.6-.4.5-.5.5-.5.5-.5.5-.5.5-.5.5-.5.5-.5.4-.6q.1-.4 0-.8t-.4-.6l-.5-.5-.5-.5-.5-.5-.5-.5-.4-.6q-.1-.4 0-.8l.4-.6.5-.5.5-.5.5-.5.5-.5.5-.5.5-.5.5-.5.6-.4q.4-.1.8 0l.6.4.5.5.5.5.6.4.9.1h1l.9-.1.6-.4.5-.5.5-.5.5-.5.5-.5"/><path style="fill:#3a8f64;fill-opacity:1" d="m22 4.5.6-.4q.4-.1.8 0l.6.4.5.5.5.5.5.5.5.5.5.5.5.5.5.5.5.5.5.5q.3.3.4.7l.1.4h.2-.8.3l.3-.1-.4.1-.6.4-.5.5-.5.5-.5.5-.5.5-.6.4-.9.1h-1l-.9-.1-.6-.4-.5-.5-.5-.5-.6-.4q-.4-.1-.8 0l-.6.4-.5.5-.5.5-.5.5-.5.5-.5.5-.5.5-.5.5-.4.6q-.1.4 0 .8l.4.6.5.5.5.5.5.5.5.5.4.6q.1.4 0 .8t-.4.6l-.5.5-.5.5-.5.5-.5.5-.5.5-.5.5-.5.5-.6.4-.9.1-.9-.1-.6-.4-.6-.4-.9-.1-.9.1-.6.4-.5.5-.5.5-.5.5-.5.5-.5.5-.5.5-.6.4q-.4.1-.8 0t-.6-.4l-.5-.5-.4-.6-.1-.9.1-.9q.1-.4.4-.6l.5-.5.5-.5.5-.5.5-.5q.3-.3.3-.5 0-.3-.3-.5l-.5-.5-.5-.5-.5-.5-.5-.5-.5-.5-.5-.5-.4-.6-.1-.9.1-.9.4-.6.5-.5.5-.5.5-.5.5-.5.5-.5.6-.4.4-.1h-.3l-.3.2h.2l.3-.3h.2H5v.6l.1.9.4.6.5.5.5.5.5.5.6.4.9.1.9-.1.6-.4.5-.5.5-.5.5-.5.5-.5.5-.5.5-.5.5-.5.5-.5.5-.5.5-.5.5-.5.5-.5.5-.5.5-.5.5-.5q.3-.3.4-.7l.2-.4h-.2.2l.4.1h.3-.8.5l.9-.1.6-.4.5-.5.5-.5.5-.5.5-.5"/><path style="fill:#92dd7e;fill-opacity:1" d="m13 3.5.6-.4q.4-.1.8 0l.6.4.5.5.5.5.5.5.5.5.5.5.4.6.1.4v-.3l-.2-.3v.2l.3.3.1.1H18l-.2.3q-.1.5-.4.7l-.5.5-.5.5-.5.5-.5.5-.5.5-.5.5-.5.5-.5.5-.5.5-.5.5-.5.5-.5.5-.5.5-.5.5-.5.5-.6.4-.9.1-.9-.1-.6-.4-.5-.5-.5-.5-.5-.5-.4-.6-.1-1V12l-.1.1.2-.4v-.2.3L5 12l.1-.4.4-.6.5-.5.5-.5.5-.5.5-.5.5-.5.5-.5.5-.5.5-.5.5-.5.5-.5.5-.5.5-.5.5-.5.5-.5.5-.5"/><path style="fill:#000;fill-opacity:0" d="M0 .5V0h32v32H0V.5m17.6 30.4q.4.1.8 0t.6-.4l.5-.5.5-.5.5-.5.5-.5.5-.5.5-.5.5-.5.5-.5.5-.5.4-.6.1-.9-.1-.9q-.1-.4-.4-.6l-.5-.5-.5-.5-.5-.5-.5-.5-.4-.6-.1-.9.1-.9q.1-.4.4-.6l.5-.5.6-.4.9-.1h3l.9-.1q.4-.1.6-.4l.5-.5.5-.5.5-.5.5-.5.5-.5.4-.6.1-.9-.1-.9-.4-.6-.5-.5-.6-.4-.4-.1h.3l.3.2h-.2L29 10h-.2.2l-.1-.4q-.1-.4-.4-.7l-.5-.5-.5-.5-.5-.5-.5-.5-.5-.5-.5-.5-.5-.5-.5-.5-.5-.5-.6-.4q-.4-.1-.8 0l-.6.4-.5.5-.5.5-.5.5-.5.5-.6.4-.9.1q-.5 0-.6-.4l-.4-.6-.5-.5-.5-.5-.5-.5-.5-.5-.5-.5-.6-.4q-.4-.1-.8 0l-.6.4-.5.5-.5.5-.5.5-.5.5-.5.5-.5.5-.5.5-.5.5-.5.5-.5.5-.5.5-.5.5-.5.5-.5.5-.5.5-.4.6q-.1.4-.5.5l-.6.4-.5.5-.5.5-.5.5-.5.5-.5.5-.4.6-.1.9.1.9q.1.4.4.6l.5.5.5.5.5.5.5.5.5.5.5.5q.3.3.3.5 0 .3-.3.5l-.5.5-.5.5-.5.5-.5.5-.4.6-.1.9.1.9q.1.4.4.6l.5.5.6.4.4.1h-.3l-.3-.2h.2l.4.1h.2H4l.1.4.4.7.5.5.5.5.5.5.6.4.9.1h1l.9-.1.6-.4.5-.5.5-.5.5-.5.5-.5.5-.5.5-.5q.3-.3.5-.3.3 0 .5.3l.5.5.5.5.5.5.5.5.5.5.5.5.6.4" fill="none"/></svg>