<?xml version="1.0" encoding="UTF-8" standalone="no"?>
<!-- Created with Inkscape (http://www.inkscape.org/) -->

<svg
   version="1.1"
   id="svg2"
   width="32"
   height="32"
   viewBox="0 0 32 32"
   sodipodi:docname="beryllium.svg"
   inkscape:version="1.2 (dc2aedaf03, 2022-05-15)"
   xmlns:inkscape="http://www.inkscape.org/namespaces/inkscape"
   xmlns:sodipodi="http://sodipodi.sourceforge.net/DTD/sodipodi-0.dtd"
   xmlns="http://www.w3.org/2000/svg"
   xmlns:svg="http://www.w3.org/2000/svg">
  <defs
     id="defs6" />
  <sodipodi:namedview
     id="namedview4"
     pagecolor="#505050"
     bordercolor="#eeeeee"
     borderopacity="1"
     inkscape:showpageshadow="0"
     inkscape:pageopacity="0"
     inkscape:pagecheckerboard="0"
     inkscape:deskcolor="#505050"
     showgrid="false"
     inkscape:zoom="11.313709"
     inkscape:cx="-4.7287766"
     inkscape:cy="21.169009"
     inkscape:window-width="1920"
     inkscape:window-height="1001"
     inkscape:window-x="-9"
     inkscape:window-y="-9"
     inkscape:window-maximized="1"
     inkscape:current-layer="g8" />
  <g
     inkscape:groupmode="layer"
     inkscape:label="Image"
     id="g8">
    <g
       id="g10430">
      <path
         style="fill:#3a5651;fill-opacity:1"
         d="m 28,10.5 q 0.25,-0.25 0.625,-0.375 0.375,-0.125 0.75,0 0.375,0.125 0.625,0.375 0.25,0.25 0.5,0.5 0.25,0.25 0.375,0.625 Q 31,12 31,12.5 31,13 30.875,13.375 30.75,13.75 30.5,14 30.25,14.25 30,14.5 29.75,14.75 29.5,15 29.25,15.25 29,15.5 28.75,15.75 28.5,16 28.25,16.25 28,16.5 27.75,16.75 27.375,16.875 27,17 26.5,17 q -0.5,0 -1,0 -0.5,0 -1,0 -0.5,0 -1,0 Q 23,17 22.625,17.125 22.25,17.25 22,17.5 21.75,17.75 21.5,18 21.25,18.25 21.125,18.625 21,19 21,19.5 21,20 21.125,20.375 21.25,20.75 21.5,21 q 0.25,0.25 0.5,0.5 0.25,0.25 0.5,0.5 0.25,0.25 0.5,0.5 0.25,0.25 0.5,0.5 0.25,0.25 0.375,0.625 Q 24,24 24,24.5 24,25 23.875,25.375 23.75,25.75 23.5,26 23.25,26.25 23,26.5 22.75,26.75 22.5,27 22.25,27.25 22,27.5 21.75,27.75 21.5,28 21.25,28.25 21,28.5 20.75,28.75 20.5,29 20.25,29.25 20,29.5 19.75,29.75 19.5,30 19.25,30.25 19,30.5 18.75,30.75 18.375,30.875 18,31 17.625,30.875 17.25,30.75 17,30.5 16.75,30.25 16.5,30 16.25,29.75 16,29.5 15.75,29.25 15.5,29 15.25,28.75 15,28.5 14.75,28.25 14.5,28 14.25,27.75 14,27.5 13.75,27.25 13.5,27.25 13.25,27.25 13,27.5 12.75,27.75 12.5,28 12.25,28.25 12,28.5 11.75,28.75 11.5,29 11.25,29.25 11,29.5 10.75,29.75 10.5,30 10.25,30.25 10,30.5 9.75,30.75 9.375,30.875 9,31 8.5,31 8,31 7.5,31 7,31 6.625,30.875 6.25,30.75 6,30.5 5.75,30.25 5.5,30 5.25,29.75 5,29.5 4.75,29.25 4.5,29 4.25,28.75 4.125,28.34375 L 4,27.9375 H 3.90625 3.8125 4 q 0.1875,0 0.375,-0.0625 L 4.5625,27.8125 4.28125,27.90625 4,28 4.375,27.875 Q 4.75,27.75 5,27.5 5.25,27.25 5.5,27 5.75,26.75 6,26.5 6.25,26.25 6.5,26 6.75,25.75 7,25.5 7.25,25.25 7.5,25 7.75,24.75 8,24.5 8.25,24.25 8.625,24.125 9,24 9.5,24 10,24 10.375,24.125 10.75,24.25 11,24.5 11.25,24.75 11.625,24.875 12,25 12.5,25 13,25 13.375,24.875 13.75,24.75 14,24.5 14.25,24.25 14.5,24 14.75,23.75 15,23.5 15.25,23.25 15.5,23 15.75,22.75 16,22.5 16.25,22.25 16.5,22 16.75,21.75 17,21.5 17.25,21.25 17.5,21 17.75,20.75 17.875,20.375 18,20 17.875,19.625 17.75,19.25 17.5,19 17.25,18.75 17,18.5 16.75,18.25 16.5,18 16.25,17.75 16,17.5 15.75,17.25 15.5,17 15.25,16.75 15.125,16.375 15,16 15.125,15.625 15.25,15.25 15.5,15 15.75,14.75 16,14.5 16.25,14.25 16.5,14 16.75,13.75 17,13.5 17.25,13.25 17.5,13 17.75,12.75 18,12.5 18.25,12.25 18.5,12 18.75,11.75 19,11.5 19.25,11.25 19.625,11.125 20,11 20.375,11.125 20.75,11.25 21,11.5 q 0.25,0.25 0.5,0.5 0.25,0.25 0.5,0.5 0.25,0.25 0.625,0.375 Q 23,13 23.5,13 q 0.5,0 1,0 0.5,0 0.875,-0.125 Q 25.75,12.75 26,12.5 26.25,12.25 26.5,12 26.75,11.75 27,11.5 27.25,11.25 27.5,11 27.75,10.75 28,10.5"
         id="path10438" />
      <path
         style="fill:#3a8f64;fill-opacity:1"
         d="M 22,4.5 Q 22.25,4.25 22.625,4.125 23,4 23.375,4.125 23.75,4.25 24,4.5 24.25,4.75 24.5,5 24.75,5.25 25,5.5 25.25,5.75 25.5,6 25.75,6.25 26,6.5 26.25,6.75 26.5,7 26.75,7.25 27,7.5 27.25,7.75 27.5,8 27.75,8.25 28,8.5 28.25,8.75 28.5,9 28.75,9.25 28.875,9.65625 L 29,10.0625 H 29.09375 29.1875 29 q -0.1875,0 -0.375,0.0625 L 28.4375,10.1875 28.71875,10.09375 29,10 28.625,10.125 Q 28.25,10.25 28,10.5 27.75,10.75 27.5,11 27.25,11.25 27,11.5 26.75,11.75 26.5,12 26.25,12.25 26,12.5 25.75,12.75 25.375,12.875 25,13 24.5,13 24,13 23.5,13 23,13 22.625,12.875 22.25,12.75 22,12.5 21.75,12.25 21.5,12 21.25,11.75 21,11.5 20.75,11.25 20.375,11.125 20,11 19.625,11.125 19.25,11.25 19,11.5 18.75,11.75 18.5,12 18.25,12.25 18,12.5 17.75,12.75 17.5,13 17.25,13.25 17,13.5 16.75,13.75 16.5,14 16.25,14.25 16,14.5 15.75,14.75 15.5,15 15.25,15.25 15.125,15.625 15,16 15.125,16.375 15.25,16.75 15.5,17 q 0.25,0.25 0.5,0.5 0.25,0.25 0.5,0.5 0.25,0.25 0.5,0.5 0.25,0.25 0.5,0.5 0.25,0.25 0.375,0.625 0.125,0.375 0,0.75 Q 17.75,20.75 17.5,21 17.25,21.25 17,21.5 16.75,21.75 16.5,22 16.25,22.25 16,22.5 15.75,22.75 15.5,23 15.25,23.25 15,23.5 14.75,23.75 14.5,24 14.25,24.25 14,24.5 13.75,24.75 13.375,24.875 13,25 12.5,25 12,25 11.625,24.875 11.25,24.75 11,24.5 10.75,24.25 10.375,24.125 10,24 9.5,24 9,24 8.625,24.125 8.25,24.25 8,24.5 7.75,24.75 7.5,25 7.25,25.25 7,25.5 6.75,25.75 6.5,26 6.25,26.25 6,26.5 5.75,26.75 5.5,27 5.25,27.25 5,27.5 4.75,27.75 4.375,27.875 4,28 3.625,27.875 3.25,27.75 3,27.5 2.75,27.25 2.5,27 2.25,26.75 2.125,26.375 2,26 2,25.5 2,25 2.125,24.625 2.25,24.25 2.5,24 2.75,23.75 3,23.5 3.25,23.25 3.5,23 3.75,22.75 4,22.5 4.25,22.25 4.5,22 4.75,21.75 4.75,21.5 4.75,21.25 4.5,21 4.25,20.75 4,20.5 3.75,20.25 3.5,20 3.25,19.75 3,19.5 2.75,19.25 2.5,19 2.25,18.75 2,18.5 1.75,18.25 1.5,18 1.25,17.75 1.125,17.375 1,17 1,16.5 1,16 1.125,15.625 1.25,15.25 1.5,15 1.75,14.75 2,14.5 2.25,14.25 2.5,14 2.75,13.75 3,13.5 3.25,13.25 3.5,13 3.75,12.75 4,12.5 4.25,12.25 4.625,12.125 L 5,12 4.71875,12.09375 4.4375,12.1875 4.625,12.125 Q 4.8125,12.0625 4.9375,11.9375 L 5.0625,11.8125 5,11.875 4.9375,11.9375 4.96875,12.46875 Q 5,13 5.125,13.375 5.25,13.75 5.5,14 5.75,14.25 6,14.5 6.25,14.75 6.5,15 6.75,15.25 7,15.5 7.25,15.75 7.625,15.875 8,16 8.5,16 9,16 9.375,15.875 9.75,15.75 10,15.5 10.25,15.25 10.5,15 10.75,14.75 11,14.5 11.25,14.25 11.5,14 11.75,13.75 12,13.5 12.25,13.25 12.5,13 12.75,12.75 13,12.5 13.25,12.25 13.5,12 13.75,11.75 14,11.5 14.25,11.25 14.5,11 14.75,10.75 15,10.5 15.25,10.25 15.5,10 15.75,9.75 16,9.5 16.25,9.25 16.5,9 16.75,8.75 17,8.5 17.25,8.25 17.5,8 17.75,7.75 17.921875,7.328125 L 18.09375,6.90625 18.015625,6.859375 17.9375,6.8125 18.09375,6.90625 Q 18.25,7 18.5,7 H 18.75 18.375 18 18.5 Q 19,7 19.375,6.875 19.75,6.75 20,6.5 20.25,6.25 20.5,6 20.75,5.75 21,5.5 21.25,5.25 21.5,5 21.75,4.75 22,4.5"
         id="path10436" />
      <path
         style="fill:#92dd7e;fill-opacity:1"
         d="M 13,3.5 Q 13.25,3.25 13.625,3.125 14,3 14.375,3.125 14.75,3.25 15,3.5 15.25,3.75 15.5,4 15.75,4.25 16,4.5 16.25,4.75 16.5,5 16.75,5.25 17,5.5 17.25,5.75 17.5,6 17.75,6.25 17.875,6.625 L 18,7 17.90625,6.71875 17.8125,6.4375 17.875,6.625 q 0.0625,0.1875 0.21875,0.28125 L 18.25,7 18.171875,6.953125 18.09375,6.90625 17.921875,7.328125 Q 17.75,7.75 17.5,8 17.25,8.25 17,8.5 16.75,8.75 16.5,9 16.25,9.25 16,9.5 15.75,9.75 15.5,10 15.25,10.25 15,10.5 14.75,10.75 14.5,11 14.25,11.25 14,11.5 13.75,11.75 13.5,12 13.25,12.25 13,12.5 12.75,12.75 12.5,13 12.25,13.25 12,13.5 11.75,13.75 11.5,14 11.25,14.25 11,14.5 10.75,14.75 10.5,15 10.25,15.25 10,15.5 9.75,15.75 9.375,15.875 9,16 8.5,16 8,16 7.625,15.875 7.25,15.75 7,15.5 6.75,15.25 6.5,15 6.25,14.75 6,14.5 5.75,14.25 5.5,14 5.25,13.75 5.125,13.375 5,13 4.96875,12.46875 L 4.9375,11.9375 4.875,12 4.8125,12.0625 4.9375,11.9375 Q 5.0625,11.8125 5.125,11.625 L 5.1875,11.4375 5.09375,11.71875 5,12 5.125,11.625 Q 5.25,11.25 5.5,11 5.75,10.75 6,10.5 6.25,10.25 6.5,10 6.75,9.75 7,9.5 7.25,9.25 7.5,9 7.75,8.75 8,8.5 8.25,8.25 8.5,8 8.75,7.75 9,7.5 9.25,7.25 9.5,7 9.75,6.75 10,6.5 10.25,6.25 10.5,6 10.75,5.75 11,5.5 11.25,5.25 11.5,5 11.75,4.75 12,4.5 12.25,4.25 12.5,4 12.75,3.75 13,3.5"
         id="path10434" />
      <path
         style="fill:#000000;fill-opacity:0"
         d="M 0,0.5 V 0 H 0.5 1 1.5 2 2.5 3 3.5 4 4.5 5 5.5 6 6.5 7 7.5 8 8.5 9 9.5 10 10.5 11 11.5 12 12.5 13 13.5 14 14.5 15 15.5 16 16.5 17 17.5 18 18.5 19 19.5 20 20.5 21 21.5 22 22.5 23 23.5 24 24.5 25 25.5 26 26.5 27 27.5 28 28.5 29 29.5 30 30.5 31 31.5 32 V 0.5 1 1.5 2 2.5 3 3.5 4 4.5 5 5.5 6 6.5 7 7.5 8 8.5 9 9.5 10 10.5 11 11.5 12 12.5 13 13.5 14 14.5 15 15.5 16 16.5 17 17.5 18 18.5 19 19.5 20 20.5 21 21.5 22 22.5 23 23.5 24 24.5 25 25.5 26 26.5 27 27.5 28 28.5 29 29.5 30 30.5 31 31.5 32 H 31.5 31 30.5 30 29.5 29 28.5 28 27.5 27 26.5 26 25.5 25 24.5 24 23.5 23 22.5 22 21.5 21 20.5 20 19.5 19 18.5 18 17.5 17 16.5 16 15.5 15 14.5 14 13.5 13 12.5 12 11.5 11 10.5 10 9.5 9 8.5 8 7.5 7 6.5 6 5.5 5 4.5 4 3.5 3 2.5 2 1.5 1 0.5 0 V 31.5 31 30.5 30 29.5 29 28.5 28 27.5 27 26.5 26 25.5 25 24.5 24 23.5 23 22.5 22 21.5 21 20.5 20 19.5 19 18.5 18 17.5 17 16.5 16 15.5 15 14.5 14 13.5 13 12.5 12 11.5 11 10.5 10 9.5 9 8.5 8 7.5 7 6.5 6 5.5 5 4.5 4 3.5 3 2.5 2 1.5 1 0.5 M 17.625,30.875 Q 18,31 18.375,30.875 18.75,30.75 19,30.5 19.25,30.25 19.5,30 19.75,29.75 20,29.5 20.25,29.25 20.5,29 20.75,28.75 21,28.5 21.25,28.25 21.5,28 21.75,27.75 22,27.5 22.25,27.25 22.5,27 22.75,26.75 23,26.5 23.25,26.25 23.5,26 23.75,25.75 23.875,25.375 24,25 24,24.5 24,24 23.875,23.625 23.75,23.25 23.5,23 23.25,22.75 23,22.5 22.75,22.25 22.5,22 22.25,21.75 22,21.5 21.75,21.25 21.5,21 21.25,20.75 21.125,20.375 21,20 21,19.5 21,19 21.125,18.625 21.25,18.25 21.5,18 21.75,17.75 22,17.5 22.25,17.25 22.625,17.125 23,17 23.5,17 q 0.5,0 1,0 0.5,0 1,0 0.5,0 1,0 0.5,0 0.875,-0.125 Q 27.75,16.75 28,16.5 28.25,16.25 28.5,16 28.75,15.75 29,15.5 29.25,15.25 29.5,15 29.75,14.75 30,14.5 30.25,14.25 30.5,14 30.75,13.75 30.875,13.375 31,13 31,12.5 31,12 30.875,11.625 30.75,11.25 30.5,11 30.25,10.75 30,10.5 29.75,10.25 29.375,10.125 L 29,10 29.28125,10.09375 29.5625,10.1875 29.375,10.125 Q 29.1875,10.0625 29,10.0625 H 28.8125 28.90625 29 L 28.875,9.65625 Q 28.75,9.25 28.5,9 28.25,8.75 28,8.5 27.75,8.25 27.5,8 27.25,7.75 27,7.5 26.75,7.25 26.5,7 26.25,6.75 26,6.5 25.75,6.25 25.5,6 25.25,5.75 25,5.5 24.75,5.25 24.5,5 24.25,4.75 24,4.5 23.75,4.25 23.375,4.125 23,4 22.625,4.125 22.25,4.25 22,4.5 21.75,4.75 21.5,5 21.25,5.25 21,5.5 20.75,5.75 20.5,6 20.25,6.25 20,6.5 19.75,6.75 19.375,6.875 19,7 18.5,7 18,7 17.875,6.625 17.75,6.25 17.5,6 17.25,5.75 17,5.5 16.75,5.25 16.5,5 16.25,4.75 16,4.5 15.75,4.25 15.5,4 15.25,3.75 15,3.5 14.75,3.25 14.375,3.125 14,3 13.625,3.125 13.25,3.25 13,3.5 12.75,3.75 12.5,4 12.25,4.25 12,4.5 11.75,4.75 11.5,5 11.25,5.25 11,5.5 10.75,5.75 10.5,6 10.25,6.25 10,6.5 9.75,6.75 9.5,7 9.25,7.25 9,7.5 8.75,7.75 8.5,8 8.25,8.25 8,8.5 7.75,8.75 7.5,9 7.25,9.25 7,9.5 6.75,9.75 6.5,10 6.25,10.25 6,10.5 5.75,10.75 5.5,11 5.25,11.25 5.125,11.625 5,12 4.625,12.125 4.25,12.25 4,12.5 3.75,12.75 3.5,13 3.25,13.25 3,13.5 2.75,13.75 2.5,14 2.25,14.25 2,14.5 1.75,14.75 1.5,15 1.25,15.25 1.125,15.625 1,16 1,16.5 1,17 1.125,17.375 1.25,17.75 1.5,18 1.75,18.25 2,18.5 2.25,18.75 2.5,19 2.75,19.25 3,19.5 3.25,19.75 3.5,20 3.75,20.25 4,20.5 4.25,20.75 4.5,21 4.75,21.25 4.75,21.5 4.75,21.75 4.5,22 4.25,22.25 4,22.5 3.75,22.75 3.5,23 3.25,23.25 3,23.5 2.75,23.75 2.5,24 2.25,24.25 2.125,24.625 2,25 2,25.5 2,26 2.125,26.375 2.25,26.75 2.5,27 2.75,27.25 3,27.5 3.25,27.75 3.625,27.875 L 4,28 3.71875,27.90625 3.4375,27.8125 3.625,27.875 Q 3.8125,27.9375 4,27.9375 H 4.1875 4.09375 4 l 0.125,0.40625 Q 4.25,28.75 4.5,29 4.75,29.25 5,29.5 5.25,29.75 5.5,30 5.75,30.25 6,30.5 6.25,30.75 6.625,30.875 7,31 7.5,31 8,31 8.5,31 9,31 9.375,30.875 9.75,30.75 10,30.5 q 0.25,-0.25 0.5,-0.5 0.25,-0.25 0.5,-0.5 0.25,-0.25 0.5,-0.5 0.25,-0.25 0.5,-0.5 0.25,-0.25 0.5,-0.5 0.25,-0.25 0.5,-0.5 0.25,-0.25 0.5,-0.25 0.25,0 0.5,0.25 0.25,0.25 0.5,0.5 0.25,0.25 0.5,0.5 0.25,0.25 0.5,0.5 0.25,0.25 0.5,0.5 0.25,0.25 0.5,0.5 0.25,0.25 0.5,0.5 0.25,0.25 0.625,0.375"
         id="path10432" />
    </g>
  </g>
</svg>
