<svg xmlns="http://www.w3.org/2000/svg" viewBox="0 -0.5 32 32" shape-rendering="crispEdges">
<metadata>Made with Pixels to Svg https://codepen.io/shshaw/pen/XbxvNj</metadata>
<path stroke="#c85c51" d="M8 4h5M7 5h4M13 5h1M6 6h4M13 6h2M5 7h4M13 7h3M4 8h4M13 8h4M4 9h4M13 9h5M4 10h4M13 10h6M4 11h5M14 11h6M4 12h6M15 12h6M4 13h7M16 13h6M4 14h7M16 14h7M4 15h6M15 15h8M4 16h5M14 16h9M4 17h4M13 17h10M4 18h4M13 18h10M4 19h4M13 19h10M4 20h5M14 20h9M4 21h6M15 21h7M4 22h7M16 22h5M4 23h8M16 23h4M5 24h8M16 24h3M6 25h8M16 25h2M7 26h8M16 26h1M8 27h8" />
<path stroke="#ff795e" d="M13 4h11M11 5h2M14 5h11M10 6h3M15 6h11M9 7h4M16 7h11M8 8h5M17 8h11M8 9h5M18 9h10M8 10h5M19 10h9M9 11h5M20 11h8M10 12h5M21 12h7M11 13h5M22 13h6M11 14h5M23 14h5M10 15h5M23 15h5M9 16h5M23 16h5M8 17h5M23 17h5M8 18h5M23 18h5M8 19h5M23 19h5M9 20h5M23 20h5M10 21h5M22 21h6M11 22h5M21 22h7M12 23h4M20 23h8M13 24h3M19 24h8M14 25h2M18 25h8M15 26h1M17 26h8M16 27h8" />
</svg>