<svg width="32" height="32" xmlns="http://www.w3.org/2000/svg"><path style="fill:#c9a5c8;fill-opacity:1" d="M27 13.3V13l.4.2h.2-.3L27 13l.4.1.6.4.5.5.5.5.5.5.5.5.5.5.4.6.1.4v-.3l-.2-.3v.2l.2.4v.3-.2h-.4q-.4.1-.6.4l-.5.5-.5.5-.5.5-.5.5q-.3.3-.5.3-.3 0-.5-.3l-.5-.5-.5-.5-.5-.5-.5-.5-.5-.5q-.3-.3-.3-.5 0-.3.3-.5l.5-.5.5-.5.5-.5.5-.5q.3-.3.4-.7"/><path style="fill:#50477b;fill-opacity:1" d="m4 11.5.6-.4q.4-.1.8 0l.6.4.5.5.5.5.5.5.4.6q.1.4 0 .8l-.4.6q-.3.3-.3.5 0 .3.3.5l.5.5.5.5.5.5.5.5.5.5.5.5.5.5.6.4q.4.1.8 0l.6-.4.5-.5.5-.5.5-.5.5-.5.6-.4q.4-.1.8 0t.6.4l.5.5.5.5.5.5q.3.3.3.5 0 .3-.3.5l-.5.5-.5.5q-.3.3-.3.5 0 .3.3.5l.5.5.6.4q.4.1.8 0t.6-.4l.5-.5.5-.5.5-.5.5-.5.6-.4q.4-.1.8 0t.6.4l.5.5.5.5.5.5.4.6q.1.4 0 .8t-.4.6l-.5.5-.5.5-.5.5-.5.5-.5.5-.5.5-.5.5-.5.5-.5.5-.5.5-.5.5-.6.4q-.4.1-.8 0t-.6-.4l-.5-.5-.5-.5-.5-.5-.5-.5-.5-.5-.5-.5-.6-.4q-.4-.1-.8 0l-.6.4-.6.4q-.4.1-.8 0l-.6-.4-.5-.5-.5-.5-.5-.5-.5-.5-.5-.5-.5-.5-.5-.5-.5-.5-.5-.5-.5-.5-.5-.5-.5-.5-.5-.5-.5-.5-.5-.5-.5-.5-.5-.5-.5-.5-.5-.5-.4-.6-.1-.9.1-.9.4-.6.5-.5.5-.5.5-.5.5-.5.5-.5"/><path style="fill:#c9a5c8;fill-opacity:1" d="M13 10.5q.3-.3.5-.3.3 0 .5.3l.5.5.5.5.5.5.5.5.5.5q.3.3.3.5 0 .3-.3.5l-.5.5-.5.5-.5.5-.5.5-.5.5q-.3.3-.5.3-.3 0-.5-.3l-.5-.5-.5-.5-.5-.5-.5-.5-.5-.5q-.3-.3-.3-.5 0-.3.3-.5l.5-.5.5-.5.5-.5.5-.5.5-.5"/><path style="fill:#89769a;fill-opacity:1" d="m8 7.5.6-.4L9 7h-.3l-.3.2h.2l.3-.3h.2H9v.4l.5.7.5.5.6.4q.4.1.8 0l.6-.4.5-.5.5-.5.6-.4q.4-.1.8 0l.6.4.5.5.5.5.5.5.5.5q.3.3.5.3.3 0 .5-.3l.5-.5.5-.5q.3-.3.5-.3.3 0 .5.3l.5.5.5.5.5.5q.3.3.3.5 0 .3-.3.5l-.5.5-.5.5-.5.5-.5.5-.5.5-.5.5q-.3.3-.3.5 0 .3.3.5l.5.5.5.5.5.5q.3.3.5.3.3 0 .5-.3l.5-.5.5-.5.5-.5.5-.5.5-.5.5-.5.5-.5.5-.5q.3-.3.7-.4l.4-.2-.1-.2v.2l.4.2h.2-.3L26 12l.4.1q.4.2.5.5l.1.4v-.3l-.2-.3v.2l.3.3v.2-.1l-.2.3q-.1.4-.4.7l-.5.5-.5.5-.5.5-.5.5q-.3.3-.3.5 0 .3.3.5l.5.5.5.5.5.5.5.5.5.5q.3.3.5.3.3 0 .5-.3l.5-.5.5-.5.5-.5.5-.5.6-.4h.4v-.2V17.7 17v.5l-.1.9q-.1.4-.4.6l-.5.5-.5.5-.5.5-.5.5-.5.5-.5.5-.5.5q-.3.3-.7.4l-.4.1v.2-.8.3l.1.3-.1-.4q-.1-.4-.4-.6l-.5-.5-.5-.5-.5-.5-.6-.4q-.4-.1-.8 0t-.6.4l-.5.5-.5.5-.5.5-.5.5-.6.4q-.4.1-.8 0t-.6-.4l-.5-.5q-.3-.3-.3-.5 0-.3.3-.5l.5-.5.5-.5q.3-.3.3-.5 0-.3-.3-.5l-.5-.5-.5-.5-.5-.5-.6-.4q-.4-.1-.8 0l-.6.4-.5.5-.5.5-.5.5-.5.5-.6.4q-.4.1-.8 0l-.6-.4-.5-.5-.5-.5-.5-.5-.5-.5-.5-.5-.5-.5-.5-.5q-.3-.3-.3-.5 0-.3.3-.5l.4-.6q.1-.4 0-.8l-.4-.6-.5-.5-.5-.5-.5-.5-.6-.4L5 11h.3l.3.2h-.2L5 11h-.2.2l.1-.4.4-.7.5-.5.5-.5.5-.5.5-.5.5-.5m5 9q.3.3.5.3.3 0 .5-.3l.5-.5.5-.5.5-.5.5-.5.5-.5q.3-.3.3-.5 0-.3-.3-.5l-.5-.5-.5-.5-.5-.5-.5-.5-.5-.5q-.3-.3-.5-.3-.3 0-.5.3l-.5.5-.5.5-.5.5-.5.5-.5.5q-.3.3-.3.5 0 .3.3.5l.5.5.5.5.5.5.5.5.5.5"/><path style="fill:#c9a5c8;fill-opacity:1" d="m13 2.5.6-.4q.4-.1.8 0l.6.4.5.5.5.5.5.5.5.5.5.5.5.5q.3.3.5.3.3 0 .5-.3l.5-.5.5-.5.5-.5.5-.5.5-.5.5-.5.6-.4q.4-.1.8 0t.6.4l.5.5.5.5.5.5.5.5.5.5.5.5.5.5.5.5.5.5.4.6q.1.4 0 .8l-.4.6-.5.5-.5.5-.5.5-.5.5-.4.6-.1.4v-.7V11.8l.2.2V12h-.5l-.7.5-.5.5-.5.5-.5.5-.5.5-.5.5-.5.5-.5.5-.5.5q-.3.3-.5.3-.3 0-.5-.3l-.5-.5-.5-.5-.5-.5q-.3-.3-.3-.5 0-.3.3-.5l.5-.5.5-.5.5-.5.5-.5.5-.5.5-.5q.3-.3.3-.5 0-.3-.3-.5l-.5-.5-.5-.5-.5-.5q-.3-.3-.5-.3-.3 0-.5.3l-.5.5-.5.5q-.3.3-.5.3-.3 0-.5-.3l-.5-.5-.5-.5-.5-.5-.5-.5-.6-.4q-.4-.1-.8 0l-.6.4-.5.5-.5.5-.6.4q-.4.1-.8 0l-.6-.4-.5-.5q-.3-.3-.4-.7L8.9 7V7l.2-.4v-.2.3L9 7l.1-.4.4-.6.5-.5.5-.5.5-.5.5-.5.5-.5.5-.5.5-.5"/><path style="fill:#000;fill-opacity:0" d="M0 .5V0h32v32H0V.5m18.6 29.4q.4.1.8 0t.6-.4l.5-.5.5-.5.5-.5.5-.5.5-.5.5-.5.5-.5.5-.5.5-.5.5-.5.5-.5.4-.6.1-.4v.3l-.2.3v-.2l.1-.4v-.2.2l.4-.1q.4-.1.7-.4l.5-.5.5-.5.5-.5.5-.5.5-.5.5-.5.5-.5.4-.6.1-.9-.1-.9q-.1-.4-.4-.6l-.5-.5-.5-.5-.5-.5-.5-.5-.5-.5-.6-.4q-.4-.1-.5-.5-.1-.3-.5-.5-.4-.1-.3-.5l.4-.6.5-.5.5-.5.5-.5.5-.5.4-.6q.1-.4 0-.8l-.4-.6-.5-.5-.5-.5-.5-.5-.5-.5-.5-.5-.5-.5-.5-.5-.5-.5-.5-.5-.6-.4q-.4-.1-.8 0t-.6.4l-.5.5-.5.5-.5.5-.5.5-.5.5-.5.5q-.3.3-.5.3-.3 0-.5-.3l-.5-.5-.5-.5-.5-.5-.5-.5-.5-.5-.5-.5-.6-.4q-.4-.1-.8 0l-.6.4-.5.5-.5.5-.5.5-.5.5-.5.5-.5.5-.5.5-.4.6q-.1.4-.5.5l-.6.4-.5.5-.5.5-.5.5-.5.5-.5.5q-.3.3-.4.7L5 11h.2-.8.3L5 11l-.4.1-.6.4-.5.5-.5.5-.5.5-.5.5-.5.5-.4.6-.1.9.1.9q.1.4.4.6l.5.5.5.5.5.5.5.5.5.5.5.5.5.5.5.5.5.5.5.5.5.5.5.5.5.5.5.5.5.5.5.5.5.5.5.5.5.5.6.4q.4.1.8 0l.6-.4.6-.4q.4-.1.8 0l.6.4.5.5.5.5.5.5.5.5.5.5.5.5.6.4" fill="none"/></svg>