<?xml version="1.0" encoding="UTF-8" standalone="no"?>
<!-- Created with Inkscape (http://www.inkscape.org/) -->

<svg
   version="1.1"
   id="svg10459"
   width="32"
   height="32"
   viewBox="0 0 32 32"
   sodipodi:docname="carbide.svg"
   inkscape:version="1.2 (dc2aedaf03, 2022-05-15)"
   xmlns:inkscape="http://www.inkscape.org/namespaces/inkscape"
   xmlns:sodipodi="http://sodipodi.sourceforge.net/DTD/sodipodi-0.dtd"
   xmlns="http://www.w3.org/2000/svg"
   xmlns:svg="http://www.w3.org/2000/svg">
  <defs
     id="defs10463" />
  <sodipodi:namedview
     id="namedview10461"
     pagecolor="#505050"
     bordercolor="#eeeeee"
     borderopacity="1"
     inkscape:showpageshadow="0"
     inkscape:pageopacity="0"
     inkscape:pagecheckerboard="0"
     inkscape:deskcolor="#505050"
     showgrid="false"
     inkscape:zoom="25.4375"
     inkscape:cx="7.1744472"
     inkscape:cy="19.164619"
     inkscape:window-width="1920"
     inkscape:window-height="1001"
     inkscape:window-x="-9"
     inkscape:window-y="-9"
     inkscape:window-maximized="1"
     inkscape:current-layer="g10465" />
  <g
     inkscape:groupmode="layer"
     inkscape:label="Image"
     id="g10465">
    <g
       id="g10511">
      <path
         style="fill:#c9a5c8;fill-opacity:1"
         d="M 26.90625,13.34375 27.0625,12.9375 27,12.875 l -0.0625,-0.0625 0.125,0.125 q 0.125,0.125 0.3125,0.1875 L 27.5625,13.1875 27.28125,13.09375 27,13 27.375,13.125 Q 27.75,13.25 28,13.5 q 0.25,0.25 0.5,0.5 0.25,0.25 0.5,0.5 0.25,0.25 0.5,0.5 0.25,0.25 0.5,0.5 0.25,0.25 0.5,0.5 0.25,0.25 0.375,0.625 L 31,17 30.90625,16.71875 30.8125,16.4375 30.875,16.625 q 0.0625,0.1875 0.09375,0.40625 L 31,17.25 30.984375,17.140625 30.96875,17.03125 30.609375,17.140625 Q 30.25,17.25 30,17.5 29.75,17.75 29.5,18 29.25,18.25 29,18.5 28.75,18.75 28.5,19 28.25,19.25 28,19.5 27.75,19.75 27.5,19.75 27.25,19.75 27,19.5 26.75,19.25 26.5,19 26.25,18.75 26,18.5 25.75,18.25 25.5,18 25.25,17.75 25,17.5 24.75,17.25 24.5,17 q -0.25,-0.25 -0.25,-0.5 0,-0.25 0.25,-0.5 0.25,-0.25 0.5,-0.5 0.25,-0.25 0.5,-0.5 0.25,-0.25 0.5,-0.5 0.25,-0.25 0.5,-0.5 0.25,-0.25 0.40625,-0.65625"
         id="path10523" />
      <path
         style="fill:#50477b;fill-opacity:1"
         d="M 4,11.5 Q 4.25,11.25 4.625,11.125 5,11 5.375,11.125 5.75,11.25 6,11.5 6.25,11.75 6.5,12 6.75,12.25 7,12.5 7.25,12.75 7.5,13 7.75,13.25 7.875,13.625 8,14 7.875,14.375 7.75,14.75 7.5,15 q -0.25,0.25 -0.25,0.5 0,0.25 0.25,0.5 0.25,0.25 0.5,0.5 0.25,0.25 0.5,0.5 0.25,0.25 0.5,0.5 0.25,0.25 0.5,0.5 0.25,0.25 0.5,0.5 0.25,0.25 0.5,0.5 0.25,0.25 0.5,0.5 0.25,0.25 0.625,0.375 0.375,0.125 0.75,0 Q 12.75,19.75 13,19.5 13.25,19.25 13.5,19 13.75,18.75 14,18.5 14.25,18.25 14.5,18 14.75,17.75 15,17.5 15.25,17.25 15.625,17.125 16,17 16.375,17.125 16.75,17.25 17,17.5 q 0.25,0.25 0.5,0.5 0.25,0.25 0.5,0.5 0.25,0.25 0.5,0.5 0.25,0.25 0.25,0.5 0,0.25 -0.25,0.5 -0.25,0.25 -0.5,0.5 -0.25,0.25 -0.5,0.5 -0.25,0.25 -0.25,0.5 0,0.25 0.25,0.5 0.25,0.25 0.5,0.5 0.25,0.25 0.625,0.375 0.375,0.125 0.75,0 Q 19.75,22.75 20,22.5 20.25,22.25 20.5,22 20.75,21.75 21,21.5 21.25,21.25 21.5,21 21.75,20.75 22,20.5 22.25,20.25 22.625,20.125 23,20 23.375,20.125 23.75,20.25 24,20.5 q 0.25,0.25 0.5,0.5 0.25,0.25 0.5,0.5 0.25,0.25 0.5,0.5 0.25,0.25 0.375,0.625 0.125,0.375 0,0.75 Q 25.75,23.75 25.5,24 25.25,24.25 25,24.5 24.75,24.75 24.5,25 24.25,25.25 24,25.5 23.75,25.75 23.5,26 23.25,26.25 23,26.5 22.75,26.75 22.5,27 22.25,27.25 22,27.5 21.75,27.75 21.5,28 21.25,28.25 21,28.5 20.75,28.75 20.5,29 20.25,29.25 20,29.5 19.75,29.75 19.375,29.875 19,30 18.625,29.875 18.25,29.75 18,29.5 17.75,29.25 17.5,29 17.25,28.75 17,28.5 16.75,28.25 16.5,28 16.25,27.75 16,27.5 15.75,27.25 15.5,27 15.25,26.75 15,26.5 14.75,26.25 14.375,26.125 14,26 13.625,26.125 13.25,26.25 13,26.5 12.75,26.75 12.375,26.875 12,27 11.625,26.875 11.25,26.75 11,26.5 10.75,26.25 10.5,26 10.25,25.75 10,25.5 9.75,25.25 9.5,25 9.25,24.75 9,24.5 8.75,24.25 8.5,24 8.25,23.75 8,23.5 7.75,23.25 7.5,23 7.25,22.75 7,22.5 6.75,22.25 6.5,22 6.25,21.75 6,21.5 5.75,21.25 5.5,21 5.25,20.75 5,20.5 4.75,20.25 4.5,20 4.25,19.75 4,19.5 3.75,19.25 3.5,19 3.25,18.75 3,18.5 2.75,18.25 2.5,18 2.25,17.75 2,17.5 1.75,17.25 1.5,17 1.25,16.75 1.125,16.375 1,16 1,15.5 1,15 1.125,14.625 1.25,14.25 1.5,14 1.75,13.75 2,13.5 2.25,13.25 2.5,13 2.75,12.75 3,12.5 3.25,12.25 3.5,12 3.75,11.75 4,11.5"
         id="path10521" />
      <path
         style="fill:#c9a5c8;fill-opacity:1"
         d="m 13,10.5 q 0.25,-0.25 0.5,-0.25 0.25,0 0.5,0.25 0.25,0.25 0.5,0.5 0.25,0.25 0.5,0.5 0.25,0.25 0.5,0.5 0.25,0.25 0.5,0.5 0.25,0.25 0.5,0.5 0.25,0.25 0.25,0.5 0,0.25 -0.25,0.5 -0.25,0.25 -0.5,0.5 -0.25,0.25 -0.5,0.5 -0.25,0.25 -0.5,0.5 -0.25,0.25 -0.5,0.5 -0.25,0.25 -0.5,0.5 -0.25,0.25 -0.5,0.25 -0.25,0 -0.5,-0.25 Q 12.75,16.25 12.5,16 12.25,15.75 12,15.5 11.75,15.25 11.5,15 11.25,14.75 11,14.5 10.75,14.25 10.5,14 q -0.25,-0.25 -0.25,-0.5 0,-0.25 0.25,-0.5 0.25,-0.25 0.5,-0.5 0.25,-0.25 0.5,-0.5 0.25,-0.25 0.5,-0.5 0.25,-0.25 0.5,-0.5 0.25,-0.25 0.5,-0.5"
         id="path10519" />
      <path
         style="fill:#89769a;fill-opacity:1"
         d="M 8,7.5 Q 8.25,7.25 8.625,7.125 L 9,7 8.71875,7.09375 8.4375,7.1875 8.625,7.125 Q 8.8125,7.0625 8.9375,6.9375 L 9.0625,6.8125 9,6.875 8.9375,6.9375 9.09375,7.34375 Q 9.25,7.75 9.5,8 9.75,8.25 10,8.5 10.25,8.75 10.625,8.875 11,9 11.375,8.875 11.75,8.75 12,8.5 12.25,8.25 12.5,8 12.75,7.75 13,7.5 13.25,7.25 13.625,7.125 14,7 14.375,7.125 14.75,7.25 15,7.5 15.25,7.75 15.5,8 15.75,8.25 16,8.5 16.25,8.75 16.5,9 16.75,9.25 17,9.5 17.25,9.75 17.5,9.75 17.75,9.75 18,9.5 18.25,9.25 18.5,9 18.75,8.75 19,8.5 q 0.25,-0.25 0.5,-0.25 0.25,0 0.5,0.25 0.25,0.25 0.5,0.5 0.25,0.25 0.5,0.5 0.25,0.25 0.5,0.5 0.25,0.25 0.25,0.5 0,0.25 -0.25,0.5 -0.25,0.25 -0.5,0.5 -0.25,0.25 -0.5,0.5 -0.25,0.25 -0.5,0.5 -0.25,0.25 -0.5,0.5 -0.25,0.25 -0.5,0.5 -0.25,0.25 -0.5,0.5 -0.25,0.25 -0.25,0.5 0,0.25 0.25,0.5 0.25,0.25 0.5,0.5 0.25,0.25 0.5,0.5 0.25,0.25 0.5,0.5 0.25,0.25 0.5,0.25 0.25,0 0.5,-0.25 0.25,-0.25 0.5,-0.5 0.25,-0.25 0.5,-0.5 0.25,-0.25 0.5,-0.5 0.25,-0.25 0.5,-0.5 0.25,-0.25 0.5,-0.5 0.25,-0.25 0.5,-0.5 0.25,-0.25 0.5,-0.5 0.25,-0.25 0.5,-0.5 0.25,-0.25 0.671875,-0.421875 L 26.09375,11.90625 26.046875,11.828125 26,11.75 26.09375,11.90625 Q 26.1875,12.0625 26.375,12.125 L 26.5625,12.1875 26.28125,12.09375 26,12 l 0.375,0.125 q 0.375,0.125 0.5,0.5 L 27,13 26.90625,12.71875 26.8125,12.4375 26.875,12.625 q 0.0625,0.1875 0.1875,0.3125 l 0.125,0.125 L 27.125,13 27.0625,12.9375 26.90625,13.34375 Q 26.75,13.75 26.5,14 q -0.25,0.25 -0.5,0.5 -0.25,0.25 -0.5,0.5 -0.25,0.25 -0.5,0.5 -0.25,0.25 -0.5,0.5 -0.25,0.25 -0.25,0.5 0,0.25 0.25,0.5 0.25,0.25 0.5,0.5 0.25,0.25 0.5,0.5 0.25,0.25 0.5,0.5 0.25,0.25 0.5,0.5 0.25,0.25 0.5,0.5 0.25,0.25 0.5,0.25 0.25,0 0.5,-0.25 0.25,-0.25 0.5,-0.5 0.25,-0.25 0.5,-0.5 0.25,-0.25 0.5,-0.5 0.25,-0.25 0.5,-0.5 0.25,-0.25 0.609375,-0.359375 L 30.96875,17.03125 30.953125,16.921875 30.9375,16.8125 30.96875,17.03125 Q 31,17.25 31,17.5 V 17.75 17.375 17 17.5 Q 31,18 30.875,18.375 30.75,18.75 30.5,19 30.25,19.25 30,19.5 29.75,19.75 29.5,20 29.25,20.25 29,20.5 28.75,20.75 28.5,21 28.25,21.25 28,21.5 27.75,21.75 27.5,22 27.25,22.25 27,22.5 26.75,22.75 26.34375,22.875 L 25.9375,23 V 23.09375 23.1875 23 q 0,-0.1875 -0.0625,-0.375 L 25.8125,22.4375 25.90625,22.71875 26,23 25.875,22.625 Q 25.75,22.25 25.5,22 25.25,21.75 25,21.5 24.75,21.25 24.5,21 24.25,20.75 24,20.5 23.75,20.25 23.375,20.125 23,20 22.625,20.125 22.25,20.25 22,20.5 21.75,20.75 21.5,21 21.25,21.25 21,21.5 20.75,21.75 20.5,22 20.25,22.25 20,22.5 19.75,22.75 19.375,22.875 19,23 18.625,22.875 18.25,22.75 18,22.5 17.75,22.25 17.5,22 q -0.25,-0.25 -0.25,-0.5 0,-0.25 0.25,-0.5 0.25,-0.25 0.5,-0.5 0.25,-0.25 0.5,-0.5 0.25,-0.25 0.25,-0.5 0,-0.25 -0.25,-0.5 Q 18.25,18.75 18,18.5 17.75,18.25 17.5,18 17.25,17.75 17,17.5 16.75,17.25 16.375,17.125 16,17 15.625,17.125 15.25,17.25 15,17.5 14.75,17.75 14.5,18 14.25,18.25 14,18.5 13.75,18.75 13.5,19 13.25,19.25 13,19.5 12.75,19.75 12.375,19.875 12,20 11.625,19.875 11.25,19.75 11,19.5 10.75,19.25 10.5,19 10.25,18.75 10,18.5 9.75,18.25 9.5,18 9.25,17.75 9,17.5 8.75,17.25 8.5,17 8.25,16.75 8,16.5 7.75,16.25 7.5,16 7.25,15.75 7.25,15.5 7.25,15.25 7.5,15 7.75,14.75 7.875,14.375 8,14 7.875,13.625 7.75,13.25 7.5,13 7.25,12.75 7,12.5 6.75,12.25 6.5,12 6.25,11.75 6,11.5 5.75,11.25 5.375,11.125 L 5,11 5.28125,11.09375 5.5625,11.1875 5.375,11.125 Q 5.1875,11.0625 5,11.0625 H 4.8125 4.90625 5 L 5.125,10.65625 Q 5.25,10.25 5.5,10 5.75,9.75 6,9.5 6.25,9.25 6.5,9 6.75,8.75 7,8.5 7.25,8.25 7.5,8 7.75,7.75 8,7.5 m 5,9 q 0.25,0.25 0.5,0.25 0.25,0 0.5,-0.25 0.25,-0.25 0.5,-0.5 0.25,-0.25 0.5,-0.5 0.25,-0.25 0.5,-0.5 0.25,-0.25 0.5,-0.5 0.25,-0.25 0.5,-0.5 0.25,-0.25 0.25,-0.5 0,-0.25 -0.25,-0.5 Q 16.25,12.75 16,12.5 15.75,12.25 15.5,12 15.25,11.75 15,11.5 14.75,11.25 14.5,11 14.25,10.75 14,10.5 q -0.25,-0.25 -0.5,-0.25 -0.25,0 -0.5,0.25 -0.25,0.25 -0.5,0.5 -0.25,0.25 -0.5,0.5 -0.25,0.25 -0.5,0.5 -0.25,0.25 -0.5,0.5 -0.25,0.25 -0.5,0.5 -0.25,0.25 -0.25,0.5 0,0.25 0.25,0.5 0.25,0.25 0.5,0.5 0.25,0.25 0.5,0.5 0.25,0.25 0.5,0.5 0.25,0.25 0.5,0.5 0.25,0.25 0.5,0.5"
         id="path10517" />
      <path
         style="fill:#c9a5c8;fill-opacity:1"
         d="M 13,2.5 Q 13.25,2.25 13.625,2.125 14,2 14.375,2.125 14.75,2.25 15,2.5 15.25,2.75 15.5,3 15.75,3.25 16,3.5 16.25,3.75 16.5,4 16.75,4.25 17,4.5 17.25,4.75 17.5,5 17.75,5.25 18,5.5 18.25,5.75 18.5,5.75 18.75,5.75 19,5.5 19.25,5.25 19.5,5 19.75,4.75 20,4.5 20.25,4.25 20.5,4 20.75,3.75 21,3.5 21.25,3.25 21.5,3 21.75,2.75 22,2.5 22.25,2.25 22.625,2.125 23,2 23.375,2.125 23.75,2.25 24,2.5 24.25,2.75 24.5,3 24.75,3.25 25,3.5 25.25,3.75 25.5,4 25.75,4.25 26,4.5 26.25,4.75 26.5,5 26.75,5.25 27,5.5 27.25,5.75 27.5,6 27.75,6.25 28,6.5 28.25,6.75 28.5,7 28.75,7.25 28.875,7.625 29,8 28.875,8.375 28.75,8.75 28.5,9 28.25,9.25 28,9.5 27.75,9.75 27.5,10 27.25,10.25 27,10.5 26.75,10.75 26.5,11 26.25,11.25 26.125,11.625 L 26,12 V 11.625 11.25 11.5 q 0,0.25 0.09375,0.40625 l 0.09375,0.15625 -0.04687,-0.07813 -0.04687,-0.07813 -0.421875,0.171875 Q 25.25,12.25 25,12.5 24.75,12.75 24.5,13 24.25,13.25 24,13.5 23.75,13.75 23.5,14 23.25,14.25 23,14.5 22.75,14.75 22.5,15 22.25,15.25 22,15.5 21.75,15.75 21.5,16 21.25,16.25 21,16.5 20.75,16.75 20.5,16.75 20.25,16.75 20,16.5 19.75,16.25 19.5,16 19.25,15.75 19,15.5 18.75,15.25 18.5,15 q -0.25,-0.25 -0.25,-0.5 0,-0.25 0.25,-0.5 0.25,-0.25 0.5,-0.5 0.25,-0.25 0.5,-0.5 0.25,-0.25 0.5,-0.5 0.25,-0.25 0.5,-0.5 0.25,-0.25 0.5,-0.5 0.25,-0.25 0.5,-0.5 0.25,-0.25 0.25,-0.5 0,-0.25 -0.25,-0.5 Q 21.25,9.75 21,9.5 20.75,9.25 20.5,9 20.25,8.75 20,8.5 19.75,8.25 19.5,8.25 19.25,8.25 19,8.5 18.75,8.75 18.5,9 18.25,9.25 18,9.5 17.75,9.75 17.5,9.75 17.25,9.75 17,9.5 16.75,9.25 16.5,9 16.25,8.75 16,8.5 15.75,8.25 15.5,8 15.25,7.75 15,7.5 14.75,7.25 14.375,7.125 14,7 13.625,7.125 13.25,7.25 13,7.5 12.75,7.75 12.5,8 12.25,8.25 12,8.5 11.75,8.75 11.375,8.875 11,9 10.625,8.875 10.25,8.75 10,8.5 9.75,8.25 9.5,8 9.25,7.75 9.09375,7.34375 L 8.9375,6.9375 8.875,7 8.8125,7.0625 8.9375,6.9375 Q 9.0625,6.8125 9.125,6.625 L 9.1875,6.4375 9.09375,6.71875 9,7 9.125,6.625 Q 9.25,6.25 9.5,6 9.75,5.75 10,5.5 10.25,5.25 10.5,5 10.75,4.75 11,4.5 11.25,4.25 11.5,4 11.75,3.75 12,3.5 12.25,3.25 12.5,3 12.75,2.75 13,2.5"
         id="path10515" />
      <path
         style="fill:#000000;fill-opacity:0"
         d="M 0,0.5 V 0 H 0.5 1 1.5 2 2.5 3 3.5 4 4.5 5 5.5 6 6.5 7 7.5 8 8.5 9 9.5 10 10.5 11 11.5 12 12.5 13 13.5 14 14.5 15 15.5 16 16.5 17 17.5 18 18.5 19 19.5 20 20.5 21 21.5 22 22.5 23 23.5 24 24.5 25 25.5 26 26.5 27 27.5 28 28.5 29 29.5 30 30.5 31 31.5 32 V 0.5 1 1.5 2 2.5 3 3.5 4 4.5 5 5.5 6 6.5 7 7.5 8 8.5 9 9.5 10 10.5 11 11.5 12 12.5 13 13.5 14 14.5 15 15.5 16 16.5 17 17.5 18 18.5 19 19.5 20 20.5 21 21.5 22 22.5 23 23.5 24 24.5 25 25.5 26 26.5 27 27.5 28 28.5 29 29.5 30 30.5 31 31.5 32 H 31.5 31 30.5 30 29.5 29 28.5 28 27.5 27 26.5 26 25.5 25 24.5 24 23.5 23 22.5 22 21.5 21 20.5 20 19.5 19 18.5 18 17.5 17 16.5 16 15.5 15 14.5 14 13.5 13 12.5 12 11.5 11 10.5 10 9.5 9 8.5 8 7.5 7 6.5 6 5.5 5 4.5 4 3.5 3 2.5 2 1.5 1 0.5 0 V 31.5 31 30.5 30 29.5 29 28.5 28 27.5 27 26.5 26 25.5 25 24.5 24 23.5 23 22.5 22 21.5 21 20.5 20 19.5 19 18.5 18 17.5 17 16.5 16 15.5 15 14.5 14 13.5 13 12.5 12 11.5 11 10.5 10 9.5 9 8.5 8 7.5 7 6.5 6 5.5 5 4.5 4 3.5 3 2.5 2 1.5 1 0.5 M 18.625,29.875 Q 19,30 19.375,29.875 19.75,29.75 20,29.5 20.25,29.25 20.5,29 20.75,28.75 21,28.5 21.25,28.25 21.5,28 21.75,27.75 22,27.5 22.25,27.25 22.5,27 22.75,26.75 23,26.5 23.25,26.25 23.5,26 23.75,25.75 24,25.5 24.25,25.25 24.5,25 24.75,24.75 25,24.5 25.25,24.25 25.5,24 25.75,23.75 25.875,23.375 L 26,23 25.90625,23.28125 25.8125,23.5625 25.875,23.375 Q 25.9375,23.1875 25.9375,23 V 22.8125 22.90625 23 l 0.40625,-0.125 Q 26.75,22.75 27,22.5 27.25,22.25 27.5,22 27.75,21.75 28,21.5 28.25,21.25 28.5,21 28.75,20.75 29,20.5 29.25,20.25 29.5,20 29.75,19.75 30,19.5 30.25,19.25 30.5,19 30.75,18.75 30.875,18.375 31,18 31,17.5 31,17 30.875,16.625 30.75,16.25 30.5,16 30.25,15.75 30,15.5 29.75,15.25 29.5,15 29.25,14.75 29,14.5 28.75,14.25 28.5,14 28.25,13.75 28,13.5 27.75,13.25 27.375,13.125 27,13 26.875,12.625 26.75,12.25 26.375,12.125 26,12 26.125,11.625 26.25,11.25 26.5,11 26.75,10.75 27,10.5 27.25,10.25 27.5,10 27.75,9.75 28,9.5 28.25,9.25 28.5,9 28.75,8.75 28.875,8.375 29,8 28.875,7.625 28.75,7.25 28.5,7 28.25,6.75 28,6.5 27.75,6.25 27.5,6 27.25,5.75 27,5.5 26.75,5.25 26.5,5 26.25,4.75 26,4.5 25.75,4.25 25.5,4 25.25,3.75 25,3.5 24.75,3.25 24.5,3 24.25,2.75 24,2.5 23.75,2.25 23.375,2.125 23,2 22.625,2.125 22.25,2.25 22,2.5 21.75,2.75 21.5,3 21.25,3.25 21,3.5 20.75,3.75 20.5,4 20.25,4.25 20,4.5 19.75,4.75 19.5,5 19.25,5.25 19,5.5 18.75,5.75 18.5,5.75 18.25,5.75 18,5.5 17.75,5.25 17.5,5 17.25,4.75 17,4.5 16.75,4.25 16.5,4 16.25,3.75 16,3.5 15.75,3.25 15.5,3 15.25,2.75 15,2.5 14.75,2.25 14.375,2.125 14,2 13.625,2.125 13.25,2.25 13,2.5 12.75,2.75 12.5,3 12.25,3.25 12,3.5 11.75,3.75 11.5,4 11.25,4.25 11,4.5 10.75,4.75 10.5,5 10.25,5.25 10,5.5 9.75,5.75 9.5,6 9.25,6.25 9.125,6.625 9,7 8.625,7.125 8.25,7.25 8,7.5 7.75,7.75 7.5,8 7.25,8.25 7,8.5 6.75,8.75 6.5,9 6.25,9.25 6,9.5 5.75,9.75 5.5,10 5.25,10.25 5.125,10.65625 L 5,11.0625 H 5.09375 5.1875 5 q -0.1875,0 -0.375,0.0625 L 4.4375,11.1875 4.71875,11.09375 5,11 4.625,11.125 Q 4.25,11.25 4,11.5 3.75,11.75 3.5,12 3.25,12.25 3,12.5 2.75,12.75 2.5,13 2.25,13.25 2,13.5 1.75,13.75 1.5,14 1.25,14.25 1.125,14.625 1,15 1,15.5 1,16 1.125,16.375 1.25,16.75 1.5,17 q 0.25,0.25 0.5,0.5 0.25,0.25 0.5,0.5 0.25,0.25 0.5,0.5 0.25,0.25 0.5,0.5 0.25,0.25 0.5,0.5 0.25,0.25 0.5,0.5 0.25,0.25 0.5,0.5 0.25,0.25 0.5,0.5 0.25,0.25 0.5,0.5 0.25,0.25 0.5,0.5 0.25,0.25 0.5,0.5 0.25,0.25 0.5,0.5 0.25,0.25 0.5,0.5 0.25,0.25 0.5,0.5 0.25,0.25 0.5,0.5 0.25,0.25 0.5,0.5 0.25,0.25 0.5,0.5 0.25,0.25 0.5,0.5 0.25,0.25 0.5,0.5 0.25,0.25 0.625,0.375 0.375,0.125 0.75,0 Q 12.75,26.75 13,26.5 13.25,26.25 13.625,26.125 14,26 14.375,26.125 14.75,26.25 15,26.5 q 0.25,0.25 0.5,0.5 0.25,0.25 0.5,0.5 0.25,0.25 0.5,0.5 0.25,0.25 0.5,0.5 0.25,0.25 0.5,0.5 0.25,0.25 0.5,0.5 0.25,0.25 0.625,0.375"
         id="path10513" />
    </g>
  </g>
</svg>
