<svg xmlns="http://www.w3.org/2000/svg" viewBox="0 0 32 32"><path d="M23.2 2.7v-.5h32v32h-32V2.7m19.5 27.5q.5 0 .5-.5t.5-.5.5-.5.5-.5.5-.5.5-.5.5-.5.5-.5.5-.5.5-.5.5-.5.5-.5.5-.5.5-.5q.5 0 .6-.4t.4-.6.4-.7v-5.8q0-.4-.4-.5l-.5-.5-.5-.5-.5-.5-.5-.5-.5-.5-.5-.5-.5-.5-.5-.5-.5-.5-.5-.5-.5-.5-.5-.5-.5-.5-.5-.5-.5-.5-.5-.5-.5-.5-.6-.4-1-.1h-3.8l-.4.2h.3l.3-.2h-.2l-.3.3-.1.1.1-.1-.3-.3q-.3-.3-.6-.2t-1 .2h-3q-.4 0-.4.5t-.5.5-.5.5-.5.5-.5.5-.5.5-.5.5-.5.5-.5.5v15q0 .5.5.5t.5.5.5.5.5.5.5.5.5.5.5.5.5.5.5.5h11M-33.1 10v-.5h32v32h-32V10m19.5 27.5q.5 0 .5-.5t.5-.5.5-.5.5-.5.5-.5.5-.5.5-.5.5-.5.5-.5.5-.5.5-.5.5-.5.5-.5.5-.5q.5 0 .6-.4t.4-.6.4-.6l.1-1v-4l-.1-.8q-.1-.4-.4-.6L-6 22l-.5-.5-.5-.5-.5-.5-.5-.5-.5-.5-.5-.5-.5-.5-.5-.5-.5-.5-.5-.5-.5-.5-.5-.5-.5-.5-.5-.5-.5-.5-.5-.5q-.2-.3-.6-.4t-.9-.1h-3l-.9.1-.3.1h.3l.2-.1h-.2l-.3.2v.1-.1l-.2-.3q-.3-.3-.7-.1t-.9 0h-3q-.5 0-.5.6t-.5.5-.5.5-.5.5-.5.5-.5.5-.5.5-.5.5-.5.5v15q0 .5.5.5t.5.5.5.5.5.5.5.5.5.5.5.5.5.5.5.5h11" fill="none"/><path d="M0 .5V0h32v32H0V.5M19.5 28q.5 0 .5-.5t.5-.5.5-.5.5-.5.5-.5.5-.5.5-.5.5-.5.5-.5.5-.5.5-.5.5-.5.5-.5.5-.5q.5 0 .6-.4t.4-.6.4-.6l.1-.9v-4l-.1-.9q-.1-.4-.4-.6l-.5-.5-.5-.5-.5-.5-.5-.5-.5-.5-.5-.5-.5-.5-.5-.5-.5-.5-.5-.5-.5-.5-.5-.5-.5-.5-.5-.5-.5-.5-.5-.5-.5-.5-.6-.4-.9-.1h-3l-.9.1-.3.2.2-.1.3-.1h-.2q-.2 0-.3.2l-.1.1h.1L13 4q-.3-.3-.6-.1t-.9.1h-3Q8 4 8 4.5t-.5.5-.5.5-.5.5-.5.5-.5.5-.5.5-.5.5-.5.5v15q0 .5.5.5t.5.5.5.5.5.5.5.5.5.5.5.5.5.5.5.5h11" fill="none"/><path d="M8 4.5q0-.5.5-.5h3l.9-.1q.4-.1.6.1l.3.3.1-.1v.1l-.3.3v.2-.3l.2-.2-.2.3q-.1.4-.6.4t-.5.5-.5.5-.5.5-.5.5-.5.5-.5.5-.5.5-.5.5-.5.5v1q0 .5.5.5t.5.5.5.5.5.5.5.5.5.5.5.5.5.5.5.5.5.5.5.5h1q.5 0 .5-.5t.5-.5.5-.5.5-.5.5-.5.5-.5.5-.5.5-.5q.5 0 .5.5t.5.5.5.5.5.5.5.5v3q0 .5.5.5t.5.5.5.5.5.5.5.5h2l.9-.1q.4-.1.6.1l.3.3v-.1l-.2.4v.2-.3l.2-.3-.2.4q-.1.4-.6.4t-.5.5-.5.5-.5.5-.5.5-.5.5-.5.5-.5.5-.5.5-.5.5-.5.5-.5.5-.5.5-.5.5-.5.5h-11q-.5 0-.5-.5t-.5-.5-.5-.5-.5-.5-.5-.5-.5-.5-.5-.5-.5-.5-.5-.5v-15q0-.5.5-.5t.5-.5.5-.5.5-.5.5-.5.5-.5.5-.5.5-.5" fill="#2a2a2a"/><path d="m13.1 4.6.5-.5q.3-.2.9-.1h3l.9.1q.4.1.6.4l.5.5.5.5.5.5.5.5.5.5.5.5.5.5.5.5.5.5.5.5.5.5.5.5.5.5.5.5.5.5.5.5.5.5.4.6.1.9v4l-.1.9q-.1.4-.4.6l-.3.3.2-.2.2-.2-.1.1-.2.3-.1.1v-.1L27 20q-.2-.2-.6-.1l-.9.1h-2q-.5 0-.5-.5t-.5-.5-.5-.5-.5-.5-.5-.5v-3q0-.5-.5-.5t-.5-.5-.5-.5-.5-.5-.5-.5q-.5 0-.5.5t-.5.5-.5.5-.5.5-.5.5-.5.5-.5.5-.5.5h-1q-.5 0-.5-.5t-.5-.5-.5-.5-.5-.5-.5-.5-.5-.5-.5-.5-.5-.5-.5-.5-.5-.5-.5-.5v-1q0-.5.5-.5t.5-.5.5-.5.5-.5.5-.5.5-.5.5-.5.5-.5.5-.5q.5 0 .6-.4" fill="#404040"/></svg>