<svg xmlns="http://www.w3.org/2000/svg" viewBox="0 -0.5 32 32" shape-rendering="crispEdges">
<metadata>Made with Pixels to Svg https://codepen.io/shshaw/pen/XbxvNj</metadata>
<path stroke="#2a2a2a" d="M8 4h5M7 5h5M6 6h5M5 7h5M4 8h5M4 9h4M4 10h4M4 11h5M4 12h6M18 12h1M4 13h7M17 13h3M4 14h8M16 14h5M4 15h9M15 15h6M4 16h17M4 17h17M4 18h18M4 19h19M4 20h23M4 21h22M4 22h21M4 23h20M5 24h18M6 25h16M7 26h14M8 27h12" />
<path stroke="#404040" d="M13 4h6M12 5h8M11 6h10M10 7h12M9 8h14M8 9h16M8 10h17M9 11h17M10 12h8M19 12h8M11 13h6M20 13h8M12 14h4M21 14h7M13 15h2M21 15h7M21 16h7M21 17h7M22 18h6M23 19h5" />
</svg>