<svg xmlns="http://www.w3.org/2000/svg" viewBox="0 0 32 32"><path d="M23.1864 2.6695v-.5h32v32h-32v-31.5m19.5 27.5q.5 0 .5-.5t.5-.5.5-.5.5-.5.5-.5.5-.5.5-.5.5-.5.5-.5.5-.5.5-.5.5-.5.5-.5.5-.5q.5 0 .625-.375t.375-.625.375-.625q.125-.375.125-.875v-1-1-1-1q0-.5-.125-.875t-.375-.625l-.5-.5-.5-.5-.5-.5-.5-.5-.5-.5-.5-.5-.5-.5-.5-.5-.5-.5-.5-.5-.5-.5-.5-.5-.5-.5-.5-.5-.5-.5-.5-.5-.5-.5q-.25-.25-.625-.375t-.875-.125h-3q-.5 0-.875.125l-.375.125.2813-.0938.2812-.0937-.1875.0625q-.1875.0625-.3125.1875l-.125.125.0625-.0625.0625-.0625-.2812-.2813q-.2813-.2812-.6563-.1562t-.875.125h-3q-.5 0-.5.5t-.5.5-.5.5-.5.5-.5.5-.5.5-.5.5-.5.5-.5.5v15q0 .5.5.5t.5.5.5.5.5.5.5.5.5.5.5.5.5.5.5.5h11M-33.0782 10.0879v-.5h32v32h-32v-31.5m19.5 27.5q.5 0 .5-.5t.5-.5.5-.5.5-.5.5-.5.5-.5.5-.5.5-.5.5-.5.5-.5.5-.5.5-.5.5-.5.5-.5q.5 0 .625-.375t.375-.625.375-.625q.125-.375.125-.875v-1-1-1-1q0-.5-.125-.875t-.375-.625l-.5-.5-.5-.5-.5-.5-.5-.5-.5-.5-.5-.5-.5-.5-.5-.5-.5-.5-.5-.5-.5-.5-.5-.5-.5-.5-.5-.5-.5-.5-.5-.5-.5-.5q-.25-.25-.625-.375t-.875-.125h-3q-.5 0-.875.125l-.375.125.2812-.0938.2813-.0937-.1875.0625q-.1875.0625-.3125.1875l-.125.125.0625-.0625.0625-.0625-.2813-.2813q-.2812-.2812-.6562-.1562t-.875.125h-3q-.5 0-.5.5t-.5.5-.5.5-.5.5-.5.5-.5.5-.5.5-.5.5-.5.5v15q0 .5.5.5t.5.5.5.5.5.5.5.5.5.5.5.5.5.5.5.5h11" fill="none"/><path d="M0 .5V0h32v32H0V.5M19.5 28q.5 0 .5-.5t.5-.5.5-.5.5-.5.5-.5.5-.5.5-.5.5-.5.5-.5.5-.5.5-.5.5-.5.5-.5.5-.5q.5 0 .625-.375T27.5 20t.375-.625Q28 19 28 18.5v-1-1-1-1q0-.5-.125-.875T27.5 13l-.5-.5-.5-.5-.5-.5-.5-.5-.5-.5-.5-.5-.5-.5-.5-.5-.5-.5-.5-.5-.5-.5-.5-.5-.5-.5-.5-.5-.5-.5-.5-.5-.5-.5q-.25-.25-.625-.375T17.5 4h-3q-.5 0-.875.125l-.375.125.2813-.0938.2812-.0937-.1875.0625q-.1875.0625-.3125.1875l-.125.125.0625-.0625.0625-.0625-.2813-.2813Q12.75 3.75 12.375 3.875T11.5 4h-3Q8 4 8 4.5t-.5.5-.5.5-.5.5-.5.5-.5.5-.5.5-.5.5-.5.5v15q0 .5.5.5t.5.5.5.5.5.5.5.5.5.5.5.5.5.5.5.5h11" fill="none"/><path d="M8 4.5q0-.5.5-.5h3q.5 0 .875-.125t.6563.1563l.2812.2812.0625-.0625.0625-.0625-.125.125q-.125.125-.1875.3125l-.0625.1875.0938-.2813.0937-.2812-.125.375Q13 5 12.5 5t-.5.5-.5.5-.5.5-.5.5-.5.5-.5.5-.5.5-.5.5-.5.5v1q0 .5.5.5t.5.5.5.5.5.5.5.5.5.5.5.5.5.5.5.5.5.5.5.5h1q.5 0 .5-.5t.5-.5.5-.5.5-.5.5-.5.5-.5.5-.5.5-.5q.5 0 .5.5t.5.5.5.5.5.5.5.5v3q0 .5.5.5t.5.5.5.5.5.5.5.5h2q.5 0 .875-.125t.6406.1406l.2657.2657.0468-.0782.0469-.0781-.0938.1563q-.0937.1562-.1562.3437l-.0625.1875.0938-.2813.0937-.2812-.125.375Q27 21 26.5 21t-.5.5-.5.5-.5.5-.5.5-.5.5-.5.5-.5.5-.5.5-.5.5-.5.5-.5.5-.5.5-.5.5-.5.5h-11q-.5 0-.5-.5t-.5-.5-.5-.5-.5-.5-.5-.5-.5-.5-.5-.5-.5-.5-.5-.5v-1-1-1-1-1-1-1-1-1-1-1-1-1-1-1q0-.5.5-.5t.5-.5.5-.5.5-.5.5-.5.5-.5.5-.5.5-.5" fill="#2a2a2a"/><path d="M13.125 4.625q.125-.375.5-.5T14.5 4h3q.5 0 .875.125T19 4.5l.5.5.5.5.5.5.5.5.5.5.5.5.5.5.5.5.5.5.5.5.5.5.5.5.5.5.5.5.5.5.5.5.5.5q.25.25.375.625T28 14.5v4q0 .5-.125.875T27.5 20l-.25.25.1875-.1875.1875-.1875L27.5 20q-.125.125-.2188.2813l-.0937.1562.0469-.0781.0468-.0782-.2656-.2656q-.2656-.2656-.6406-.1406Q26 20 25.5 20h-2q-.5 0-.5-.5t-.5-.5-.5-.5-.5-.5-.5-.5v-1-1-1q0-.5-.5-.5t-.5-.5-.5-.5-.5-.5-.5-.5q-.5 0-.5.5t-.5.5-.5.5-.5.5-.5.5-.5.5-.5.5-.5.5h-1q-.5 0-.5-.5t-.5-.5-.5-.5-.5-.5-.5-.5-.5-.5-.5-.5-.5-.5-.5-.5-.5-.5-.5-.5v-1q0-.5.5-.5t.5-.5.5-.5.5-.5.5-.5.5-.5.5-.5.5-.5.5-.5q.5 0 .625-.375" fill="#404040"/></svg>