<svg xmlns="http://www.w3.org/2000/svg" viewBox="0 0 32 32"><path d="M0 .5V0h32v32H0V.5M21.5 29q.5 0 .875-.125T23 28.5l.5-.5.5-.5.5-.5q.25-.25.375-.625t.5-.5q.375-.125.625-.375l.5-.5.5-.5.5-.5.5-.5.5-.5.5-.5.5-.5q.25-.25.375-.625T30 20.5v-1-1-1q0-.5-.125-.875t-.5-.5-.5-.5Q28.75 15.25 28.5 15l-.5-.5-.5-.5-.5-.5-.5-.5-.5-.5q-.25-.25-.625-.375t-.5-.5Q24.75 11.25 24.5 11l-.5-.5-.5-.5-.5-.5-.5-.5-.5-.5-.5-.5-.5-.5q-.25-.25-.625-.375t-.5-.5Q19.75 6.25 19.5 6l-.5-.5-.5-.5-.5-.5-.5-.5-.5-.5q-.25-.25-.625-.375t-.5-.5-.5-.5Q15 2 14.5 2h-4q-.5 0-.875.125T9 2.5l-.5.5-.5.5-.5.5-.5.5-.5.5-.5.5-.5.5-.5.5-.5.5q-.25.25-.375.625t-.5.5Q3.25 8.25 3 8.5l-.5.5q-.25.25-.375.625T2 10.5v5q0 .5.125.875T2.5 17l.5.5.5.5.5.5.5.5.5.5.5.5.5.5.5.5.5.5.5.5.5.5.5.5.5.5.5.5.5.5.5.5.5.5.5.5.5.5.5.5.5.5.5.5.5.5q.25.25.625.375T15.5 29h6" fill="none"/><path d="M9 2.5q.25-.25.625-.375T10.5 2h4q.5 0 .875.125t.5.5L16 3l-.0938-.2813-.0937-.2812.0625.1875q.0625.1875.1875.3125l.125.125L16.125 3l-.0625-.0625-.1563.4063q-.1562.4062-.5312.5312l-.75.25Q14.25 4.25 14 4.5t-.625.375l-.75.25Q12.25 5.25 12 5.5t-.625.375l-.75.25Q10.25 6.25 10 6.5t-.625.375l-.75.25Q8.25 7.25 8 7.5t-.625.375l-.75.25Q6.25 8.25 6 8.5t-.625.375q-.375.125-.75 0t-.5313-.5313l-.1562-.4062L3.875 8l-.0625.0625.125-.125q.125-.125.1875-.3125l.0625-.1875-.0938.2813L4 8l.125-.375Q4.25 7.25 4.5 7l.5-.5.5-.5.5-.5.5-.5.5-.5.5-.5.5-.5.5-.5.5-.5" fill="#d99d73"/><path d="M15.9063 3.3438l.1562-.4063L16 2.875l-.0625-.0625.125.125q.125.125.3125.1875l.1875.0625-.2813-.0938L16 3l.375.125q.375.125.625.375l.5.5.5.5.5.5.5.5.5.5q.25.25.375.625L20 7l-.0938-.2813-.0937-.2812.0625.1875q.0625.1875.1875.3125l.125.125L20.125 7l-.0625-.0625-.1563.4063q-.1562.4062-.5312.5312l-.75.25Q18.25 8.25 18 8.5t-.625.375l-.75.25Q16.25 9.25 16 9.5t-.625.375l-.75.25q-.375.125-.625.375t-.625.375l-.75.25q-.375.125-.625.375t-.625.375l-.75.25q-.375.125-.625.375t-.625.375Q9 13 8.5 13t-.875-.125Q7.25 12.75 7 12.5l-.5-.5-.5-.5-.5-.5q-.25-.25-.375-.625T5 9.4687v-.5312h-.1875H5q.1875 0 .375-.0625l.1875-.0625-.2813.0938L5 9l.375-.125Q5.75 8.75 6 8.5t.625-.375l.75-.25Q7.75 7.75 8 7.5t.625-.375l.75-.25Q9.75 6.75 10 6.5t.625-.375l.75-.25Q11.75 5.75 12 5.5t.625-.375l.75-.25Q13.75 4.75 14 4.5t.625-.375l.75-.25q.375-.125.5313-.5313" fill="#eac2a9"/><path d="M19.9063 7.3438l.1562-.4063L20 6.875l-.0625-.0625.125.125q.125.125.3125.1875l.1875.0625-.2813-.0938L20 7l.375.125q.375.125.625.375l.5.5.5.5.5.5.5.5.5.5.5.5.5.5q.25.25.375.625L25 12l-.0938-.2813-.0937-.2812.0625.1875q.0625.1875.1875.3125l.125.125L25.125 12l-.0625-.0625-.5313.0313Q24 12 23.625 12.125T23 12.5t-.625.375l-.75.25q-.375.125-.625.375t-.625.375l-.75.25q-.375.125-.625.375t-.625.375l-.75.25q-.375.125-.625.375t-.625.375l-.75.25q-.375.125-.625.375t-.625.375l-.75.25q-.375.125-.5.5L13 18l.0938-.2813.0937-.2812-.0625.1875q-.0625.1875-.0625.375v.1875V18l-.4063-.125Q12.25 17.75 12 17.5l-.5-.5-.5-.5-.5-.5-.5-.5-.5-.5-.5-.5-.5-.5q-.25-.25-.3594-.6406l-.1093-.3907-.1094-.0156-.1094-.0156.2188.0313Q8.25 13 8.5 13h.25H8h.5q.5 0 .875-.125T10 12.5t.625-.375l.75-.25q.375-.125.625-.375t.625-.375l.75-.25q.375-.125.625-.375t.625-.375l.75-.25Q15.75 9.75 16 9.5t.625-.375l.75-.25Q17.75 8.75 18 8.5t.625-.375l.75-.25q.375-.125.5313-.5313" fill="#d99d73"/><path d="M3 8.5q.25-.25.625-.375L4 8l-.2813.0938-.2812.0937.1875-.0625q.1875-.0625.3125-.1875l.125-.125L4 7.875l-.0625.0625.1563.4063q.1562.4062.5312.5312L5 9l-.2813-.0938-.2812-.0937.1875.0625q.1875.0625.375.0625h.1875H5v.5313q0 .5312.125.9062T5.5 11l.5.5.5.5.5.5q.25.25.625.375L8 13l-.2813-.0938-.2812-.0937.1875.0625q.1875.0625.4063.0938L8.25 13l-.1094-.0156-.1093-.0157.1093.3907Q8.25 13.75 8.5 14l.5.5.5.5.5.5.5.5.5.5.5.5.5.5q.25.25.6563.375l.4062.125v-.1875V18q0 .1875.0625.375l.0625.1875-.0938-.2813L13 18l.125.375q.125.375.375.625l.5.5.5.5.5.5.5.5.5.5q.25.25.6563.375l.4062.125v-.1875V22q0 .1875.0625.375l.0625.1875-.0938-.2813L17 22l.125.375q.125.375.375.625l.5.5.5.5.5.5q.25.25.625.375T20.5 25h.5-.75.25q.25 0 .4688-.0313l.2187-.0312-.1094.0156-.1093.0157.1406.3906q.1406.3906.5156.5156Q22 26 22.5 26h1q.5 0 1.0313.0313l.5312.0312L25.125 26l.0625-.0625-.125.125q-.125.125-.1875.3125l-.0625.1875.0938-.2813L25 26l-.125.375q-.125.375-.375.625l-.5.5-.5.5-.5.5q-.25.25-.625.375T21.5 29h-6q-.5 0-.875-.125T14 28.5l-.5-.5-.5-.5-.5-.5-.5-.5-.5-.5-.5-.5-.5-.5-.5-.5-.5-.5-.5-.5-.5-.5-.5-.5-.5-.5-.5-.5-.5-.5-.5-.5-.5-.5-.5-.5-.5-.5-.5-.5-.5-.5-.5-.5-.5-.5q-.25-.25-.375-.625T2 15.5v-1-1-1-1-1q0-.5.125-.875T2.5 9l.5-.5" fill="#b8705c"/><path d="M23 12.5q.25-.25.625-.375t.9063-.1563l.5312-.0312L25 11.875l-.0625-.0625.125.125q.125.125.3125.1875l.1875.0625-.2813-.0938L25 12l.375.125q.375.125.625.375l.5.5.5.5.5.5.5.5.5.5q.25.25.375.625L29 16l-.0938-.2813-.0937-.2812.0625.1875q.0625.1875.1875.3125l.125.125L29.125 16l-.0625-.0625-.5313.0313Q28 16 27.625 16.125T27 16.5t-.625.375l-.75.25q-.375.125-.625.375t-.625.375l-.75.25q-.375.125-.625.375t-.625.375l-.75.25q-.375.125-.625.375t-.625.375l-.75.25q-.375.125-.625.375t-.625.375l-.75.25q-.375.125-.5.5L17 22l.0938-.2813.0937-.2812-.0625.1875q-.0625.1875-.0625.375v.1875V22l-.4063-.125Q16.25 21.75 16 21.5l-.5-.5-.5-.5-.5-.5-.5-.5-.5-.5q-.25-.25-.375-.625t0-.75q.125-.375.5-.5l.75-.25q.375-.125.625-.375t.625-.375l.75-.25q.375-.125.625-.375t.625-.375l.75-.25q.375-.125.625-.375t.625-.375l.75-.25q.375-.125.625-.375t.625-.375l.75-.25q.375-.125.625-.375" fill="#eac2a9"/><path d="M27 16.5q.25-.25.625-.375t.9063-.1563l.5312-.0312L29 15.875l-.0625-.0625.125.125q.125.125.3125.1875l.1875.0625-.2813-.0938L29 16l.375.125q.375.125.5.5T30 17.5V21v-.75.25q0 .25-.0313.4688l-.0312.2187.0156-.1094.0157-.1093-.4844.0156Q29 21 28.625 21.125q-.375.125-.625.375t-.625.375l-.75.25q-.375.125-.625.375t-.625.375l-.75.25q-.375.125-.625.375t-.625.375l-.75.25q-.375.125-.625.375t-.625.375Q21 25 20.5 25t-.875-.125Q19.25 24.75 19 24.5l-.5-.5-.5-.5-.5-.5q-.25-.25-.375-.625t0-.75q.125-.375.5-.5l.75-.25q.375-.125.625-.375t.625-.375l.75-.25q.375-.125.625-.375t.625-.375l.75-.25q.375-.125.625-.375t.625-.375l.75-.25q.375-.125.625-.375t.625-.375l.75-.25q.375-.125.625-.375" fill="#d99d73"/><path d="M28 21.5q.25-.25.625-.375t.8594-.1406l.4843-.0157.0157-.1093L30 20.75l-.0313.2188q-.0312.2187-.0937.4062l-.0625.1875.0938-.2813L30 21l-.125.375q-.125.375-.375.625l-.5.5-.5.5-.5.5-.5.5-.5.5-.5.5-.5.5q-.25.25-.625.375L25 26l.2813-.0938.2812-.0937-.1875.0625q-.1875.0625-.3125.1875l-.125.125L25 26.125l.0625-.0625-.5313-.0313Q24 26 23.5 26h-1q-.5 0-.875-.125t-.5156-.5156l-.1407-.3907-.1093.0157L20.75 25l.2188-.0313q.2187-.0312.4062-.0937l.1875-.0625-.2813.0938L21 25l.375-.125q.375-.125.625-.375t.625-.375l.75-.25q.375-.125.625-.375t.625-.375l.75-.25q.375-.125.625-.375t.625-.375l.75-.25q.375-.125.625-.375" fill="#eac2a9"/></svg>