<?xml version="1.0" encoding="UTF-8" standalone="no"?>
<!-- Created with Inkscape (http://www.inkscape.org/) -->

<svg
   xmlns:dc="http://purl.org/dc/elements/1.1/"
   xmlns:cc="http://creativecommons.org/ns#"
   xmlns:rdf="http://www.w3.org/1999/02/22-rdf-syntax-ns#"
   xmlns:svg="http://www.w3.org/2000/svg"
   xmlns="http://www.w3.org/2000/svg"
   xmlns:sodipodi="http://sodipodi.sourceforge.net/DTD/sodipodi-0.dtd"
   xmlns:inkscape="http://www.inkscape.org/namespaces/inkscape"
   version="1.1"
   id="svg4109"
   width="32"
   height="32"
   viewBox="0 0 32 32"
   sodipodi:docname="copper.svg"
   inkscape:version="0.92.5 (2060ec1f9f, 2020-04-08)">
  <metadata
     id="metadata4115">
    <rdf:RDF>
      <cc:Work
         rdf:about="">
        <dc:format>image/svg+xml</dc:format>
        <dc:type
           rdf:resource="http://purl.org/dc/dcmitype/StillImage" />
        <dc:title></dc:title>
      </cc:Work>
    </rdf:RDF>
  </metadata>
  <defs
     id="defs4113" />
  <sodipodi:namedview
     pagecolor="#ffffff"
     bordercolor="#666666"
     borderopacity="1"
     objecttolerance="10"
     gridtolerance="10"
     guidetolerance="10"
     inkscape:pageopacity="0"
     inkscape:pageshadow="2"
     inkscape:window-width="1366"
     inkscape:window-height="705"
     id="namedview4111"
     showgrid="false"
     inkscape:zoom="7.375"
     inkscape:cx="16"
     inkscape:cy="16"
     inkscape:window-x="-8"
     inkscape:window-y="-8"
     inkscape:window-maximized="1"
     inkscape:current-layer="svg4109" />
  <g
     id="g4698">
    <path
       style="fill:#000000;fill-opacity:0"
       d="M 0,0.5 V 0 H 0.5 1 1.5 2 2.5 3 3.5 4 4.5 5 5.5 6 6.5 7 7.5 8 8.5 9 9.5 10 10.5 11 11.5 12 12.5 13 13.5 14 14.5 15 15.5 16 16.5 17 17.5 18 18.5 19 19.5 20 20.5 21 21.5 22 22.5 23 23.5 24 24.5 25 25.5 26 26.5 27 27.5 28 28.5 29 29.5 30 30.5 31 31.5 32 V 0.5 1 1.5 2 2.5 3 3.5 4 4.5 5 5.5 6 6.5 7 7.5 8 8.5 9 9.5 10 10.5 11 11.5 12 12.5 13 13.5 14 14.5 15 15.5 16 16.5 17 17.5 18 18.5 19 19.5 20 20.5 21 21.5 22 22.5 23 23.5 24 24.5 25 25.5 26 26.5 27 27.5 28 28.5 29 29.5 30 30.5 31 31.5 32 H 31.5 31 30.5 30 29.5 29 28.5 28 27.5 27 26.5 26 25.5 25 24.5 24 23.5 23 22.5 22 21.5 21 20.5 20 19.5 19 18.5 18 17.5 17 16.5 16 15.5 15 14.5 14 13.5 13 12.5 12 11.5 11 10.5 10 9.5 9 8.5 8 7.5 7 6.5 6 5.5 5 4.5 4 3.5 3 2.5 2 1.5 1 0.5 0 V 31.5 31 30.5 30 29.5 29 28.5 28 27.5 27 26.5 26 25.5 25 24.5 24 23.5 23 22.5 22 21.5 21 20.5 20 19.5 19 18.5 18 17.5 17 16.5 16 15.5 15 14.5 14 13.5 13 12.5 12 11.5 11 10.5 10 9.5 9 8.5 8 7.5 7 6.5 6 5.5 5 4.5 4 3.5 3 2.5 2 1.5 1 0.5 M 21.5,29 Q 22,29 22.375,28.875 22.75,28.75 23,28.5 23.25,28.25 23.5,28 23.75,27.75 24,27.5 24.25,27.25 24.5,27 24.75,26.75 24.875,26.375 25,26 25.375,25.875 25.75,25.75 26,25.5 26.25,25.25 26.5,25 26.75,24.75 27,24.5 27.25,24.25 27.5,24 27.75,23.75 28,23.5 28.25,23.25 28.5,23 28.75,22.75 29,22.5 29.25,22.25 29.5,22 29.75,21.75 29.875,21.375 30,21 30,20.5 q 0,-0.5 0,-1 0,-0.5 0,-1 0,-0.5 0,-1 0,-0.5 -0.125,-0.875 -0.125,-0.375 -0.5,-0.5 Q 29,16 28.875,15.625 28.75,15.25 28.5,15 28.25,14.75 28,14.5 27.75,14.25 27.5,14 27.25,13.75 27,13.5 26.75,13.25 26.5,13 26.25,12.75 26,12.5 25.75,12.25 25.375,12.125 25,12 24.875,11.625 24.75,11.25 24.5,11 24.25,10.75 24,10.5 23.75,10.25 23.5,10 23.25,9.75 23,9.5 22.75,9.25 22.5,9 22.25,8.75 22,8.5 21.75,8.25 21.5,8 21.25,7.75 21,7.5 20.75,7.25 20.375,7.125 20,7 19.875,6.625 19.75,6.25 19.5,6 19.25,5.75 19,5.5 18.75,5.25 18.5,5 18.25,4.75 18,4.5 17.75,4.25 17.5,4 17.25,3.75 17,3.5 16.75,3.25 16.375,3.125 16,3 15.875,2.625 15.75,2.25 15.375,2.125 15,2 14.5,2 14,2 13.5,2 13,2 12.5,2 12,2 11.5,2 11,2 10.5,2 10,2 9.625,2.125 9.25,2.25 9,2.5 8.75,2.75 8.5,3 8.25,3.25 8,3.5 7.75,3.75 7.5,4 7.25,4.25 7,4.5 6.75,4.75 6.5,5 6.25,5.25 6,5.5 5.75,5.75 5.5,6 5.25,6.25 5,6.5 4.75,6.75 4.5,7 4.25,7.25 4.125,7.625 4,8 3.625,8.125 3.25,8.25 3,8.5 2.75,8.75 2.5,9 2.25,9.25 2.125,9.625 2,10 2,10.5 q 0,0.5 0,1 0,0.5 0,1 0,0.5 0,1 0,0.5 0,1 0,0.5 0,1 Q 2,16 2.125,16.375 2.25,16.75 2.5,17 q 0.25,0.25 0.5,0.5 0.25,0.25 0.5,0.5 0.25,0.25 0.5,0.5 0.25,0.25 0.5,0.5 0.25,0.25 0.5,0.5 0.25,0.25 0.5,0.5 0.25,0.25 0.5,0.5 0.25,0.25 0.5,0.5 0.25,0.25 0.5,0.5 0.25,0.25 0.5,0.5 0.25,0.25 0.5,0.5 0.25,0.25 0.5,0.5 0.25,0.25 0.5,0.5 0.25,0.25 0.5,0.5 0.25,0.25 0.5,0.5 0.25,0.25 0.5,0.5 0.25,0.25 0.5,0.5 0.25,0.25 0.5,0.5 0.25,0.25 0.5,0.5 0.25,0.25 0.5,0.5 0.25,0.25 0.5,0.5 0.25,0.25 0.5,0.5 0.25,0.25 0.5,0.5 0.25,0.25 0.625,0.375 Q 15,29 15.5,29 q 0.5,0 1,0 0.5,0 1,0 0.5,0 1,0 0.5,0 1,0 0.5,0 1,0 0.5,0 1,0"
       id="path4682"
       inkscape:connector-curvature="0" />
    <path
       style="fill:#d99d73;fill-opacity:1"
       d="M 9,2.5 Q 9.25,2.25 9.625,2.125 10,2 10.5,2 q 0.5,0 1,0 0.5,0 1,0 0.5,0 1,0 0.5,0 1,0 0.5,0 0.875,0.125 0.375,0.125 0.5,0.5 L 16,3 15.90625,2.71875 15.8125,2.4375 15.875,2.625 q 0.0625,0.1875 0.1875,0.3125 l 0.125,0.125 L 16.125,3 16.0625,2.9375 15.90625,3.34375 Q 15.75,3.75 15.375,3.875 15,4 14.625,4.125 14.25,4.25 14,4.5 13.75,4.75 13.375,4.875 13,5 12.625,5.125 12.25,5.25 12,5.5 11.75,5.75 11.375,5.875 11,6 10.625,6.125 10.25,6.25 10,6.5 9.75,6.75 9.375,6.875 9,7 8.625,7.125 8.25,7.25 8,7.5 7.75,7.75 7.375,7.875 7,8 6.625,8.125 6.25,8.25 6,8.5 5.75,8.75 5.375,8.875 5,9 4.625,8.875 4.25,8.75 4.09375,8.34375 L 3.9375,7.9375 3.875,8 3.8125,8.0625 3.9375,7.9375 Q 4.0625,7.8125 4.125,7.625 L 4.1875,7.4375 4.09375,7.71875 4,8 4.125,7.625 Q 4.25,7.25 4.5,7 4.75,6.75 5,6.5 5.25,6.25 5.5,6 5.75,5.75 6,5.5 6.25,5.25 6.5,5 6.75,4.75 7,4.5 7.25,4.25 7.5,4 7.75,3.75 8,3.5 8.25,3.25 8.5,3 8.75,2.75 9,2.5"
       id="path4684"
       inkscape:connector-curvature="0" />
    <path
       style="fill:#eac2a9;fill-opacity:1"
       d="M 15.90625,3.34375 16.0625,2.9375 16,2.875 15.9375,2.8125 l 0.125,0.125 q 0.125,0.125 0.3125,0.1875 L 16.5625,3.1875 16.28125,3.09375 16,3 16.375,3.125 Q 16.75,3.25 17,3.5 17.25,3.75 17.5,4 17.75,4.25 18,4.5 18.25,4.75 18.5,5 18.75,5.25 19,5.5 19.25,5.75 19.5,6 19.75,6.25 19.875,6.625 L 20,7 19.90625,6.71875 19.8125,6.4375 19.875,6.625 q 0.0625,0.1875 0.1875,0.3125 l 0.125,0.125 L 20.125,7 20.0625,6.9375 19.90625,7.34375 Q 19.75,7.75 19.375,7.875 19,8 18.625,8.125 18.25,8.25 18,8.5 17.75,8.75 17.375,8.875 17,9 16.625,9.125 16.25,9.25 16,9.5 15.75,9.75 15.375,9.875 15,10 14.625,10.125 14.25,10.25 14,10.5 13.75,10.75 13.375,10.875 13,11 12.625,11.125 12.25,11.25 12,11.5 11.75,11.75 11.375,11.875 11,12 10.625,12.125 10.25,12.25 10,12.5 9.75,12.75 9.375,12.875 9,13 8.5,13 8,13 7.625,12.875 7.25,12.75 7,12.5 6.75,12.25 6.5,12 6.25,11.75 6,11.5 5.75,11.25 5.5,11 5.25,10.75 5.125,10.375 5,10 5,9.46875 V 8.9375 H 4.90625 4.8125 5 q 0.1875,0 0.375,-0.0625 L 5.5625,8.8125 5.28125,8.90625 5,9 5.375,8.875 Q 5.75,8.75 6,8.5 6.25,8.25 6.625,8.125 7,8 7.375,7.875 7.75,7.75 8,7.5 8.25,7.25 8.625,7.125 9,7 9.375,6.875 9.75,6.75 10,6.5 10.25,6.25 10.625,6.125 11,6 11.375,5.875 11.75,5.75 12,5.5 12.25,5.25 12.625,5.125 13,5 13.375,4.875 13.75,4.75 14,4.5 14.25,4.25 14.625,4.125 15,4 15.375,3.875 15.75,3.75 15.90625,3.34375"
       id="path4686"
       inkscape:connector-curvature="0" />
    <path
       style="fill:#d99d73;fill-opacity:1"
       d="M 19.90625,7.34375 20.0625,6.9375 20,6.875 19.9375,6.8125 l 0.125,0.125 q 0.125,0.125 0.3125,0.1875 L 20.5625,7.1875 20.28125,7.09375 20,7 20.375,7.125 Q 20.75,7.25 21,7.5 q 0.25,0.25 0.5,0.5 0.25,0.25 0.5,0.5 0.25,0.25 0.5,0.5 0.25,0.25 0.5,0.5 0.25,0.25 0.5,0.5 0.25,0.25 0.5,0.5 0.25,0.25 0.5,0.5 0.25,0.25 0.375,0.625 L 25,12 24.90625,11.71875 24.8125,11.4375 24.875,11.625 q 0.0625,0.1875 0.1875,0.3125 l 0.125,0.125 L 25.125,12 25.0625,11.9375 24.53125,11.96875 Q 24,12 23.625,12.125 23.25,12.25 23,12.5 22.75,12.75 22.375,12.875 22,13 21.625,13.125 21.25,13.25 21,13.5 20.75,13.75 20.375,13.875 20,14 19.625,14.125 19.25,14.25 19,14.5 18.75,14.75 18.375,14.875 18,15 17.625,15.125 17.25,15.25 17,15.5 16.75,15.75 16.375,15.875 16,16 15.625,16.125 15.25,16.25 15,16.5 14.75,16.75 14.375,16.875 14,17 13.625,17.125 q -0.375,0.125 -0.5,0.5 L 13,18 13.09375,17.71875 13.1875,17.4375 13.125,17.625 Q 13.0625,17.8125 13.0625,18 V 18.1875 18.09375 18 L 12.65625,17.875 Q 12.25,17.75 12,17.5 11.75,17.25 11.5,17 11.25,16.75 11,16.5 10.75,16.25 10.5,16 10.25,15.75 10,15.5 9.75,15.25 9.5,15 9.25,14.75 9,14.5 8.75,14.25 8.5,14 8.25,13.75 8.140625,13.359375 L 8.03125,12.96875 7.921875,12.953125 7.8125,12.9375 8.03125,12.96875 Q 8.25,13 8.5,13 H 8.75 8.375 8 8.5 Q 9,13 9.375,12.875 9.75,12.75 10,12.5 10.25,12.25 10.625,12.125 11,12 11.375,11.875 11.75,11.75 12,11.5 12.25,11.25 12.625,11.125 13,11 13.375,10.875 13.75,10.75 14,10.5 14.25,10.25 14.625,10.125 15,10 15.375,9.875 15.75,9.75 16,9.5 16.25,9.25 16.625,9.125 17,9 17.375,8.875 17.75,8.75 18,8.5 18.25,8.25 18.625,8.125 19,8 19.375,7.875 19.75,7.75 19.90625,7.34375"
       id="path4688"
       inkscape:connector-curvature="0" />
    <path
       style="fill:#b8705c;fill-opacity:1"
       d="M 3,8.5 Q 3.25,8.25 3.625,8.125 L 4,8 3.71875,8.09375 3.4375,8.1875 3.625,8.125 Q 3.8125,8.0625 3.9375,7.9375 L 4.0625,7.8125 4,7.875 3.9375,7.9375 4.09375,8.34375 Q 4.25,8.75 4.625,8.875 L 5,9 4.71875,8.90625 4.4375,8.8125 4.625,8.875 Q 4.8125,8.9375 5,8.9375 H 5.1875 5.09375 5 V 9.46875 Q 5,10 5.125,10.375 5.25,10.75 5.5,11 5.75,11.25 6,11.5 6.25,11.75 6.5,12 6.75,12.25 7,12.5 7.25,12.75 7.625,12.875 L 8,13 7.71875,12.90625 7.4375,12.8125 7.625,12.875 q 0.1875,0.0625 0.40625,0.09375 L 8.25,13 8.140625,12.984375 8.03125,12.96875 8.140625,13.359375 Q 8.25,13.75 8.5,14 q 0.25,0.25 0.5,0.5 0.25,0.25 0.5,0.5 0.25,0.25 0.5,0.5 0.25,0.25 0.5,0.5 0.25,0.25 0.5,0.5 0.25,0.25 0.5,0.5 0.25,0.25 0.5,0.5 0.25,0.25 0.65625,0.375 L 13.0625,18 V 17.90625 17.8125 18 q 0,0.1875 0.0625,0.375 L 13.1875,18.5625 13.09375,18.28125 13,18 13.125,18.375 Q 13.25,18.75 13.5,19 q 0.25,0.25 0.5,0.5 0.25,0.25 0.5,0.5 0.25,0.25 0.5,0.5 0.25,0.25 0.5,0.5 0.25,0.25 0.5,0.5 0.25,0.25 0.65625,0.375 L 17.0625,22 V 21.90625 21.8125 22 q 0,0.1875 0.0625,0.375 L 17.1875,22.5625 17.09375,22.28125 17,22 17.125,22.375 Q 17.25,22.75 17.5,23 q 0.25,0.25 0.5,0.5 0.25,0.25 0.5,0.5 0.25,0.25 0.5,0.5 0.25,0.25 0.625,0.375 Q 20,25 20.5,25 H 21 20.625 20.25 20.5 q 0.25,0 0.46875,-0.03125 l 0.21875,-0.03125 -0.109375,0.01563 -0.109375,0.01563 0.140625,0.390625 Q 21.25,25.75 21.625,25.875 22,26 22.5,26 q 0.5,0 1,0 0.5,0 1.03125,0.03125 L 25.0625,26.0625 25.125,26 l 0.0625,-0.0625 -0.125,0.125 q -0.125,0.125 -0.1875,0.3125 L 24.8125,26.5625 24.90625,26.28125 25,26 24.875,26.375 Q 24.75,26.75 24.5,27 24.25,27.25 24,27.5 23.75,27.75 23.5,28 23.25,28.25 23,28.5 22.75,28.75 22.375,28.875 22,29 21.5,29 q -0.5,0 -1,0 -0.5,0 -1,0 -0.5,0 -1,0 -0.5,0 -1,0 -0.5,0 -1,0 -0.5,0 -1,0 Q 15,29 14.625,28.875 14.25,28.75 14,28.5 13.75,28.25 13.5,28 13.25,27.75 13,27.5 12.75,27.25 12.5,27 12.25,26.75 12,26.5 11.75,26.25 11.5,26 11.25,25.75 11,25.5 10.75,25.25 10.5,25 10.25,24.75 10,24.5 9.75,24.25 9.5,24 9.25,23.75 9,23.5 8.75,23.25 8.5,23 8.25,22.75 8,22.5 7.75,22.25 7.5,22 7.25,21.75 7,21.5 6.75,21.25 6.5,21 6.25,20.75 6,20.5 5.75,20.25 5.5,20 5.25,19.75 5,19.5 4.75,19.25 4.5,19 4.25,18.75 4,18.5 3.75,18.25 3.5,18 3.25,17.75 3,17.5 2.75,17.25 2.5,17 2.25,16.75 2.125,16.375 2,16 2,15.5 2,15 2,14.5 2,14 2,13.5 2,13 2,12.5 2,12 2,11.5 2,11 2,10.5 2,10 2.125,9.625 2.25,9.25 2.5,9 2.75,8.75 3,8.5"
       id="path4690"
       inkscape:connector-curvature="0" />
    <path
       style="fill:#eac2a9;fill-opacity:1"
       d="M 23,12.5 Q 23.25,12.25 23.625,12.125 24,12 24.53125,11.96875 L 25.0625,11.9375 25,11.875 l -0.0625,-0.0625 0.125,0.125 q 0.125,0.125 0.3125,0.1875 L 25.5625,12.1875 25.28125,12.09375 25,12 25.375,12.125 Q 25.75,12.25 26,12.5 q 0.25,0.25 0.5,0.5 0.25,0.25 0.5,0.5 0.25,0.25 0.5,0.5 0.25,0.25 0.5,0.5 0.25,0.25 0.5,0.5 0.25,0.25 0.375,0.625 L 29,16 28.90625,15.71875 28.8125,15.4375 28.875,15.625 q 0.0625,0.1875 0.1875,0.3125 l 0.125,0.125 L 29.125,16 29.0625,15.9375 28.53125,15.96875 Q 28,16 27.625,16.125 27.25,16.25 27,16.5 26.75,16.75 26.375,16.875 26,17 25.625,17.125 25.25,17.25 25,17.5 24.75,17.75 24.375,17.875 24,18 23.625,18.125 23.25,18.25 23,18.5 22.75,18.75 22.375,18.875 22,19 21.625,19.125 21.25,19.25 21,19.5 20.75,19.75 20.375,19.875 20,20 19.625,20.125 19.25,20.25 19,20.5 18.75,20.75 18.375,20.875 18,21 17.625,21.125 q -0.375,0.125 -0.5,0.5 L 17,22 17.09375,21.71875 17.1875,21.4375 17.125,21.625 Q 17.0625,21.8125 17.0625,22 V 22.1875 22.09375 22 L 16.65625,21.875 Q 16.25,21.75 16,21.5 15.75,21.25 15.5,21 15.25,20.75 15,20.5 14.75,20.25 14.5,20 14.25,19.75 14,19.5 13.75,19.25 13.5,19 13.25,18.75 13.125,18.375 13,18 13.125,17.625 13.25,17.25 13.625,17.125 14,17 14.375,16.875 14.75,16.75 15,16.5 15.25,16.25 15.625,16.125 16,16 16.375,15.875 16.75,15.75 17,15.5 17.25,15.25 17.625,15.125 18,15 18.375,14.875 18.75,14.75 19,14.5 19.25,14.25 19.625,14.125 20,14 20.375,13.875 20.75,13.75 21,13.5 21.25,13.25 21.625,13.125 22,13 22.375,12.875 22.75,12.75 23,12.5"
       id="path4692"
       inkscape:connector-curvature="0" />
    <path
       style="fill:#d99d73;fill-opacity:1"
       d="M 27,16.5 Q 27.25,16.25 27.625,16.125 28,16 28.53125,15.96875 L 29.0625,15.9375 29,15.875 l -0.0625,-0.0625 0.125,0.125 q 0.125,0.125 0.3125,0.1875 L 29.5625,16.1875 29.28125,16.09375 29,16 l 0.375,0.125 q 0.375,0.125 0.5,0.5 Q 30,17 30,17.5 q 0,0.5 0,1 0,0.5 0,1 0,0.5 0,1 V 21 20.625 20.25 20.5 q 0,0.25 -0.03125,0.46875 l -0.03125,0.21875 0.01563,-0.109375 0.01563,-0.109375 -0.484375,0.01563 Q 29,21 28.625,21.125 28.25,21.25 28,21.5 27.75,21.75 27.375,21.875 27,22 26.625,22.125 26.25,22.25 26,22.5 25.75,22.75 25.375,22.875 25,23 24.625,23.125 24.25,23.25 24,23.5 23.75,23.75 23.375,23.875 23,24 22.625,24.125 22.25,24.25 22,24.5 21.75,24.75 21.375,24.875 21,25 20.5,25 20,25 19.625,24.875 19.25,24.75 19,24.5 18.75,24.25 18.5,24 18.25,23.75 18,23.5 17.75,23.25 17.5,23 17.25,22.75 17.125,22.375 17,22 17.125,21.625 17.25,21.25 17.625,21.125 18,21 18.375,20.875 18.75,20.75 19,20.5 19.25,20.25 19.625,20.125 20,20 20.375,19.875 20.75,19.75 21,19.5 21.25,19.25 21.625,19.125 22,19 22.375,18.875 22.75,18.75 23,18.5 23.25,18.25 23.625,18.125 24,18 24.375,17.875 24.75,17.75 25,17.5 25.25,17.25 25.625,17.125 26,17 26.375,16.875 26.75,16.75 27,16.5"
       id="path4694"
       inkscape:connector-curvature="0" />
    <path
       style="fill:#eac2a9;fill-opacity:1"
       d="M 28,21.5 Q 28.25,21.25 28.625,21.125 29,21 29.484375,20.984375 L 29.96875,20.96875 29.984375,20.859375 30,20.75 29.96875,20.96875 Q 29.9375,21.1875 29.875,21.375 L 29.8125,21.5625 29.90625,21.28125 30,21 29.875,21.375 Q 29.75,21.75 29.5,22 29.25,22.25 29,22.5 28.75,22.75 28.5,23 28.25,23.25 28,23.5 27.75,23.75 27.5,24 27.25,24.25 27,24.5 26.75,24.75 26.5,25 26.25,25.25 26,25.5 25.75,25.75 25.375,25.875 L 25,26 25.28125,25.90625 25.5625,25.8125 25.375,25.875 q -0.1875,0.0625 -0.3125,0.1875 l -0.125,0.125 L 25,26.125 25.0625,26.0625 24.53125,26.03125 Q 24,26 23.5,26 23,26 22.5,26 22,26 21.625,25.875 21.25,25.75 21.109375,25.359375 L 20.96875,24.96875 20.859375,24.984375 20.75,25 20.96875,24.96875 Q 21.1875,24.9375 21.375,24.875 L 21.5625,24.8125 21.28125,24.90625 21,25 21.375,24.875 Q 21.75,24.75 22,24.5 22.25,24.25 22.625,24.125 23,24 23.375,23.875 23.75,23.75 24,23.5 24.25,23.25 24.625,23.125 25,23 25.375,22.875 25.75,22.75 26,22.5 26.25,22.25 26.625,22.125 27,22 27.375,21.875 27.75,21.75 28,21.5"
       id="path4696"
       inkscape:connector-curvature="0" />
  </g>
</svg>
