<svg xmlns="http://www.w3.org/2000/svg" viewBox="0 -0.5 32 32" shape-rendering="crispEdges">
<metadata>Made with Pixels to Svg https://codepen.io/shshaw/pen/XbxvNj</metadata>
<path stroke="#d99d73" d="M9 2h7M8 3h8M7 4h7M6 5h6M5 6h5M4 7h4M20 7h1M4 8h2M18 8h4M16 9h7M14 10h10M12 11h13M10 12h13M8 13h13M9 14h10M10 15h7M11 16h4M27 16h3M12 17h1M25 17h5M23 18h7M21 19h9M19 20h11M17 21h11M17 22h9M18 23h6M19 24h3" />
<path stroke="#eac2a9" d="M16 3h1M14 4h4M12 5h7M10 6h10M8 7h12M6 8h12M5 9h11M5 10h9M6 11h6M7 12h3M23 12h3M21 13h6M19 14h9M17 15h12M15 16h12M13 17h12M13 18h10M14 19h7M15 20h4M16 21h1M28 21h2M26 22h3M24 23h4M22 24h5M21 25h5" />
<path stroke="#b8705c" d="M3 8h1M2 9h3M2 10h3M2 11h4M2 12h5M2 13h6M2 14h7M2 15h8M2 16h9M3 17h9M4 18h9M5 19h9M6 20h9M7 21h9M8 22h9M9 23h9M10 24h9M11 25h10M12 26h13M13 27h11M14 28h9" />
</svg>