<svg xmlns="http://www.w3.org/2000/svg" viewBox="0 0 32 32"><path d="M0 .5V0h32v32H0V.5M21.5 29l.9-.1q.4-.1.6-.4l.5-.5.5-.5.5-.5.4-.6q0-.3.5-.5.4-.1.6-.4l.5-.5.5-.5.5-.5.5-.5.5-.5.5-.5.5-.5.4-.6.1-.9v-3l-.1-.9q-.1-.4-.5-.5t-.5-.5l-.4-.6-.5-.5-.5-.5-.5-.5-.5-.5-.5-.5-.6-.4q-.3 0-.5-.5l-.4-.6-.5-.5-.5-.5-.5-.5-.5-.5-.5-.5-.5-.5-.5-.5-.6-.4q-.3 0-.5-.5l-.4-.6-.5-.5-.5-.5-.5-.5-.5-.5-.5-.5-.6-.4q-.3 0-.5-.5t-.5-.5l-.9-.1h-4l-.9.1q-.4.1-.6.4l-.5.5-.5.5-.5.5-.5.5-.5.5-.5.5-.5.5-.5.5-.5.5-.4.6q0 .3-.5.5l-.6.4-.5.5-.4.6-.1.9v5l.1.9q.1.4.4.6l.5.5.5.5.5.5.5.5.5.5.5.5.5.5.5.5.5.5.5.5.5.5.5.5.5.5.5.5.5.5.5.5.5.5.5.5.5.5.5.5.5.5.5.5.5.5.6.4.9.1h6" fill="none"/><path d="m9 2.5.6-.4.9-.1h4l.9.1q.4.1.5.5l.1.4v-.3l-.2-.3v.2l.3.3v.2V3l-.2.3q-.2.5-.5.6l-.8.2-.6.4-.6.4-.8.2-.6.4-.6.4-.8.2-.6.4-.6.4-.8.2-.6.4-.6.4-.8.2-.6.4-.6.4q-.4.1-.8 0t-.5-.6L3.9 8V8l.2-.4v-.2.3L4 8l.1-.4.4-.6.5-.5.5-.5.5-.5.5-.5.5-.5.5-.5.5-.5.5-.5.5-.5" fill="#d99d73"/><path d="M16 3.3V3l.4.2h.2-.3L16 3l.4.1q.4.1.6.4l.5.5.5.5.5.5.5.5.5.5.4.6.1.4v-.3l-.2-.3v.2l.3.3v.2V7l-.2.3q-.2.5-.5.6l-.8.2-.6.4-.6.4-.8.2-.6.4-.6.4-.8.2-.6.4-.6.4-.8.2-.6.4-.6.4-.8.2-.6.4-.6.4-.9.1-.9-.1-.6-.4-.5-.5-.5-.5-.5-.5-.4-.6-.1-1V9h-.2.8-.3L5 9l.4-.1.6-.4.6-.4.8-.2.6-.4.6-.4.8-.2.6-.4.6-.4.8-.2.6-.4.6-.4.8-.2.6-.4.6-.4.8-.2q.3-.1.5-.6" fill="#eac2a9"/><path d="M20 7.3V7l.4.2h.2-.3L20 7l.4.1.6.4.5.5.5.5.5.5.5.5.5.5.5.5.5.5.4.6.1.4v-.3l-.2-.3v.2l.3.3v.2-.1h-.6l-.9.1q-.4.1-.6.4t-.6.4l-.8.2-.6.4-.6.4-.8.2-.6.4-.6.4-.8.2-.6.4-.6.4-.8.2-.6.4-.6.4-.8.2q-.3.1-.5.5l-.1.4v-.3l.2-.3v.2l-.1.4v.2-.2l-.4-.1q-.4-.1-.7-.4l-.5-.5-.5-.5-.5-.5-.5-.5-.5-.5-.5-.5-.5-.5-.4-.6V13h-.2H8.7 8h.5l.9-.1q.4-.1.6-.4t.6-.4l.8-.2.6-.4.6-.4.8-.2.6-.4.6-.4.8-.2.6-.4.6-.4.8-.2.6-.4.6-.4.8-.2q.4-.2.5-.6" fill="#d99d73"/><path d="m3 8.5.6-.4L4 8h-.3l-.3.2h.2l.3-.3h.2H4v.4q.2.4.6.6L5 9h-.3l-.3-.2h.2L5 9h.2H5v.6l.1.9q.1.4.4.6l.5.5.5.5.5.5.6.4.4.1h-.3l-.3-.2h.2l.4.2h.3H8v.4l.4.6.5.5.5.5.5.5.5.5.5.5.5.5.5.5q.3.3.7.4l.4.1v-.2.8-.3L13 18l.1.4.4.6.5.5.5.5.5.5.5.5.5.5q.3.3.7.4l.4.1v-.2.8-.3L17 22l.1.4q.1.4.4.6l.5.5.5.5.5.5.6.4.9.1h.5-.8 1-.2l.1.4q.1.3.5.5l.9.1h2.6l-.2.4v.2-.3l.1-.3-.1.4q-.1.4-.4.6l-.5.5-.5.5-.5.5-.6.4-.9.1h-6l-.9-.1q-.4-.1-.6-.4l-.5-.5-.5-.5-.5-.5-.5-.5-.5-.5-.5-.5-.5-.5-.5-.5-.5-.5-.5-.5-.5-.5-.5-.5-.5-.5-.5-.5-.5-.5-.5-.5-.5-.5-.5-.5-.5-.5-.5-.5-.5-.5-.5-.5-.5-.5-.4-.6-.1-.9v-5l.1-.9q.1-.4.4-.6l.5-.5" fill="#b8705c"/><path d="m23 12.5.6-.4 1-.1h.5l-.1-.1.4.2h.2-.3L25 12l.4.1.6.4.5.5.5.5.5.5.5.5.5.5.4.6.1.4v-.3l-.2-.3v.2l.3.3v.2-.1h-.6l-.9.1q-.4.1-.6.4t-.6.4l-.8.2q-.4.1-.6.4t-.6.4l-.8.2q-.4.1-.6.4t-.6.4l-.8.2q-.4.1-.6.4t-.6.4l-.8.2q-.4.1-.6.4t-.6.4l-.8.2q-.4.1-.5.5l-.1.4v-.3l.2-.3v.2l-.1.4v.2-.2l-.4-.1q-.4-.1-.7-.4l-.5-.5-.5-.5-.5-.5-.5-.5-.5-.5-.4-.6v-.8q.2-.4.5-.5l.8-.2.6-.4.6-.4.8-.2.6-.4.6-.4.8-.2.6-.4.6-.4.8-.2.6-.4.6-.4.8-.2.6-.4" fill="#eac2a9"/><path d="m27 16.5.6-.4 1-.1h.5l-.1-.1.4.2h.2-.3L29 16l.4.1q.4.1.5.5t.1.9V21v-.8 1-.2h-.5l-.9.1q-.4.1-.6.4t-.6.4l-.8.2q-.4.1-.6.4t-.6.4l-.8.2q-.4.1-.6.4t-.6.4l-.8.2q-.4.1-.6.4t-.6.4l-.9.1-.9-.1q-.4-.1-.6-.4l-.5-.5-.5-.5-.5-.5-.4-.6v-.8q.1-.4.5-.5l.8-.2q.4-.1.6-.4t.6-.4l.8-.2q.4-.1.6-.4t.6-.4l.8-.2q.4-.1.6-.4t.6-.4l.8-.2q.4-.1.6-.4t.6-.4l.8-.2q.4-.1.6-.4" fill="#d99d73"/><path d="m28 21.5.6-.4.9-.1h.5v-.2.2l-.1.4v.2-.3l.1-.3-.1.4q-.1.4-.4.6l-.5.5-.5.5-.5.5-.5.5-.5.5-.5.5-.5.5-.6.4-.4.1h.3l.3-.2h-.2l-.3.3h-.2.1-.5l-1-.1h-1l-.9-.1q-.4-.1-.5-.5L21 25h-.2.2l.4-.1h.2-.3l-.3.1.4-.1q.4-.1.6-.4t.6-.4l.8-.2q.4-.1.6-.4t.6-.4l.8-.2q.4-.1.6-.4t.6-.4l.8-.2q.4-.1.6-.4" fill="#eac2a9"/></svg>