<svg width="32" height="32" xmlns="http://www.w3.org/2000/svg"><path style="fill:#f6bb64;fill-opacity:1" d="m11 19.5.6-.4.9-.1h3l.9.1q.4.1.6.4l.5.5.5.5.5.5.4.6.1.9-.1.9q-.1.4-.4.6l-.5.5-.5.5-.5.5-.6.4-.9.1h-2l-.9-.1-.6-.4-.5-.5-.5-.5-.5-.5-.5-.5-.5-.5-.4-.6-.1-.9q0-.5.4-.6.3-.1.5-.5l.1-.4v.3l-.2.3v-.2l.1-.4v-.2.2l.4-.1q.4-.1.7-.4"/><path style="fill:#df824d;fill-opacity:1" d="m18 12.5.6-.4.9-.1h2.6v-.2.8-.3L22 12l.1.4.4.6.5.5.5.5.4.6.1.9v1l-.1.9q-.1.4-.4.6l-.5.5-.5.5-.5.5-.5.5-.5.5-.5.5-.5.5-.6.4-.4.1v.2-.2l-.1-.4v-.2.3l.1.3-.1-.4q-.1-.4-.4-.6l-.5-.5-.5-.5-.5-.5-.6-.4-.9-.1h-3l-.9.1-.6.4q-.3.3-.7.4l-.4.1v.2-.8.3l.1.3-.1-.4-.4-.6-.5-.5-.5-.5-.4-.6-.1-.9V15v.7V14.8v.2h6.5l.9-.1.6-.4.5-.5.5-.5.5-.5.5-.5"/><path style="fill:#af3a30;fill-opacity:1" d="M22.1 11.6q.1-.3.5-.5l.4-.1h-.3l-.3.2h.2l.3-.3.1-.2v.2h.5l1 .1.9.1.6.4.5.5.5.5.5.5.5.5.5.5.4.6.1.9v2l-.1.9q-.1.4-.4.6l-.5.5-.5.5-.5.5-.5.5-.5.5-.5.5-.5.5-.6.4-.9.1-.9.1q-.4.1-.6.4l-.5.5-.4.6-.2.8q-.1.4-.4.6l-.5.5-.5.5-.5.5-.5.5-.5.5-.6.4-.9.1h-5l-.9-.1-.6-.4-.5-.5-.5-.5-.5-.5-.5-.5-.5-.5-.4-.6-.1-.9v-1l.1-.9.4-.6.5-.5q.3-.3.7-.3L9 21v-.2.2l-.1.4v.3-.8.5l.1.9.4.6.5.5.5.5.5.5.5.5.5.5.6.4.9.1h2l.9-.1q.4-.1.6-.4l.5-.5.5-.5.5-.5.4-.6.1-.9V22v.8-1 .2l.4-.1q.4-.1.6-.4l.5-.5.5-.5.5-.5.5-.5.5-.5.5-.5.5-.5.4-.6.1-.9v-1l-.1-.9-.4-.6-.5-.5-.5-.5-.4-.6q-.1-.4 0-.8"/><path style="fill:#f6bb64;fill-opacity:1" d="m12 4.5.6-.4.9-.1h4l.9.1.6.4.5.5.5.5.5.5.5.5.5.5.5.5.5.5.4.6.1.9v1q0 .5-.4.6-.4.2-.5.5l-.1.4v-.3l.2-.3v.2l-.1.4v.2-.2h-2.6l-.9.1-.6.4-.5.5-.5.5-.5.5-.5.5-.6.4-.9.1H8V15.3 15l-.1-.4v-.2.3l.1.3-.1-.4-.4-.6-.5-.5-.5-.5-.4-.6-.1-.9.1-.9.4-.6.5-.5.5-.5.5-.5.5-.5.5-.5.5-.5.5-.5.5-.5.5-.5.5-.5.5-.5"/><path style="fill:#000;fill-opacity:0" d="M0 .5V0h32v32H0V.5M16.5 29l.9-.1q.4-.1.6-.4l.5-.5.5-.5.5-.5.5-.5.5-.5.4-.6.2-.8q.1-.4.4-.6l.5-.5.6-.4.9-.1.9-.1q.4-.1.6-.4l.5-.5.5-.5.5-.5.5-.5.5-.5.5-.5.5-.5.4-.6.1-.9v-2l-.1-.9-.4-.6-.5-.5-.5-.5-.5-.5-.5-.5-.5-.5-.6-.4-.9-.1h-1.6l.1-.5v-.3.8-1.5l-.1-.9-.4-.6-.5-.5-.5-.5-.5-.5-.5-.5-.5-.5-.5-.5-.5-.5-.6-.4-.9-.1h-4l-.9.1-.6.4-.5.5-.5.5-.5.5-.5.5-.5.5-.5.5-.5.5-.5.5-.5.5-.5.5-.5.5-.4.6-.1.9.1.9.4.6.5.5.5.5.4.6.1.9v1l.1.9.4.6.5.5.5.5.4.6q.1.4 0 .8-.2.4-.5.5L9 21h.3l.3-.2h-.2l-.3.3-.1.1V21h-.3q-.4.1-.7.4l-.5.5-.4.6-.1.9v1l.1.9.4.6.5.5.5.5.5.5.5.5.5.5.6.4.9.1h5" fill="none"/></svg>