<svg width="32" height="32" xmlns="http://www.w3.org/2000/svg"><path style="fill:#8bbeb0;fill-opacity:1" d="m14 18.5.5-.5.3-.3.2.3q.3.3.6.1.4-.1.4.4t.5.5.5.5v1q0 .5-.5.5t-.5.5-.5.5-.5.5-.5.5-.5.5-.5.5q-.5 0-.5-.5t-.5-.5-.5-.5q0-.5-.4-.4-.3.1-.6-.1l-.3-.3.3-.2.5-.5.5-.5.5-.5.5-.5.5-.5.5-.5m-3 3-.3.3.3-.3.1-.1-.2.2m4-4-.2.1-.1.2-.2.2.1-.1.3-.3"/><path style="fill:#4a6949;fill-opacity:1" d="m27.9 13.4.1-.4v.3l-.2.3v-.2l.1-.4v-.2.2l.4.1.7.4.5.5.5.5.5.5.4.6q.1.4 0 .8t-.4.6l-.5.5-.5.5-.5.5-.5.5-.5.5-.5.5-.5.5-.5.5-.5.5-.5.5-.5.5-.5.5-.5.5-.5.5-.5.5-.5.5-.5.5-.5.5-.5.5-.5.5-.5.5-.5.5-.5.5-.5.5-.5.5-.5.5-.5.5-.6.4-.9.1h-1l-.9-.1-.6-.4-.5-.5q-.3-.3-.4-.7L12 29h-.2.8-.3l-.3.1.4-.1.6-.4.5-.5.5-.5.5-.5.5-.5.5-.5.5-.5.5-.5.5-.5.5-.5.5-.5.5-.5.5-.5.5-.5.5-.5.5-.5.5-.5.5-.5.5-.5.5-.5.5-.5.5-.5.5-.5.5-.5.5-.5.5-.5.5-.5.5-.5.5-.5.5-.5.4-.6"/><path style="fill:#5e988d;fill-opacity:1" d="M25.9 11.6q-.1-.3.1-.6l.3-.3.2.3.5.5.5.5.4.6q.1.4 0 .8l-.4.6-.5.5-.5.5-.5.5-.5.5-.5.5-.5.5-.5.5-.5.5-.5.5-.5.5-.5.5-.5.5-.5.5-.5.5-.5.5-.5.5-.5.5-.5.5-.5.5-.5.5-.5.5-.5.5-.5.5-.5.5-.5.5-.5.5-.5.5-.5.5-.5.5-.6.4q-.4.1-.8 0l-.6-.4-.5-.5-.5-.5-.5-.5-.5-.5-.5-.5-.4-.6q-.1-.4 0-.8l.4-.6q.3-.3.4-.7L9 23h-.2.8-.3L9 23l.4-.1.6-.4.5-.5.3-.3.2.3q.3.3.6.1.4-.1.4.4t.5.5.5.5.5.5q.5 0 .5-.5t.5-.5.5-.5.5-.5.5-.5.5-.5.5-.5v-1q0-.5-.5-.5t-.5-.5q0-.5-.4-.4-.3.1-.6-.1l-.3-.3.3-.2.5-.5.5-.5.5-.5.5-.5.5-.5.5-.5.5-.5.3-.3.2.3q.3.3.1.6-.1.4.4.4t.5.5.5.5h1q.5 0 .5-.5t.5-.5.5-.5.5-.5.5-.5.5-.5.5-.5.5-.5q.5 0 .4-.4m-7 2-.1.2-.2.1-.2.2.1-.1.3-.3M15 17.6l-.2.1v.1l.3-.3.1-.1-.2.2m-4 4-.2.1-.1.2-.2.2.1-.1.3-.3m15.6-10.8-.1-.2h-.1l.3.3.1.1-.2-.2"/><path style="fill:#8bbeb0;fill-opacity:1" d="M22.9 9.4 23 9h-.2 1-.8.5l.9.1.6.4.5.5.5.5.3.3-.3.2q-.3.3-.1.6.1.4-.4.4t-.5.5-.5.5-.5.5-.5.5-.5.5-.5.5-.5.5-.5.5h-1q-.5 0-.5-.5t-.5-.5q-.5 0-.4-.4.1-.3-.1-.6l-.3-.3.3-.2.5-.5.5-.5.5-.5.5-.5.5-.5.5-.5.5-.5.4-.6m-4 4.2-.1.2h-.1l.3-.3.1-.1-.2.2m7.4-2.8-.2-.2-.2-.2.1.1.3.3"/><path style="fill:#4a6949;fill-opacity:1" d="M19.9 7.4 20 7v.3l-.2.3v-.2L20 7v-.2.2l.4.1.7.4.5.5.5.5.6.4.4.1h-.3l-.3-.2h.2l.4.2h.3-.2l-.2.4-.4.6-.5.5-.5.5-.5.5-.5.5-.5.5-.5.5-.5.5-.5.5-.5.5-.5.5-.5.5-.5.5-.5.5-.5.5-.5.5-.5.5-.5.5-.5.5-.5.5-.5.5-.5.5-.5.5-.5.5-.5.5-.5.5-.6.4q-.4.1-.8 0l-.6-.4-.5-.5-.5-.5-.5-.5-.5-.5-.5-.5-.5-.5-.5-.5-.5-.5-.5-.5-.4-.6-.1-.9V15v.7V14.8v.2l.4.1.6.4.5.5.5.5.5.5.5.5.5.5.5.5.6.4q.4.1.8 0l.6-.4.5-.5.5-.5.5-.5.5-.5.5-.5.5-.5.5-.5.5-.5.5-.5.5-.5.5-.5.5-.5.5-.5.5-.5.5-.5.5-.5.5-.5.5-.5.5-.5.5-.5.5-.5.4-.6"/><path style="fill:#5e988d;fill-opacity:1" d="M17.9 5.6q-.1-.3.1-.6l.3-.3.2.3.5.5.5.5.4.6q.1.4 0 .8l-.4.6-.5.5-.5.5-.5.5-.5.5-.5.5-.5.5-.5.5-.5.5-.5.5-.5.5-.5.5-.5.5-.5.5-.5.5-.5.5-.5.5-.5.5-.5.5-.5.5-.5.5-.5.5-.6.4q-.4.1-.8 0l-.6-.4-.5-.5-.5-.5-.5-.5-.5-.5-.5-.5-.5-.5-.6-.4H3v.2-.3l.1-.4v-.2.3L3 15l.1-.4.4-.6.5-.5.5-.5.3-.3.2.3q.3.3.6.1.4-.1.4.4t.5.5.5.5.5.5h1q.5 0 .5-.5t.5-.5.5-.5.5-.5.5-.5.5-.5.5-.5.5-.5.5-.5.5-.5.5-.5.5-.5.5-.5.5-.5.5-.5.5-.5.5-.5.5-.5q.5 0 .4-.4m-13 7-.2.2-.1.1-.2.2.1-.1.3-.3m13.6-7.8-.1-.2h-.1l.3.3.1.1-.2-.2"/><path style="fill:#8bbeb0;fill-opacity:1" d="m14 3.5.6-.4.9-.1.9.1q.4.1.6.4l.5.5.5.5.3.3-.3.2q-.3.3-.1.6.1.4-.4.4t-.5.5-.5.5-.5.5-.5.5-.5.5-.5.5-.5.5-.5.5-.5.5-.5.5-.5.5-.5.5-.5.5-.5.5-.5.5-.5.5-.5.5-.5.5h-1q-.5 0-.5-.5t-.5-.5-.5-.5q0-.5-.4-.4-.3.2-.6-.1l-.3-.3.3-.2.5-.5.5-.5.5-.5.5-.5.5-.5.5-.5.5-.5.5-.5.5-.5.5-.5.5-.5.5-.5.5-.5.5-.5.5-.5.5-.5.5-.5.5-.5m-9 9-.3.3.3-.3.1-.1-.2.2m13.4-7.8-.2-.2-.2-.2.1.1.3.3"/><path style="fill:#000;fill-opacity:0" d="M0 .5V0h32v32H0V.5M15.5 31l.9-.1q.4-.1.6-.4l.5-.5.5-.5.5-.5.5-.5.5-.5.5-.5.5-.5.5-.5.5-.5.5-.5.5-.5.5-.5.5-.5.5-.5.5-.5.5-.5.5-.5.5-.5.5-.5.5-.5.5-.5.5-.5.5-.5.5-.5.5-.5.5-.5.5-.5.4-.6q.1-.4 0-.8l-.4-.6-.5-.5-.5-.5-.5-.5q-.3-.3-.7-.4L28 13v.2-.8.3l.1.3-.1-.4-.4-.6-.5-.5-.5-.5-.5-.5-.5-.5-.5-.5-.6-.4-.9-.1-.9-.1-.6-.4-.5-.5-.5-.5q-.3-.3-.7-.4L20 7v.2-.8.3l.1.3-.1-.4-.4-.6-.5-.5-.5-.5-.5-.5-.5-.5-.5-.5-.6-.4-.9-.1-.9.1-.6.4-.5.5-.5.5-.5.5-.5.5-.5.5-.5.5-.5.5-.5.5-.5.5-.5.5-.5.5-.5.5-.5.5-.5.5-.5.5-.5.5-.5.5-.5.5-.5.5-.5.5-.5.5-.4.6-.1.9v1l.1.9q.1.4.4.6l.5.5.5.5.5.5.5.5.5.5.5.5.5.5.5.5.5.5.6.4.4.1h-.3l-.3-.2h.2l.4.1h.2H9l-.1.4-.4.7-.4.6q-.1.4 0 .8l.4.6.5.5.5.5.5.5.5.5.5.5.6.4.4.1h-.3l-.3-.2h.2l.4.1h.2-.2l.1.4.4.7.5.5.6.4.9.1h1" fill="none"/></svg>