<svg xmlns="http://www.w3.org/2000/svg" viewBox="0 -0.5 32 32" shape-rendering="crispEdges">
<metadata>Made with Pixels to Svg https://codepen.io/shshaw/pen/XbxvNj</metadata>
<path stroke="#95abd9" d="M8 4h4M16 4h8M8 5h4M16 5h9M8 6h4M16 6h10M8 7h5M15 7h12M8 8h20M9 9h19M10 10h18M11 11h17M12 12h16M13 13h15M14 14h14M15 15h13M8 16h3M16 16h9M8 17h4M17 17h7M8 18h5M18 18h6M8 19h6M19 19h6M8 20h7M20 20h8M8 21h8M21 21h7M9 22h7M22 22h6M10 23h6M23 23h4" />
<path stroke="#6b77a1" d="M12 4h4M7 5h1M12 5h4M6 6h2M12 6h4M5 7h3M13 7h2M4 8h4M4 9h5M4 10h6M4 11h7M4 12h8M4 13h9M4 14h10M4 15h11M4 16h4M11 16h5M25 16h3M4 17h4M12 17h5M24 17h4M4 18h4M13 18h5M24 18h4M4 19h4M14 19h5M25 19h3M4 20h4M15 20h5M4 21h4M16 21h5M4 22h5M16 22h6M4 23h6M16 23h7M27 23h1M5 24h22M6 25h20M7 26h18M8 27h16" />
</svg>