<svg xmlns="http://www.w3.org/2000/svg" viewBox="0 0 32 32"><path d="M0 .5V0h32v32H0V.5M22.5 28q.5 0 .875-.125T24 27.5l.5-.5.5-.5.5-.5.5-.5.5-.5.5-.5.5-.5q.25-.25.375-.625T28 22.5v-1-1-1-1-1-1-1-1-1-1-1-1-1q0-.5-.125-.875T27.5 8l-.5-.5-.5-.5-.5-.5-.5-.5-.5-.5-.5-.5-.5-.5q-.25-.25-.625-.375T22.5 4h-13q-.5 0-.875.125t-.5.5-.5.5Q7.25 5.25 7 5.5l-.5.5-.5.5-.5.5-.5.5-.5.5q-.25.25-.375.625T4 9.5v13q0 .5.125.875T4.5 24l.5.5.5.5.5.5.5.5.5.5.5.5.5.5q.25.25.625.375T9.5 28h13" fill="none"/><path d="M8.125 4.625q.125-.375.5-.5T9.5 4H12v1.5q0 .5.125.875T12.5 7l.5.5q.25.25.625.375t.75 0Q14.75 7.75 15 7.5l.5-.5q.25-.25.375-.625T16 5.5V4h6.5q.5 0 .875.125T24 4.5l.5.5.5.5.5.5.5.5.5.5.5.5.5.5q.25.25.375.625T28 9.5V16h-1.5q-.5 0-.875.125T25 16.5l-.5.5q-.25.25-.375.625t0 .75q.125.375.375.625l.5.5q.25.25.625.375T26.5 20H28v3-.75.25q0 .25-.0313.4688l-.0312.2187.0156-.1094.0157-.1093-.3594.1406Q27.25 23.25 27 23.5q-.25.25-.625.375T25.5 24h-1q-.5 0-.875-.125T23 23.5l-.5-.5-.5-.5-.5-.5-.5-.5-.5-.5-.5-.5-.5-.5-.5-.5-.5-.5-.5-.5-.5-.5-.5-.5-.5-.5-.5-.5-.5-.5-.5-.5-.5-.5-.5-.5-.5-.5-.5-.5-.5-.5-.5-.5-.5-.5-.5-.5-.5-.5-.5-.5-.5-.5-.5-.5-.5-.5q-.25-.25-.375-.625T8 7.5v-1q0-.5-.0313-1.0313l-.0312-.5312L7.875 5l-.0625.0625.125-.125q.125-.125.1875-.3125l.0625-.1875-.0938.2813L8 5l.125-.375M28 20.375v-.625 1-.375m0-4.25v-.875 1-.125M16.375 4h-.625 1-.375m-4.25 0h-.875 1-.125" fill="#95abd9"/><path d="M12 4.5V4h4v1.5q0 .5-.125.875T15.5 7l-.5.5q-.25.25-.625.375t-.75 0Q13.25 7.75 13 7.5l-.5-.5q-.25-.25-.375-.625T12 5.5v-1m4.125-.5h-.875 1-.125m-3.75 0h-.625 1-.375M7 5.5q.25-.25.625-.375L8 5l-.2813.0938-.2812.0937.1875-.0625q.1875-.0625.3125-.1875l.125-.125L8 4.875l-.0625.0625.0313.5313Q8 6 8 6.5v1q0 .5.125.875T8.5 9l.5.5.5.5.5.5.5.5.5.5.5.5.5.5.5.5.5.5.5.5.5.5.5.5.5.5.5.5.5.5.5.5.5.5.5.5.5.5.5.5.5.5.5.5.5.5.5.5.5.5.5.5.5.5.5.5.5.5q.25.25.625.375T24.5 24h1q.5 0 .875-.125T27 23.5q.25-.25.6094-.3906l.3593-.1407.0157-.1093L28 22.75l-.0313.2188q-.0312.2187-.0937.4062l-.0625.1875.0938-.2813L28 23l-.125.375q-.125.375-.375.625l-.5.5-.5.5-.5.5-.5.5-.5.5-.5.5-.5.5q-.25.25-.625.375T22.5 28h-13q-.5 0-.875-.125T8 27.5l-.5-.5-.5-.5-.5-.5-.5-.5-.5-.5-.5-.5-.5-.5q-.25-.25-.375-.625T4 22.5v-1-1-1-1-1-1-1-1-1-1-1-1-1q0-.5.125-.875T4.5 8l.5-.5.5-.5.5-.5.5-.5.5-.5M14.5 24q.5 0 .875-.125t.5-.5Q16 23 16 22.5t-.125-.875Q15.75 21.25 15.5 21l-.5-.5-.5-.5-.5-.5-.5-.5-.5-.5-.5-.5-.5-.5-.5-.5-.5-.5q-.25-.25-.625-.375T9.5 16q-.5 0-.875.125t-.5.5Q8 17 8 17.5v3q0 .5.125.875T8.5 22l.5.5.5.5.5.5q.25.25.625.375T11.5 24h3" fill="#6b77a1"/><path d="M8.125 16.625q.125-.375.5-.5T9.5 16q.5 0 .875.125T11 16.5l.5.5.5.5.5.5.5.5.5.5.5.5.5.5.5.5.5.5q.25.25.375.625T16 22.5q0 .5-.125.875t-.5.5Q15 24 14.5 24h-3q-.5 0-.875-.125T10 23.5l-.5-.5-.5-.5-.5-.5q-.25-.25-.375-.625T8 20.5v-1-1-1q0-.5.125-.875" fill="#95abd9"/><path d="M25 16.5q.25-.25.625-.375T26.5 16H28v4h-1.5q-.5 0-.875-.125T25 19.5l-.5-.5q-.25-.25-.375-.625t0-.75q.125-.375.375-.625l.5-.5m3 3.625v-.875 1-.125m0-3.75v-.625 1-.375" fill="#6b77a1"/></svg>