<svg xmlns="http://www.w3.org/2000/svg" viewBox="0 0 32 32"><path d="M0 .5V0h32v32H0V.5M22.5 28l.9-.1q.4-.1.6-.4l.5-.5.5-.5.5-.5.5-.5.5-.5.5-.5.5-.5.4-.6.1-.9v-13l-.1-.9q-.1-.4-.4-.6l-.5-.5-.5-.5-.5-.5-.5-.5-.5-.5-.5-.5-.5-.5-.6-.4-.9-.1h-13l-.9.1q-.4.1-.5.5t-.5.5l-.6.4-.5.5-.5.5-.5.5-.5.5-.5.5-.4.6-.1.9v13l.1.9q.1.4.4.6l.5.5.5.5.5.5.5.5.5.5.5.5.5.5.6.4.9.1h13" fill="none"/><path d="m8.1 4.6.5-.5Q9 4 9.5 4H12v1.5l.1.9q.1.4.4.6l.5.5.6.4h.8l.6-.4.5-.5.4-.6.1-.9V4h6.5l.9.1q.4.1.6.4l.5.5.5.5.5.5.5.5.5.5.5.5.5.5.4.6.1.9V16h-1.5l-.9.1q-.4.1-.6.4l-.5.5-.4.6v.8q.1.4.4.6l.5.5.6.4.9.1H28v3-.8 1-.2l-.4.1q-.4.1-.6.4l-.6.4-.9.1h-1l-.9-.1q-.4-.1-.6-.4l-.5-.5-.5-.5-.5-.5-.5-.5-.5-.5-.5-.5-.5-.5-.5-.5-.5-.5-.5-.5-.5-.5-.5-.5-.5-.5-.5-.5-.5-.5-.5-.5-.5-.5-.5-.5-.5-.5-.5-.5-.5-.5-.5-.5-.5-.5-.5-.5-.5-.5-.5-.5-.5-.5-.5-.5-.5-.5-.4-.6-.1-.9V4.9l-.1.1.2-.4v-.2.3L8 5l.1-.4M28 20.4v-.6 1-.4m0-4.3v-.9 1M16.4 4h-.6 1-.4M12 4h-.8 1-.2" fill="#95abd9"/><path d="M12 4.5V4h4v1.5l-.1.9q-.1.4-.4.6l-.5.5-.6.4h-.8l-.6-.4-.5-.5-.4-.6-.1-.9v-1m4.1-.5h-.9 1m-3.8 0h-.7 1-.3M7 5.5l.6-.4L8 5h-.3l-.3.2h.2l.3-.3h.2H8v2.6l.1.9q.1.4.4.6l.5.5.5.5.5.5.5.5.5.5.5.5.5.5.5.5.5.5.5.5.5.5.5.5.5.5.5.5.5.5.5.5.5.5.5.5.5.5.5.5.5.5.5.5.5.5.5.5.5.5.5.5.5.5.5.5.5.5.6.4.9.1h1l.9-.1q.4-.1.6-.4l.6-.4.4-.1v-.2.2l-.1.4v.2-.3l.1-.3-.1.4q-.1.4-.4.6l-.5.5-.5.5-.5.5-.5.5-.5.5-.5.5-.5.5-.6.4-.9.1h-13l-.9-.1q-.4-.1-.6-.4l-.5-.5-.5-.5-.5-.5-.5-.5-.5-.5-.5-.5-.5-.5-.4-.6-.1-.9v-13l.1-.9q.1-.4.4-.6l.5-.5.5-.5.5-.5.5-.5.5-.5M14.5 24l.9-.1q.4-.1.5-.5l.1-.9-.1-.9-.4-.6-.5-.5-.5-.5-.5-.5-.5-.5-.5-.5-.5-.5-.5-.5-.5-.5-.5-.5-.6-.4-.9-.1-.9.1q-.4.1-.5.5l-.1.9v3l.1.9q.1.4.4.6l.5.5.5.5.5.5.6.4.9.1h3" fill="#6b77a1"/><path d="M8.1 16.6q.2-.4.5-.5t.9-.1l.9.1q.4.1.6.4l.5.5.5.5.5.5.5.5.5.5.5.5.5.5.5.5.5.5.4.6.1.9-.1.9q-.1.4-.5.5l-.9.1h-3l-.9-.1q-.4-.1-.6-.4l-.5-.5-.5-.5-.5-.5-.4-.6-.1-.9v-3l.1-.9" fill="#95abd9"/><path d="m25 16.5.6-.4.9-.1H28v4h-1.5l-.9-.1q-.4-.1-.6-.4l-.5-.5-.4-.6v-.8q.1-.4.4-.6l.5-.5m3 3.6v-.9 1m0-3.8v-.6 1-.4" fill="#6b77a1"/></svg>