<svg xmlns="http://www.w3.org/2000/svg" viewBox="0 0 32 32"><path d="M0 .5V0h32v32H0V.5M19.5 30q.5 0 .875-.125T21 29.5l.5-.5.5-.5.5-.5.5-.5.5-.5q.25-.25.375-.625t.5-.5q.375-.125.625-.375l.5-.5.5-.5.5-.5.5-.5.5-.5.5-.5.5-.5q.25-.25.375-.625T29 20.5v-1-1-1-1q0-.5-.125-.875T28.5 15l-.5-.5-.5-.5-.5-.5-.5-.5-.5-.5-.5-.5-.5-.5-.5-.5-.5-.5-.5-.5-.5-.5-.5-.5-.5-.5-.5-.5-.5-.5-.5-.5-.5-.5-.5-.5-.5-.5-.5-.5-.5-.5-.5-.5-.5-.5-.5-.5-.5-.5q-.25-.25-.625-.375T14.5 2h-3q-.5 0-.875.125T10 2.5l-.5.5-.5.5-.5.5-.5.5-.5.5-.5.5-.5.5-.5.5-.5.5q-.25.25-.375.625t-.5.5Q4.25 8.25 4 8.5l-.5.5-.5.5-.5.5q-.25.25-.375.625T2 11.5v5q0 .5.125.875T2.5 18l.5.5.5.5.5.5.5.5.5.5.5.5.5.5.5.5.5.5.5.5.5.5.5.5.5.5.5.5.5.5.5.5.5.5.5.5.5.5.5.5.5.5.5.5.5.5q.25.25.625.375T15.5 30h4" fill="none"/><path d="M10 2.5q.25-.25.625-.375T11.5 2h3q.5 0 .875.125T16 2.5l.5.5.5.5.5.5.5.5.5.5.5.5.5.5.5.5.5.5.5.5.5.5.5.5.5.5.5.5.5.5.5.5.5.5.5.5.5.5.5.5.5.5.5.5.5.5.5.5.5.5q.25.25.375.625T29 16.5v4q0 .5-.125.875T28.5 22l-.5.5-.5.5-.5.5-.5.5-.5.5-.5.5-.5.5q-.25.25-.625.375L24 26l.2813-.0938.2812-.0937-.1875.0625q-.1875.0625-.3125.1875l-.125.125L24 26.125l.0625-.0625-.5313-.0313Q23 26 22.5 26h-3q-.5 0-.875-.125T18 25.5l-.5-.5-.5-.5-.5-.5-.5-.5-.5-.5-.5-.5-.5-.5-.5-.5-.5-.5-.5-.5-.5-.5-.5-.5-.5-.5-.5-.5-.5-.5-.5-.5-.5-.5-.5-.5-.5-.5-.5-.5-.5-.5-.5-.5-.5-.5-.5-.5-.5-.5q-.25-.25-.375-.625T5 11.5v-1-1q0-.5-.0313-1.0313l-.0312-.5312L4.875 8l-.0625.0625.125-.125q.125-.125.1875-.3125l.0625-.1875-.0938.2813L5 8l.125-.375Q5.25 7.25 5.5 7l.5-.5.5-.5.5-.5.5-.5.5-.5.5-.5.5-.5.5-.5.5-.5M21.5 22q.5 0 .5-.5t.5-.5.5-.5.5-.5.5-.5.5-.5.5-.5v-1-1q0-.5-.5-.5t-.5-.5-.5-.5-.5-.5-.5-.5-.5-.5-.5-.5-.5-.5-.5-.5-.5-.5-.5-.5-.5-.5-.5-.5-.5-.5-.5-.5-.5-.5-.5-.5-.5-.5-.5-.5-.5-.5-.5-.5h-2q-.5 0-.5.5t-.5.5-.5.5-.5.5-.5.5-.5.5-.5.5v2q0 .5.5.5t.5.5.5.5.5.5.5.5.5.5.5.5.5.5.5.5.5.5.5.5.5.5.5.5.5.5.5.5.5.5.5.5.5.5.5.5.5.5.5.5h2" fill="#ab99d3"/><path d="M12 6.5q0-.5.5-.5h2q.5 0 .5.5t.5.5.5.5.5.5.5.5.5.5.5.5.5.5.5.5.5.5.5.5.5.5.5.5.5.5.5.5.5.5.5.5.5.5.5.5.5.5.5.5v2q0 .5-.5.5t-.5.5-.5.5-.5.5-.5.5-.5.5-.5.5h-2q-.5 0-.5-.5t-.5-.5-.5-.5-.5-.5-.5-.5-.5-.5-.5-.5-.5-.5-.5-.5-.5-.5-.5-.5-.5-.5-.5-.5-.5-.5-.5-.5-.5-.5-.5-.5-.5-.5-.5-.5-.5-.5-.5-.5v-1-1q0-.5.5-.5t.5-.5.5-.5.5-.5.5-.5.5-.5" fill="#8c7fa9"/><path d="M4 8.5q.25-.25.625-.375L5 8l-.2813.0938-.2812.0937.1875-.0625q.1875-.0625.3125-.1875l.125-.125L5 7.875l-.0625.0625.0313.5313Q5 9 5 9.5v2q0 .5.125.875T5.5 13l.5.5.5.5.5.5.5.5.5.5.5.5.5.5.5.5.5.5.5.5.5.5.5.5.5.5.5.5.5.5.5.5.5.5.5.5.5.5.5.5.5.5.5.5.5.5.5.5.5.5q.25.25.625.375T19.5 26h3q.5 0 1.0313.0313l.5312.0312L24.125 26l.0625-.0625-.125.125q-.125.125-.1875.3125l-.0625.1875.0938-.2813L24 26l-.125.375q-.125.375-.375.625l-.5.5-.5.5-.5.5-.5.5-.5.5q-.25.25-.625.375T19.5 30h-4q-.5 0-.875-.125T14 29.5l-.5-.5-.5-.5-.5-.5-.5-.5-.5-.5-.5-.5-.5-.5-.5-.5-.5-.5-.5-.5-.5-.5-.5-.5-.5-.5-.5-.5-.5-.5-.5-.5-.5-.5-.5-.5-.5-.5-.5-.5-.5-.5-.5-.5-.5-.5q-.25-.25-.375-.625T2 16.5v-1-1-1-1-1q0-.5.125-.875T2.5 10l.5-.5.5-.5.5-.5" fill="#6f687e"/></svg>