<svg xmlns="http://www.w3.org/2000/svg" viewBox="0 -0.5 32 32" shape-rendering="crispEdges">
<metadata>Made with Pixels to Svg https://codepen.io/shshaw/pen/XbxvNj</metadata>
<path stroke="#ab99d3" d="M10 2h6M9 3h8M8 4h10M7 5h12M6 6h6M15 6h5M5 7h6M16 7h5M5 8h5M17 8h5M5 9h4M18 9h5M5 10h4M19 10h5M5 11h4M20 11h5M5 12h5M21 12h5M6 13h5M22 13h5M7 14h5M23 14h5M8 15h5M24 15h5M9 16h5M25 16h4M10 17h5M25 17h4M11 18h5M25 18h4M12 19h5M24 19h5M13 20h5M23 20h6M14 21h5M22 21h7M15 22h13M16 23h11M17 24h9M18 25h7" />
<path stroke="#8c7fa9" d="M12 6h3M11 7h5M10 8h7M9 9h9M9 10h10M9 11h11M10 12h11M11 13h11M12 14h11M13 15h11M14 16h11M15 17h10M16 18h9M17 19h7M18 20h5M19 21h3" />
<path stroke="#6f687e" d="M4 8h1M3 9h2M2 10h3M2 11h3M2 12h3M2 13h4M2 14h5M2 15h6M2 16h7M2 17h8M3 18h8M4 19h8M5 20h8M6 21h8M7 22h8M8 23h8M9 24h8M10 25h8M11 26h13M12 27h11M13 28h9M14 29h7" />
</svg>