<svg xmlns="http://www.w3.org/2000/svg" viewBox="0 -0.5 32 32" shape-rendering="crispEdges">
<metadata>Made with Pixels to Svg https://codepen.io/shshaw/pen/XbxvNj</metadata>
<path stroke="#ebeef5" d="M12 1h5M11 2h7M10 3h9M9 4h4M16 4h4M8 5h4M17 5h4M7 6h5M18 6h4M6 7h6M19 7h4M5 8h8M20 8h4M4 9h10M21 9h4M3 10h12M22 10h4M3 11h13M23 11h4M4 12h13M24 12h4M5 13h13M24 13h5M6 14h13M24 14h6M7 15h13M23 15h7M8 16h21M9 17h19M10 18h17M11 19h15M12 20h13M13 21h11M14 22h9M15 23h7M16 24h5M17 25h3M18 26h1" />
<path stroke="#ffffff" d="M13 4h3M12 5h5M12 6h6M12 7h7M13 8h7M14 9h7M15 10h7M16 11h7M17 12h7M18 13h6M19 14h5M20 15h3" />
<path stroke="#d0d0e0" d="M2 11h1M1 12h3M1 13h4M1 14h5M1 15h6M30 15h1M2 16h6M29 16h2M3 17h6M28 17h3M4 18h6M27 18h4M5 19h6M26 19h4M6 20h6M25 20h4M7 21h6M24 21h4M8 22h6M23 22h4M9 23h6M22 23h4M10 24h6M21 24h4M11 25h6M20 25h4M12 26h6M19 26h4M13 27h9M14 28h7M15 29h5M16 30h3" />
</svg>