<svg width="32" height="32" xmlns="http://www.w3.org/2000/svg"><path style="fill:#a0b380;fill-opacity:1" d="m21 14.5.6-.4q.4-.1.8 0l.6.4.5.5.5.5.5.5.4.6.1.9v1l-.1.9q-.1.4-.4.6l-.5.5-.5.5-.5.5-.6.4q-.4.1-.8 0t-.6-.4l-.5-.5-.5-.5-.5-.5-.4-.6-.1-.9v-1l.1-.9q.1-.4.4-.6l.5-.5.5-.5.5-.5"/><path style="fill:#e4ffd6;fill-opacity:1" d="m7 14.5.6-.4.9-.1H9h-.7.2l.4-.1.1-.2v.1h-.1l.2.5.4.7.5.5.5.5.4.6.1.9v1l-.1.9-.4.6-.5.5-.5.5-.5.5-.6.4q-.4.1-.8 0l-.6-.4-.5-.5-.5-.5-.5-.5-.4-.6-.1-.9v-1.6l-.1.1.2-.4v-.2.3L5 17l.1-.4.4-.6.5-.5.5-.5.5-.5"/><path style="fill:#a0b380;fill-opacity:1" d="M9 10.5V10l.4.1.6.4.5.5.5.5.5.5.5.5.5.5.5.5.5.5.4.6.1.9v6l.1.9.4.6.5.5.5.5.5.5.5.5.5.5.5.5.5.5.5.5.4.6.1.4H9.5l-.9-.1-.6-.4-.5-.5-.5-.5-.5-.5-.5-.5-.5-.5-.5-.5-.5-.5-.5-.5-.5-.5-.4-.6-.1-.9v-2l.1-.9q.1-.4.4-.6l.5-.5.6-.4.4-.1h-.3l-.3.2h.2l.3-.3h.2H5v1.6l.1.9.4.6.5.5.5.5.5.5.6.4q.4.1.8 0l.6-.4.5-.5.5-.5.5-.5.4-.6.1-.9v-1l-.1-.9-.4-.6-.5-.5-.5-.5q-.3-.3-.4-.7l-.2-.4-.2.1.2-.1.1-.4v-.3.8-3.5M18.6 28h.6-1 .4M9 9.9v.8-1 .2"/><path style="fill:#e4ffd6;fill-opacity:1" d="m12 5.5.6-.4.9-.1h5l.9.1.6.4.5.5.5.5.5.5.4.6.2.8.4.6.5.5.5.5.5.5.5.5.5.5.5.5.5.5.5.5.5.5.5.5.4.6.1.9v7l-.1.9q-.1.4-.4.6l-.5.5-.5.5-.5.5-.5.5-.5.5-.5.5-.5.5-.6.4-.9.1H19l-.1-.4q-.1-.4-.4-.6l-.5-.5-.5-.5-.5-.5-.5-.5-.5-.5-.5-.5-.5-.5-.5-.5-.4-.6-.1-.9v-6l-.1-.9-.4-.6-.5-.5-.5-.5-.5-.5-.5-.5-.5-.5-.5-.5-.5-.5-.6-.4L9 10v-.5l.1-.9.4-.6.5-.5.5-.5.5-.5.5-.5.5-.5M9 9.6v.7-1.1.4M18.9 28h.9-1.1.2m2.7-6.1q.4.1.8 0t.6-.4l.5-.5.5-.5.5-.5.4-.6.1-.9v-1l-.1-.9q-.1-.4-.4-.6l-.5-.5-.5-.5-.5-.5-.6-.4q-.4-.1-.8 0l-.6.4-.5.5-.5.5-.5.5-.4.6-.1.9v1l.1.9q.1.4.4.6l.5.5.5.5.5.5.6.4"/><path style="fill:#000;fill-opacity:0" d="M0 .5V0h32v32H0V.5M22.5 28l.9-.1q.4-.1.6-.4l.5-.5.5-.5.5-.5.5-.5.5-.5.5-.5.5-.5.4-.6.1-.9v-7l-.1-.9-.4-.6-.5-.5-.5-.5-.5-.5-.5-.5-.5-.5-.5-.5-.5-.5-.5-.5-.5-.5-.5-.5-.4-.6-.2-.8-.4-.6-.5-.5-.5-.5-.5-.5-.6-.4-.9-.1h-5l-.9.1-.6.4-.5.5-.5.5-.5.5-.5.5-.5.5-.4.6-.1.9v4q0 .5-.5.5l-.9.1-.6.4-.5.5-.5.5-.5.5-.4.6q-.1.4-.5.5l-.6.4-.5.5-.4.6-.1.9v2l.1.9q.1.4.4.6l.5.5.5.5.5.5.5.5.5.5.5.5.5.5.5.5.5.5.6.4.9.1h13" fill="none"/></svg>