<svg xmlns="http://www.w3.org/2000/svg" viewBox="0 -0.5 32 32" shape-rendering="crispEdges">
<metadata>Made with Pixels to Svg https://codepen.io/shshaw/pen/XbxvNj</metadata>
<path stroke="#fff3d6" d="M21 2h6M20 3h6M8 4h5M19 4h6M7 5h5M18 5h6M6 6h5M17 6h6M5 7h5M17 7h5M4 8h5M17 8h4M3 9h5M16 9h4M15 10h4M14 11h4M13 12h4M25 12h2M12 13h4M24 13h4M11 14h4M23 14h5M11 15h3M22 15h5M11 16h2M21 16h5M20 17h5M19 18h5M18 19h5M17 20h5" />
<path stroke="#ffd59e" d="M26 3h2M13 4h1M25 4h3M12 5h3M24 5h4M11 6h4M23 6h4M10 7h4M22 7h4M9 8h4M21 8h4M8 9h4M20 9h4M3 10h8M19 10h4M3 11h7M18 11h4M3 12h6M17 12h4M16 13h4M15 14h4M10 15h1M14 15h4M27 15h1M9 16h2M13 16h4M26 16h2M8 17h8M25 17h3M7 18h8M24 18h4M6 19h8M23 19h4M5 20h8M22 20h4M4 21h8M16 21h9M3 22h8M15 22h9M3 23h7M15 23h8M3 24h6M16 24h6" />
<path stroke="#f19583" d="M15 6h1M27 6h1M14 7h3M26 7h2M13 8h4M25 8h3M12 9h4M24 9h4M11 10h4M23 10h4M10 11h4M22 11h4M9 12h4M21 12h4M3 13h9M20 13h4M4 14h7M19 14h4M5 15h5M18 15h4M6 16h3M17 16h4M7 17h1M16 17h4M15 18h4M14 19h4M27 19h1M13 20h4M26 20h2M12 21h4M25 21h3M11 22h4M24 22h4M10 23h5M23 23h5M9 24h7M22 24h5M3 25h23M3 26h9M14 26h11M4 27h7M15 27h9M5 28h5M16 28h7" />
</svg>