<svg xmlns="http://www.w3.org/2000/svg" viewBox="0 0 32 32"><path d="M0 .5V0h32v32H0V.5M21.5 29l.9-.1q.4-.1.6-.4l.5-.5.5-.5.5-.5.5-.5.5-.5.5-.5.5-.5.5-.5.5-.5.4-.6.1-.9v-8l-.1-.9q-.1-.4-.4-.6l-.5-.5-.6-.4q-.3 0-.3-.5l.4-.6.5-.5.5-.5.4-.6.1-.9v-4l-.1-.9q-.1-.4-.5-.5t-.5-.5-.5-.5l-.9-.1h-3l-.9.1q-.4.1-.6.4l-.5.5-.5.5-.5.5-.5.5-.5.5-.5.5-.5.5-.4.6q0 .3-.5.3l-.6-.4-.6-.4q-.4-.1-.5-.5t-.4-.6l-.5-.5-.6-.4-.9-.1h-3l-.9.1q-.4.1-.6.4l-.5.5-.5.5-.5.5-.5.5-.5.5-.5.5-.5.5-.5.5-.5.5-.4.6-.1.9v2l.1.9q.1.4.4.6l.5.5.5.5.5.5.5.5.5.5.5.5.4.6v.8l-.4.6-.5.5-.5.5-.5.5-.5.5-.5.5-.5.5-.4.6-.1.9v2l.1.9q.1.4.4.6l.5.5.5.5.5.5.6.4.9.1h2l.9-.1q.4-.1.6-.4l.5-.5.5-.5.5-.5.5-.5.6-.4h.8l.6.4.5.5.5.5.5.5.5.5.6.4.9.1h4" fill="none"/><path d="m21 2.5.6-.4.9-.1h3l.9.1q.4.1.5.5l.1.4v-.3l-.2-.3v.2l.3.3v.2V3h-.4l-.7.5-.5.5-.5.5-.5.5-.5.5-.5.5-.5.5-.5.5-.5.5-.5.5-.5.5-.5.5-.5.5-.5.5-.5.5-.5.5-.5.5-.5.5-.5.5-.5.5-.5.5-.5.5-.5.5-.5.5-.5.5-.5.5-.5.5-.6.4h-.8q-.3-.1-.5-.5t-.1-.9l.1-.9q.1-.4.4-.6l.5-.5.5-.5.5-.5.5-.5.5-.5.5-.5.5-.5.5-.5.5-.5.5-.5.4-.6V6.9l-.1.1h.1l.2-.4v-.2.3L17 7l.1-.4.4-.6.5-.5.5-.5.5-.5.5-.5.5-.5.5-.5.5-.5" fill="#fff3d6"/><path d="M26 3.5q.3-.3.7-.4l.4-.2H27l.4.2h.2-.3L27 3l.4.1q.4.1.5.5t.1.9V6l-.4.1-.6.4-.5.5-.5.5-.5.5-.5.5-.5.5-.5.5-.5.5-.5.5-.5.5-.5.5-.5.5-.5.5-.5.5-.5.5-.5.5-.5.5-.5.5-.5.5-.5.5-.5.5-.5.5-.5.5-.5.5-.5.5-.5.5-.5.5-.5.5-.5.5-.5.5-.5.5-.5.5-.5.5-.5.5-.5.5-.5.5-.5.5-.6.4-.9.1H3v-1.5l.1-.9q.1-.4.4-.6l.5-.5.5-.5.5-.5.5-.5.5-.5.5-.5.4-.6.1-.4v.3l-.2.3v-.2L7 18v-.2.2l.4-.1q.5-.1.7-.4l.5-.5.5-.5.5-.5.5-.5.6-.4h.4v-.2V15.7 15v.5l.1.9q.1.4.5.5.4.1.8 0t.6-.4l.5-.5.5-.5.5-.5.5-.5.5-.5.5-.5.5-.5.5-.5.5-.5.5-.5.5-.5.5-.5.5-.5.5-.5.5-.5.5-.5.5-.5.5-.5.5-.5.5-.5.5-.5.5-.5.5-.5.5-.5.5-.5.5-.5M3 24.6v.6-1 .4M28 6.1v-.8 1V6" fill="#ffd59e"/><path d="m8 4.5.6-.4.9-.1H13h-.8 1-.2l-.1.4-.4.6-.5.5-.5.5-.5.5-.5.5-.5.5-.5.5-.5.5-.5.5-.5.5-.6.4-.9.1H3V10.3 10l.1-.4v-.2.3L3 10l.1-.4.4-.6.5-.5.5-.5.5-.5.5-.5.5-.5.5-.5.5-.5.5-.5.5-.5" fill="#fff3d6"/><path d="M12.9 4.4V4h-.2.3l.4.1h.2-.3L13 4l.4.1.6.4.5.5.4.6.1.4v-.3l-.2-.3v.2l.3.3v.2V6l-.2.3-.4.7-.5.5-.5.5-.5.5-.5.5-.5.5-.5.5-.5.5-.5.5-.5.5-.5.5-.5.5-.6.4-.9.1H3v.2-1 .8-3 .8-1 .2h3.5l.9-.1q.4-.1.6-.4l.5-.5.5-.5.5-.5.5-.5.5-.5.5-.5.5-.5.5-.5.5-.5.4-.6" fill="#ffd59e"/><path d="M15 6.3V6l.4.2h.2-.3L15 6l.4.1.6.4.6.4.4.1h-.8.7l.2-.2H17v.7l-.1.9q-.1.4-.4.6l-.5.5-.5.5-.5.5-.5.5-.5.5-.5.5-.5.5-.5.5-.5.5-.5.5-.4.6-.1.4v-.3l.2-.3v.2l-.2.4v.3-.2h-.4l-.6.4-.5.5-.5.5-.5.5-.5.5q-.3.3-.7.4L7 18v.2-.8.3l.1.3-.1-.4-.4-.6-.5-.5-.5-.5-.5-.5-.5-.5-.5-.5-.5-.5-.4-.6L3 13v.3l.2.3v-.2L3 13v-.3.2h.5l1 .1h3l.9-.1q.4-.1.6-.4l.5-.5.5-.5.5-.5.5-.5.5-.5.5-.5.5-.5.5-.5.5-.5.5-.5.5-.5q.3-.3.4-.7m12.1.2.6-.4.4-.1v2.5l-.1.9q-.1.4-.4.6l-.5.5-.5.5-.4.6-.1.4v-.8.7l.2.2V12h-.5l-.7.5-.5.5-.5.5-.5.5-.5.5-.5.5-.5.5-.5.5-.5.5-.5.5-.5.5-.5.5-.5.5-.5.5-.5.5-.5.5-.4.6v.4h.1-.2l-.4.1h-.2.3l.3-.1-.4.1q-.4.1-.6.4l-.5.5-.4.6v.8l.4.6.5.5.6.4.9.1h3l.9-.1q.4-.1.6-.4l.5-.5.5-.5.5-.5.5-.5.5-.5.5-.5.5-.5.5-.5.5-.5.5-.5.6-.4.4-.1v3.5l-.1.9q-.1.4-.4.6l-.5.5-.5.5-.5.5-.5.5-.5.5-.5.5-.5.5-.5.5-.5.5-.6.4-.9.1h-4l-.9-.1q-.4-.1-.6-.4l-.5-.5-.5-.5-.5-.5-.5-.5-.6-.4h-.8l-.6.4-.5.5-.5.5-.5.5-.5.5-.6.4-.9.1h-2l-.9-.1q-.4-.1-.6-.4l-.5-.5-.5-.5-.5-.5-.4-.6-.1-.9V25h4.5l.9-.1q.4-.1.6-.4l.5-.5.5-.5.5-.5.5-.5.5-.5.5-.5.5-.5.5-.5.5-.5.5-.5.5-.5.5-.5.5-.5.5-.5.5-.5.5-.5.5-.5.5-.5.5-.5.5-.5.5-.5.5-.5.5-.5.5-.5.5-.5.5-.5.5-.5.5-.5.5-.5.5-.5.5-.5.5-.5.5-.5.5-.5.5-.5.5-.5M3 24.9v.9-1.1.2m25-5.5v-.6 1-.4m0-13v-.7 1-.3" fill="#f19583"/><path d="M25 12.5q.3-.3.7-.4l.4-.2-.1-.2v.2l.4.2h.2-.3L26 12l.4.1.6.4.5.5.4.6.1.9v.5l-.4.1-.6.4-.5.5-.5.5-.5.5-.5.5-.5.5-.5.5-.5.5-.5.5-.5.5-.5.5-.6.4-.9.1H17h.8-1 .2l.1-.4q.1-.4.4-.6l.5-.5.5-.5.5-.5.5-.5.5-.5.5-.5.5-.5.5-.5.5-.5.5-.5.5-.5.5-.5.5-.5.5-.5.5-.5m3 2.6v-.8 1-.2" fill="#fff3d6"/><path d="m27 15.5.6-.4.4-.1v4l-.4.1q-.4.1-.6.4l-.5.5-.5.5-.5.5-.5.5-.5.5-.5.5-.5.5-.5.5-.5.5-.5.5-.6.4-.9.1h-3l-.9-.1q-.4-.1-.6-.4l-.5-.5-.4-.6v-.8l.4-.6.5-.5.6-.4.9-.1h3l.9-.1q.4-.1.6-.4l.5-.5.5-.5.5-.5.5-.5.5-.5.5-.5.5-.5.5-.5.5-.5.5-.5m1 3.6v-.9 1m0-3.8v-.7 1-.3" fill="#ffd59e"/></svg>