<?xml version="1.0" encoding="UTF-8" standalone="no"?>
<!-- Created with Inkscape (http://www.inkscape.org/) -->

<svg
   xmlns:dc="http://purl.org/dc/elements/1.1/"
   xmlns:cc="http://creativecommons.org/ns#"
   xmlns:rdf="http://www.w3.org/1999/02/22-rdf-syntax-ns#"
   xmlns:svg="http://www.w3.org/2000/svg"
   xmlns="http://www.w3.org/2000/svg"
   xmlns:sodipodi="http://sodipodi.sourceforge.net/DTD/sodipodi-0.dtd"
   xmlns:inkscape="http://www.inkscape.org/namespaces/inkscape"
   version="1.1"
   id="svg6393"
   width="32"
   height="32"
   viewBox="0 0 32 32"
   sodipodi:docname="phase-fabric.svg"
   inkscape:version="0.92.5 (2060ec1f9f, 2020-04-08)">
  <metadata
     id="metadata6399">
    <rdf:RDF>
      <cc:Work
         rdf:about="">
        <dc:format>image/svg+xml</dc:format>
        <dc:type
           rdf:resource="http://purl.org/dc/dcmitype/StillImage" />
        <dc:title></dc:title>
      </cc:Work>
    </rdf:RDF>
  </metadata>
  <defs
     id="defs6397" />
  <sodipodi:namedview
     pagecolor="#ffffff"
     bordercolor="#666666"
     borderopacity="1"
     objecttolerance="10"
     gridtolerance="10"
     guidetolerance="10"
     inkscape:pageopacity="0"
     inkscape:pageshadow="2"
     inkscape:window-width="1366"
     inkscape:window-height="705"
     id="namedview6395"
     showgrid="false"
     inkscape:zoom="7.375"
     inkscape:cx="16"
     inkscape:cy="16"
     inkscape:window-x="-8"
     inkscape:window-y="-8"
     inkscape:window-maximized="1"
     inkscape:current-layer="svg6393" />
  <g
     id="g6964">
    <path
       style="fill:#000000;fill-opacity:0"
       d="M 0,0.5 V 0 H 0.5 1 1.5 2 2.5 3 3.5 4 4.5 5 5.5 6 6.5 7 7.5 8 8.5 9 9.5 10 10.5 11 11.5 12 12.5 13 13.5 14 14.5 15 15.5 16 16.5 17 17.5 18 18.5 19 19.5 20 20.5 21 21.5 22 22.5 23 23.5 24 24.5 25 25.5 26 26.5 27 27.5 28 28.5 29 29.5 30 30.5 31 31.5 32 V 0.5 1 1.5 2 2.5 3 3.5 4 4.5 5 5.5 6 6.5 7 7.5 8 8.5 9 9.5 10 10.5 11 11.5 12 12.5 13 13.5 14 14.5 15 15.5 16 16.5 17 17.5 18 18.5 19 19.5 20 20.5 21 21.5 22 22.5 23 23.5 24 24.5 25 25.5 26 26.5 27 27.5 28 28.5 29 29.5 30 30.5 31 31.5 32 H 31.5 31 30.5 30 29.5 29 28.5 28 27.5 27 26.5 26 25.5 25 24.5 24 23.5 23 22.5 22 21.5 21 20.5 20 19.5 19 18.5 18 17.5 17 16.5 16 15.5 15 14.5 14 13.5 13 12.5 12 11.5 11 10.5 10 9.5 9 8.5 8 7.5 7 6.5 6 5.5 5 4.5 4 3.5 3 2.5 2 1.5 1 0.5 0 V 31.5 31 30.5 30 29.5 29 28.5 28 27.5 27 26.5 26 25.5 25 24.5 24 23.5 23 22.5 22 21.5 21 20.5 20 19.5 19 18.5 18 17.5 17 16.5 16 15.5 15 14.5 14 13.5 13 12.5 12 11.5 11 10.5 10 9.5 9 8.5 8 7.5 7 6.5 6 5.5 5 4.5 4 3.5 3 2.5 2 1.5 1 0.5 M 21.5,29 Q 22,29 22.375,28.875 22.75,28.75 23,28.5 23.25,28.25 23.5,28 23.75,27.75 24,27.5 24.25,27.25 24.5,27 24.75,26.75 25,26.5 25.25,26.25 25.5,26 25.75,25.75 26,25.5 26.25,25.25 26.5,25 26.75,24.75 27,24.5 27.25,24.25 27.5,24 27.75,23.75 27.875,23.375 28,23 28,22.5 q 0,-0.5 0,-1 0,-0.5 0,-1 0,-0.5 0,-1 0,-0.5 0,-1 0,-0.5 0,-1 0,-0.5 0,-1 0,-0.5 0,-1 0,-0.5 0,-1 Q 28,14 27.875,13.625 27.75,13.25 27.5,13 27.25,12.75 27,12.5 26.75,12.25 26.375,12.125 26,12 26.125,11.625 26.25,11.25 26.5,11 26.75,10.75 27,10.5 27.25,10.25 27.5,10 27.75,9.75 27.875,9.375 28,9 28,8.5 28,8 28,7.5 28,7 28,6.5 28,6 28,5.5 28,5 28,4.5 28,4 27.875,3.625 27.75,3.25 27.375,3.125 27,3 26.875,2.625 26.75,2.25 26.375,2.125 26,2 25.5,2 25,2 24.5,2 24,2 23.5,2 23,2 22.5,2 22,2 21.625,2.125 21.25,2.25 21,2.5 20.75,2.75 20.5,3 20.25,3.25 20,3.5 19.75,3.75 19.5,4 19.25,4.25 19,4.5 18.75,4.75 18.5,5 18.25,5.25 18,5.5 17.75,5.75 17.5,6 17.25,6.25 17.125,6.625 17,7 16.625,6.875 16.25,6.75 16,6.5 15.75,6.25 15.375,6.125 15,6 14.875,5.625 14.75,5.25 14.5,5 14.25,4.75 14,4.5 13.75,4.25 13.375,4.125 13,4 12.5,4 12,4 11.5,4 11,4 10.5,4 10,4 9.5,4 9,4 8.625,4.125 8.25,4.25 8,4.5 7.75,4.75 7.5,5 7.25,5.25 7,5.5 6.75,5.75 6.5,6 6.25,6.25 6,6.5 5.75,6.75 5.5,7 5.25,7.25 5,7.5 4.75,7.75 4.5,8 4.25,8.25 4,8.5 3.75,8.75 3.5,9 3.25,9.25 3.125,9.625 3,10 3,10.5 3,11 3,11.5 3,12 3,12.5 3,13 3.125,13.375 3.25,13.75 3.5,14 3.75,14.25 4,14.5 4.25,14.75 4.5,15 4.75,15.25 5,15.5 5.25,15.75 5.5,16 5.75,16.25 6,16.5 6.25,16.75 6.5,17 6.75,17.25 6.875,17.625 7,18 6.875,18.375 6.75,18.75 6.5,19 6.25,19.25 6,19.5 5.75,19.75 5.5,20 5.25,20.25 5,20.5 4.75,20.75 4.5,21 4.25,21.25 4,21.5 3.75,21.75 3.5,22 3.25,22.25 3.125,22.625 3,23 3,23.5 3,24 3,24.5 3,25 3,25.5 3,26 3.125,26.375 3.25,26.75 3.5,27 3.75,27.25 4,27.5 4.25,27.75 4.5,28 4.75,28.25 5,28.5 5.25,28.75 5.625,28.875 6,29 6.5,29 7,29 7.5,29 8,29 8.5,29 9,29 9.375,28.875 9.75,28.75 10,28.5 10.25,28.25 10.5,28 10.75,27.75 11,27.5 11.25,27.25 11.5,27 11.75,26.75 12,26.5 12.25,26.25 12.625,26.125 13,26 13.375,26.125 13.75,26.25 14,26.5 q 0.25,0.25 0.5,0.5 0.25,0.25 0.5,0.5 0.25,0.25 0.5,0.5 0.25,0.25 0.5,0.5 0.25,0.25 0.625,0.375 Q 17,29 17.5,29 q 0.5,0 1,0 0.5,0 1,0 0.5,0 1,0 0.5,0 1,0"
       id="path6946"
       inkscape:connector-curvature="0" />
    <path
       style="fill:#fff3d6;fill-opacity:1"
       d="M 21,2.5 Q 21.25,2.25 21.625,2.125 22,2 22.5,2 q 0.5,0 1,0 0.5,0 1,0 0.5,0 1,0 0.5,0 0.875,0.125 0.375,0.125 0.5,0.5 L 27,3 26.90625,2.71875 26.8125,2.4375 26.875,2.625 q 0.0625,0.1875 0.1875,0.3125 l 0.125,0.125 L 27.125,3 27.0625,2.9375 26.65625,3.09375 Q 26.25,3.25 26,3.5 25.75,3.75 25.5,4 25.25,4.25 25,4.5 24.75,4.75 24.5,5 24.25,5.25 24,5.5 23.75,5.75 23.5,6 23.25,6.25 23,6.5 22.75,6.75 22.5,7 22.25,7.25 22,7.5 21.75,7.75 21.5,8 21.25,8.25 21,8.5 20.75,8.75 20.5,9 20.25,9.25 20,9.5 19.75,9.75 19.5,10 19.25,10.25 19,10.5 18.75,10.75 18.5,11 18.25,11.25 18,11.5 17.75,11.75 17.5,12 17.25,12.25 17,12.5 16.75,12.75 16.5,13 16.25,13.25 16,13.5 15.75,13.75 15.5,14 15.25,14.25 15,14.5 14.75,14.75 14.5,15 14.25,15.25 14,15.5 13.75,15.75 13.5,16 13.25,16.25 13,16.5 12.75,16.75 12.375,16.875 12,17 11.625,16.875 11.25,16.75 11.125,16.375 11,16 11,15.5 11,15 11.125,14.625 11.25,14.25 11.5,14 11.75,13.75 12,13.5 12.25,13.25 12.5,13 12.75,12.75 13,12.5 13.25,12.25 13.5,12 13.75,11.75 14,11.5 14.25,11.25 14.5,11 14.75,10.75 15,10.5 15.25,10.25 15.5,10 15.75,9.75 16,9.5 16.25,9.25 16.5,9 16.75,8.75 16.875,8.375 17,8 16.953125,7.453125 L 16.90625,6.90625 16.828125,6.953125 16.75,7 16.90625,6.90625 Q 17.0625,6.8125 17.125,6.625 L 17.1875,6.4375 17.09375,6.71875 17,7 17.125,6.625 Q 17.25,6.25 17.5,6 17.75,5.75 18,5.5 18.25,5.25 18.5,5 18.75,4.75 19,4.5 19.25,4.25 19.5,4 19.75,3.75 20,3.5 20.25,3.25 20.5,3 20.75,2.75 21,2.5"
       id="path6948"
       inkscape:connector-curvature="0" />
    <path
       style="fill:#ffd59e;fill-opacity:1"
       d="M 26,3.5 Q 26.25,3.25 26.65625,3.09375 L 27.0625,2.9375 27,2.875 26.9375,2.8125 l 0.125,0.125 q 0.125,0.125 0.3125,0.1875 L 27.5625,3.1875 27.28125,3.09375 27,3 27.375,3.125 q 0.375,0.125 0.5,0.5 Q 28,4 28,4.5 28,5 28,5.5 V 6 L 27.625,6.125 Q 27.25,6.25 27,6.5 26.75,6.75 26.5,7 26.25,7.25 26,7.5 25.75,7.75 25.5,8 25.25,8.25 25,8.5 24.75,8.75 24.5,9 24.25,9.25 24,9.5 23.75,9.75 23.5,10 23.25,10.25 23,10.5 22.75,10.75 22.5,11 22.25,11.25 22,11.5 21.75,11.75 21.5,12 21.25,12.25 21,12.5 20.75,12.75 20.5,13 20.25,13.25 20,13.5 19.75,13.75 19.5,14 19.25,14.25 19,14.5 18.75,14.75 18.5,15 18.25,15.25 18,15.5 17.75,15.75 17.5,16 17.25,16.25 17,16.5 16.75,16.75 16.5,17 16.25,17.25 16,17.5 15.75,17.75 15.5,18 15.25,18.25 15,18.5 14.75,18.75 14.5,19 14.25,19.25 14,19.5 13.75,19.75 13.5,20 13.25,20.25 13,20.5 12.75,20.75 12.5,21 12.25,21.25 12,21.5 11.75,21.75 11.5,22 11.25,22.25 11,22.5 10.75,22.75 10.5,23 10.25,23.25 10,23.5 9.75,23.75 9.5,24 9.25,24.25 9,24.5 8.75,24.75 8.375,24.875 8,25 7.5,25 7,25 6.5,25 6,25 5.5,25 5,25 4.5,25 4,25 3.5,25 H 3 V 24.5 Q 3,24 3,23.5 3,23 3.125,22.625 3.25,22.25 3.5,22 3.75,21.75 4,21.5 4.25,21.25 4.5,21 4.75,20.75 5,20.5 5.25,20.25 5.5,20 5.75,19.75 6,19.5 6.25,19.25 6.5,19 6.75,18.75 6.875,18.375 L 7,18 6.90625,18.28125 6.8125,18.5625 6.875,18.375 Q 6.9375,18.1875 6.9375,18 V 17.8125 17.90625 18 L 7.34375,17.875 Q 7.75,17.75 8,17.5 8.25,17.25 8.5,17 8.75,16.75 9,16.5 9.25,16.25 9.5,16 9.75,15.75 10,15.5 10.25,15.25 10.640625,15.140625 L 11.03125,15.03125 11.046875,14.921875 11.0625,14.8125 11.03125,15.03125 Q 11,15.25 11,15.5 V 15.75 15.375 15 15.5 q 0,0.5 0.125,0.875 0.125,0.375 0.5,0.5 0.375,0.125 0.75,0 Q 12.75,16.75 13,16.5 13.25,16.25 13.5,16 13.75,15.75 14,15.5 14.25,15.25 14.5,15 14.75,14.75 15,14.5 15.25,14.25 15.5,14 15.75,13.75 16,13.5 16.25,13.25 16.5,13 16.75,12.75 17,12.5 17.25,12.25 17.5,12 17.75,11.75 18,11.5 18.25,11.25 18.5,11 18.75,10.75 19,10.5 19.25,10.25 19.5,10 19.75,9.75 20,9.5 20.25,9.25 20.5,9 20.75,8.75 21,8.5 21.25,8.25 21.5,8 21.75,7.75 22,7.5 22.25,7.25 22.5,7 22.75,6.75 23,6.5 23.25,6.25 23.5,6 23.75,5.75 24,5.5 24.25,5.25 24.5,5 24.75,4.75 25,4.5 25.25,4.25 25.5,4 25.75,3.75 26,3.5 M 3,24.625 V 25 25.125 25.25 25 q 0,-0.25 0,-0.5 v -0.25 0.375 M 28,6.125 V 6 5.625 5.25 5.5 Q 28,5.75 28,6 V 6.25 6.125"
       id="path6950"
       inkscape:connector-curvature="0" />
    <path
       style="fill:#fff3d6;fill-opacity:1"
       d="M 8,4.5 Q 8.25,4.25 8.625,4.125 9,4 9.5,4 q 0.5,0 1,0 0.5,0 1,0 0.5,0 1,0 H 13 12.625 12.25 12.5 q 0.25,0 0.46875,0.03125 L 13.1875,4.0625 13.078125,4.046875 12.96875,4.03125 12.859375,4.390625 Q 12.75,4.75 12.5,5 12.25,5.25 12,5.5 11.75,5.75 11.5,6 11.25,6.25 11,6.5 10.75,6.75 10.5,7 10.25,7.25 10,7.5 9.75,7.75 9.5,8 9.25,8.25 9,8.5 8.75,8.75 8.5,9 8.25,9.25 8,9.5 7.75,9.75 7.375,9.875 7,10 6.5,10 6,10 5.5,10 5,10 4.5,10 4,10 3.515625,10.015625 L 3.03125,10.03125 3.015625,10.140625 3,10.25 3.03125,10.03125 Q 3.0625,9.8125 3.125,9.625 L 3.1875,9.4375 3.09375,9.71875 3,10 3.125,9.625 Q 3.25,9.25 3.5,9 3.75,8.75 4,8.5 4.25,8.25 4.5,8 4.75,7.75 5,7.5 5.25,7.25 5.5,7 5.75,6.75 6,6.5 6.25,6.25 6.5,6 6.75,5.75 7,5.5 7.25,5.25 7.5,5 7.75,4.75 8,4.5"
       id="path6952"
       inkscape:connector-curvature="0" />
    <path
       style="fill:#ffd59e;fill-opacity:1"
       d="M 12.859375,4.390625 12.96875,4.03125 12.859375,4.015625 12.75,4 12.96875,4.03125 Q 13.1875,4.0625 13.375,4.125 L 13.5625,4.1875 13.28125,4.09375 13,4 13.375,4.125 Q 13.75,4.25 14,4.5 14.25,4.75 14.5,5 14.75,5.25 14.875,5.625 L 15,6 14.90625,5.71875 14.8125,5.4375 14.875,5.625 q 0.0625,0.1875 0.1875,0.3125 l 0.125,0.125 L 15.125,6 15.0625,5.9375 14.90625,6.34375 Q 14.75,6.75 14.5,7 14.25,7.25 14,7.5 13.75,7.75 13.5,8 13.25,8.25 13,8.5 12.75,8.75 12.5,9 12.25,9.25 12,9.5 11.75,9.75 11.5,10 11.25,10.25 11,10.5 10.75,10.75 10.5,11 10.25,11.25 10,11.5 9.75,11.75 9.5,12 9.25,12.25 9,12.5 8.75,12.75 8.375,12.875 8,13 7.5,13 7,13 6.5,13 6,13 5.5,13 5,13 4.5,13 4,13 3.515625,12.984375 L 3.03125,12.96875 3.046875,13.078125 3.0625,13.1875 3.03125,12.96875 Q 3,12.75 3,12.5 V 12.25 12.625 13 12.5 Q 3,12 3,11.5 3,11 3,10.5 V 10 10.375 10.75 10.5 Q 3,10.25 3.03125,10.03125 L 3.0625,9.8125 3.046875,9.921875 3.03125,10.03125 3.515625,10.015625 Q 4,10 4.5,10 5,10 5.5,10 6,10 6.5,10 7,10 7.375,9.875 7.75,9.75 8,9.5 8.25,9.25 8.5,9 8.75,8.75 9,8.5 9.25,8.25 9.5,8 9.75,7.75 10,7.5 10.25,7.25 10.5,7 10.75,6.75 11,6.5 11.25,6.25 11.5,6 11.75,5.75 12,5.5 12.25,5.25 12.5,5 12.75,4.75 12.859375,4.390625"
       id="path6954"
       inkscape:connector-curvature="0" />
    <path
       style="fill:#f19583;fill-opacity:1"
       d="M 14.90625,6.34375 15.0625,5.9375 15,5.875 14.9375,5.8125 l 0.125,0.125 q 0.125,0.125 0.3125,0.1875 L 15.5625,6.1875 15.28125,6.09375 15,6 15.375,6.125 Q 15.75,6.25 16,6.5 16.25,6.75 16.625,6.875 L 17,7 H 16.625 16.25 16.5 q 0.25,0 0.40625,-0.09375 L 17.0625,6.8125 16.984375,6.859375 16.90625,6.90625 16.953125,7.453125 Q 17,8 16.875,8.375 16.75,8.75 16.5,9 16.25,9.25 16,9.5 15.75,9.75 15.5,10 15.25,10.25 15,10.5 14.75,10.75 14.5,11 14.25,11.25 14,11.5 13.75,11.75 13.5,12 13.25,12.25 13,12.5 12.75,12.75 12.5,13 12.25,13.25 12,13.5 11.75,13.75 11.5,14 11.25,14.25 11.125,14.625 L 11,15 11.09375,14.71875 11.1875,14.4375 11.125,14.625 q -0.0625,0.1875 -0.09375,0.40625 L 11,15.25 11.01563,15.140625 11.03126,15.03125 10.640635,15.140625 Q 10.25,15.25 10,15.5 9.75,15.75 9.5,16 9.25,16.25 9,16.5 8.75,16.75 8.5,17 8.25,17.25 8,17.5 7.75,17.75 7.34375,17.875 L 6.9375,18 V 18.09375 18.1875 18 q 0,-0.1875 -0.0625,-0.375 L 6.8125,17.4375 6.90625,17.71875 7,18 6.875,17.625 Q 6.75,17.25 6.5,17 6.25,16.75 6,16.5 5.75,16.25 5.5,16 5.25,15.75 5,15.5 4.75,15.25 4.5,15 4.25,14.75 4,14.5 3.75,14.25 3.5,14 3.25,13.75 3.125,13.375 L 3,13 3.09375,13.28125 3.1875,13.5625 3.125,13.375 Q 3.0625,13.1875 3.03125,12.96875 L 3,12.75 3.015625,12.859375 3.03125,12.96875 3.515625,12.984375 Q 4,13 4.5,13 q 0.5,0 1,0 0.5,0 1,0 0.5,0 1,0 Q 8,13 8.375,12.875 8.75,12.75 9,12.5 9.25,12.25 9.5,12 9.75,11.75 10,11.5 10.25,11.25 10.5,11 10.75,10.75 11,10.5 11.25,10.25 11.5,10 11.75,9.75 12,9.5 12.25,9.25 12.5,9 12.75,8.75 13,8.5 13.25,8.25 13.5,8 13.75,7.75 14,7.5 14.25,7.25 14.5,7 14.75,6.75 14.90625,6.34375"
       id="path6956"
       inkscape:connector-curvature="0" />
    <path
       style="fill:#f19583;fill-opacity:1"
       d="M 27,6.5 Q 27.25,6.25 27.625,6.125 L 28,6 v 0.5 q 0,0.5 0,1 0,0.5 0,1 Q 28,9 27.875,9.375 27.75,9.75 27.5,10 27.25,10.25 27,10.5 26.75,10.75 26.5,11 26.25,11.25 26.125,11.625 L 26,12 V 11.625 11.25 11.5 q 0,0.25 0.09375,0.40625 l 0.09375,0.15625 -0.04687,-0.07813 -0.04687,-0.07813 -0.421875,0.171875 Q 25.25,12.25 25,12.5 24.75,12.75 24.5,13 24.25,13.25 24,13.5 23.75,13.75 23.5,14 23.25,14.25 23,14.5 22.75,14.75 22.5,15 22.25,15.25 22,15.5 21.75,15.75 21.5,16 21.25,16.25 21,16.5 20.75,16.75 20.5,17 20.25,17.25 20,17.5 19.75,17.75 19.5,18 19.25,18.25 19,18.5 18.75,18.75 18.5,19 18.25,19.25 18,19.5 17.75,19.75 17.5,20 17.25,20.25 17.140625,20.640625 L 17.03125,21.03125 17.140625,21.015625 17.25,21 17.03125,21.03125 Q 16.8125,21.0625 16.625,21.125 L 16.4375,21.1875 16.71875,21.09375 17,21 16.625,21.125 Q 16.25,21.25 16,21.5 15.75,21.75 15.5,22 15.25,22.25 15.125,22.625 15,23 15.125,23.375 15.25,23.75 15.5,24 q 0.25,0.25 0.5,0.5 0.25,0.25 0.625,0.375 Q 17,25 17.5,25 q 0.5,0 1,0 0.5,0 1,0 0.5,0 1,0 0.5,0 0.875,-0.125 Q 21.75,24.75 22,24.5 22.25,24.25 22.5,24 22.75,23.75 23,23.5 23.25,23.25 23.5,23 23.75,22.75 24,22.5 24.25,22.25 24.5,22 24.75,21.75 25,21.5 25.25,21.25 25.5,21 25.75,20.75 26,20.5 26.25,20.25 26.5,20 26.75,19.75 27,19.5 27.25,19.25 27.625,19.125 L 28,19 v 0.5 q 0,0.5 0,1 0,0.5 0,1 0,0.5 0,1 0,0.5 -0.125,0.875 Q 27.75,23.75 27.5,24 27.25,24.25 27,24.5 26.75,24.75 26.5,25 26.25,25.25 26,25.5 25.75,25.75 25.5,26 25.25,26.25 25,26.5 24.75,26.75 24.5,27 24.25,27.25 24,27.5 23.75,27.75 23.5,28 23.25,28.25 23,28.5 22.75,28.75 22.375,28.875 22,29 21.5,29 q -0.5,0 -1,0 -0.5,0 -1,0 -0.5,0 -1,0 -0.5,0 -1,0 Q 17,29 16.625,28.875 16.25,28.75 16,28.5 15.75,28.25 15.5,28 15.25,27.75 15,27.5 14.75,27.25 14.5,27 14.25,26.75 14,26.5 13.75,26.25 13.375,26.125 13,26 12.625,26.125 12.25,26.25 12,26.5 11.75,26.75 11.5,27 11.25,27.25 11,27.5 10.75,27.75 10.5,28 10.25,28.25 10,28.5 9.75,28.75 9.375,28.875 9,29 8.5,29 8,29 7.5,29 7,29 6.5,29 6,29 5.625,28.875 5.25,28.75 5,28.5 4.75,28.25 4.5,28 4.25,27.75 4,27.5 3.75,27.25 3.5,27 3.25,26.75 3.125,26.375 3,26 3,25.5 V 25 h 0.5 q 0.5,0 1,0 0.5,0 1,0 0.5,0 1,0 0.5,0 1,0 Q 8,25 8.375,24.875 8.75,24.75 9,24.5 9.25,24.25 9.5,24 9.75,23.75 10,23.5 10.25,23.25 10.5,23 10.75,22.75 11,22.5 11.25,22.25 11.5,22 11.75,21.75 12,21.5 12.25,21.25 12.5,21 12.75,20.75 13,20.5 13.25,20.25 13.5,20 13.75,19.75 14,19.5 14.25,19.25 14.5,19 14.75,18.75 15,18.5 15.25,18.25 15.5,18 15.75,17.75 16,17.5 16.25,17.25 16.5,17 16.75,16.75 17,16.5 17.25,16.25 17.5,16 17.75,15.75 18,15.5 18.25,15.25 18.5,15 18.75,14.75 19,14.5 19.25,14.25 19.5,14 19.75,13.75 20,13.5 20.25,13.25 20.5,13 20.75,12.75 21,12.5 21.25,12.25 21.5,12 21.75,11.75 22,11.5 22.25,11.25 22.5,11 22.75,10.75 23,10.5 23.25,10.25 23.5,10 23.75,9.75 24,9.5 24.25,9.25 24.5,9 24.75,8.75 25,8.5 25.25,8.25 25.5,8 25.75,7.75 26,7.5 26.25,7.25 26.5,7 26.75,6.75 27,6.5 M 3,24.875 V 25 25.375 25.75 25.5 Q 3,25.25 3,25 v -0.25 0.125 m 25,-5.5 V 19 18.875 18.75 19 q 0,0.25 0,0.5 v 0.25 -0.375 m 0,-13 V 6 5.875 5.75 6 q 0,0.25 0,0.5 V 6.75 6.375"
       id="path6958"
       inkscape:connector-curvature="0" />
    <path
       style="fill:#fff3d6;fill-opacity:1"
       d="m 25,12.5 q 0.25,-0.25 0.671875,-0.421875 L 26.09375,11.90625 26.046875,11.828125 26,11.75 26.09375,11.90625 Q 26.1875,12.0625 26.375,12.125 L 26.5625,12.1875 26.28125,12.09375 26,12 26.375,12.125 Q 26.75,12.25 27,12.5 q 0.25,0.25 0.5,0.5 0.25,0.25 0.375,0.625 Q 28,14 28,14.5 V 15 l -0.375,0.125 Q 27.25,15.25 27,15.5 26.75,15.75 26.5,16 26.25,16.25 26,16.5 25.75,16.75 25.5,17 25.25,17.25 25,17.5 24.75,17.75 24.5,18 24.25,18.25 24,18.5 23.75,18.75 23.5,19 23.25,19.25 23,19.5 22.75,19.75 22.5,20 22.25,20.25 22,20.5 21.75,20.75 21.375,20.875 21,21 20.5,21 q -0.5,0 -1,0 -0.5,0 -1,0 -0.5,0 -1,0 H 17 17.375 17.75 17.5 q -0.25,0 -0.46875,0.03125 l -0.21875,0.03125 0.109375,-0.01563 0.109375,-0.01563 0.109375,-0.390625 Q 17.25,20.25 17.5,20 17.75,19.75 18,19.5 18.25,19.25 18.5,19 18.75,18.75 19,18.5 19.25,18.25 19.5,18 19.75,17.75 20,17.5 20.25,17.25 20.5,17 20.75,16.75 21,16.5 21.25,16.25 21.5,16 21.75,15.75 22,15.5 22.25,15.25 22.5,15 22.75,14.75 23,14.5 23.25,14.25 23.5,14 23.75,13.75 24,13.5 24.25,13.25 24.5,13 24.75,12.75 25,12.5 m 3,2.625 V 15 14.625 14.25 14.5 q 0,0.25 0,0.5 v 0.25 -0.125"
       id="path6960"
       inkscape:connector-curvature="0" />
    <path
       style="fill:#ffd59e;fill-opacity:1"
       d="m 27,15.5 q 0.25,-0.25 0.625,-0.375 L 28,15 v 0.5 q 0,0.5 0,1 0,0.5 0,1 0,0.5 0,1 V 19 l -0.375,0.125 Q 27.25,19.25 27,19.5 26.75,19.75 26.5,20 26.25,20.25 26,20.5 25.75,20.75 25.5,21 25.25,21.25 25,21.5 24.75,21.75 24.5,22 24.25,22.25 24,22.5 23.75,22.75 23.5,23 23.25,23.25 23,23.5 22.75,23.75 22.5,24 22.25,24.25 22,24.5 21.75,24.75 21.375,24.875 21,25 20.5,25 q -0.5,0 -1,0 -0.5,0 -1,0 -0.5,0 -1,0 Q 17,25 16.625,24.875 16.25,24.75 16,24.5 15.75,24.25 15.5,24 15.25,23.75 15.125,23.375 15,23 15.125,22.625 15.25,22.25 15.5,22 15.75,21.75 16,21.5 16.25,21.25 16.625,21.125 17,21 17.5,21 q 0.5,0 1,0 0.5,0 1,0 0.5,0 1,0 0.5,0 0.875,-0.125 Q 21.75,20.75 22,20.5 22.25,20.25 22.5,20 22.75,19.75 23,19.5 23.25,19.25 23.5,19 23.75,18.75 24,18.5 24.25,18.25 24.5,18 24.75,17.75 25,17.5 25.25,17.25 25.5,17 25.75,16.75 26,16.5 26.25,16.25 26.5,16 26.75,15.75 27,15.5 m 1,3.625 V 19 18.625 18.25 18.5 q 0,0.25 0,0.5 v 0.25 -0.125 m 0,-3.75 V 15 14.875 14.75 15 q 0,0.25 0,0.5 v 0.25 -0.375"
       id="path6962"
       inkscape:connector-curvature="0" />
  </g>
</svg>
