<svg xmlns="http://www.w3.org/2000/svg" viewBox="0 0 32 32"><path d="M0 .5V0h32v32H0V.5M21.5 29q.5 0 .875-.125T23 28.5l.5-.5.5-.5.5-.5.5-.5.5-.5.5-.5.5-.5.5-.5.5-.5q.25-.25.375-.625T28 22.5v-1-1-1-1-1-1-1-1q0-.5-.125-.875T27.5 13l-.5-.5q-.25-.25-.625-.375t-.25-.5q.125-.375.375-.625l.5-.5.5-.5q.25-.25.375-.625T28 8.5v-1-1-1-1q0-.5-.125-.875t-.5-.5-.5-.5-.5-.5Q26 2 25.5 2h-3q-.5 0-.875.125T21 2.5l-.5.5-.5.5-.5.5-.5.5-.5.5-.5.5-.5.5q-.25.25-.375.625t-.5.25Q16.25 6.75 16 6.5t-.625-.375q-.375-.125-.5-.5T14.5 5l-.5-.5q-.25-.25-.625-.375T12.5 4h-3q-.5 0-.875.125T8 4.5l-.5.5-.5.5-.5.5-.5.5-.5.5-.5.5-.5.5-.5.5-.5.5q-.25.25-.375.625T3 10.5v2q0 .5.125.875T3.5 14l.5.5.5.5.5.5.5.5.5.5.5.5q.25.25.375.625t0 .75Q6.75 18.75 6.5 19l-.5.5-.5.5-.5.5-.5.5-.5.5-.5.5q-.25.25-.375.625T3 23.5v2q0 .5.125.875T3.5 27l.5.5.5.5.5.5q.25.25.625.375T6.5 29h2q.5 0 .875-.125T10 28.5l.5-.5.5-.5.5-.5.5-.5q.25-.25.625-.375t.75 0q.375.125.625.375l.5.5.5.5.5.5.5.5q.25.25.625.375T17.5 29h4" fill="none"/><path d="M21 2.5q.25-.25.625-.375T22.5 2h3q.5 0 .875.125t.5.5L27 3l-.0938-.2813-.0937-.2812.0625.1875q.0625.1875.1875.3125l.125.125L27.125 3l-.0625-.0625-.4063.1563Q26.25 3.25 26 3.5l-.5.5-.5.5-.5.5-.5.5-.5.5-.5.5-.5.5-.5.5-.5.5-.5.5-.5.5-.5.5-.5.5-.5.5-.5.5-.5.5-.5.5-.5.5-.5.5-.5.5-.5.5-.5.5-.5.5-.5.5-.5.5-.5.5q-.25.25-.625.375t-.75 0q-.375-.125-.5-.5T11 15.5q0-.5.125-.875T11.5 14l.5-.5.5-.5.5-.5.5-.5.5-.5.5-.5.5-.5.5-.5.5-.5.5-.5q.25-.25.375-.625t.0781-.9219l-.0468-.5469-.0782.047L16.75 7l.1563-.0938q.1562-.0937.2187-.2812l.0625-.1875-.0938.2813L17 7l.125-.375Q17.25 6.25 17.5 6l.5-.5.5-.5.5-.5.5-.5.5-.5.5-.5.5-.5" fill="#fff3d6"/><path d="M26 3.5q.25-.25.6563-.4063l.4062-.1562L27 2.875l-.0625-.0625.125.125q.125.125.3125.1875l.1875.0625-.2813-.0938L27 3l.375.125q.375.125.5.5T28 4.5V6l-.375.125Q27.25 6.25 27 6.5l-.5.5-.5.5-.5.5-.5.5-.5.5-.5.5-.5.5-.5.5-.5.5-.5.5-.5.5-.5.5-.5.5-.5.5-.5.5-.5.5-.5.5-.5.5-.5.5-.5.5-.5.5-.5.5-.5.5-.5.5-.5.5-.5.5-.5.5-.5.5-.5.5-.5.5-.5.5-.5.5-.5.5-.5.5-.5.5-.5.5q-.25.25-.625.375T7.5 25H3v-.5-1q0-.5.125-.875T3.5 22l.5-.5.5-.5.5-.5.5-.5.5-.5.5-.5q.25-.25.375-.625L7 18l-.0938.2813-.0937.2812.0625-.1875q.0625-.1875.0625-.375v-.1875V18l.4063-.125Q7.75 17.75 8 17.5l.5-.5.5-.5.5-.5.5-.5q.25-.25.6406-.3594l.3907-.1093.0156-.1094.0156-.1094-.0313.2188Q11 15.25 11 15.5v.25V15v.5q0 .5.125.875t.5.5q.375.125.75 0T13 16.5l.5-.5.5-.5.5-.5.5-.5.5-.5.5-.5.5-.5.5-.5.5-.5.5-.5.5-.5.5-.5.5-.5.5-.5.5-.5.5-.5.5-.5.5-.5.5-.5.5-.5.5-.5.5-.5.5-.5.5-.5.5-.5.5-.5M3 24.625v.625V25v-.75.375m25-18.5V5.25v1-.125" fill="#ffd59e"/><path d="M8 4.5q.25-.25.625-.375T9.5 4H13h-.75.25q.25 0 .4688.0313l.2187.0312-.1094-.0156-.1093-.0156-.1094.3593Q12.75 4.75 12.5 5l-.5.5-.5.5-.5.5-.5.5-.5.5-.5.5-.5.5-.5.5-.5.5q-.25.25-.625.375T6.5 10h-2q-.5 0-.9844.0156l-.4844.0157-.0156.1093L3 10.25l.0313-.2188q.0312-.2187.0937-.4062l.0625-.1875-.0938.2813L3 10l.125-.375Q3.25 9.25 3.5 9l.5-.5.5-.5.5-.5.5-.5.5-.5.5-.5.5-.5.5-.5.5-.5" fill="#fff3d6"/><path d="M12.8594 4.3906l.1093-.3594-.1093-.0156L12.75 4l.2188.0313q.2187.0312.4062.0937l.1875.0625-.2813-.0938L13 4l.375.125q.375.125.625.375l.5.5q.25.25.375.625L15 6l-.0938-.2813-.0937-.2812.0625.1875q.0625.1875.1875.3125l.125.125L15.125 6l-.0625-.0625-.1563.4063Q14.75 6.75 14.5 7l-.5.5-.5.5-.5.5-.5.5-.5.5-.5.5-.5.5-.5.5-.5.5-.5.5-.5.5q-.25.25-.625.375T7.5 13h-3q-.5 0-.9844-.0156l-.4844-.0157.0157.1094.0156.1094-.0313-.2188Q3 12.75 3 12.5v-.25.75-.5-1V10v.75-.25q0-.25.0313-.4688l.0312-.2187-.0156.1094-.0156.1093.4843-.0156Q4 10 4.5 10h2q.5 0 .875-.125T8 9.5l.5-.5.5-.5.5-.5.5-.5.5-.5.5-.5.5-.5.5-.5.5-.5q.25-.25.3594-.6094" fill="#ffd59e"/><path d="M14.9063 6.3438l.1562-.4063L15 5.875l-.0625-.0625.125.125q.125.125.3125.1875l.1875.0625-.2813-.0938L15 6l.375.125q.375.125.625.375t.625.375L17 7h-.75.25q.25 0 .4063-.0938l.1562-.0937-.0781.0469-.0782.0469.047.5468Q17 8 16.875 8.375T16.5 9l-.5.5-.5.5-.5.5-.5.5-.5.5-.5.5-.5.5-.5.5-.5.5-.5.5q-.25.25-.375.625L11 15l.0938-.2813.0937-.2812-.0625.1875q-.0625.1875-.0938.4063L11 15.25l.0156-.1094.0157-.1093-.3907.1093Q10.25 15.25 10 15.5l-.5.5-.5.5-.5.5-.5.5q-.25.25-.6563.375L6.9375 18v.1875V18q0-.1875-.0625-.375l-.0625-.1875.0938.2813L7 18l-.125-.375Q6.75 17.25 6.5 17l-.5-.5-.5-.5-.5-.5-.5-.5-.5-.5-.5-.5q-.25-.25-.375-.625L3 13l.0938.2813.0937.2812-.0625-.1875q-.0625-.1875-.0938-.4063L3 12.75l.0156.1094.0156.1093.4844.0157Q4 13 4.5 13h3q.5 0 .875-.125T9 12.5l.5-.5.5-.5.5-.5.5-.5.5-.5.5-.5.5-.5.5-.5.5-.5.5-.5.5-.5q.25-.25.4063-.6563M27 6.5q.25-.25.625-.375L28 6v2.5q0 .5-.125.875T27.5 10l-.5.5-.5.5q-.25.25-.375.625L26 12v-.75.25q0 .25.0938.4063l.0937.1562-.0469-.0781-.0468-.0782-.422.172Q25.25 12.25 25 12.5l-.5.5-.5.5-.5.5-.5.5-.5.5-.5.5-.5.5-.5.5-.5.5-.5.5-.5.5-.5.5-.5.5-.5.5-.5.5q-.25.25-.3594.6406l-.1093.3907.1093-.0157L17.25 21l-.2188.0313q-.2187.0312-.4062.0937l-.1875.0625.2813-.0938L17 21l-.375.125q-.375.125-.625.375l-.5.5q-.25.25-.375.625t0 .75q.125.375.375.625l.5.5q.25.25.625.375T17.5 25h3q.5 0 .875-.125T22 24.5l.5-.5.5-.5.5-.5.5-.5.5-.5.5-.5.5-.5.5-.5.5-.5.5-.5q.25-.25.625-.375L28 19v3.5q0 .5-.125.875T27.5 24l-.5.5-.5.5-.5.5-.5.5-.5.5-.5.5-.5.5-.5.5-.5.5q-.25.25-.625.375T21.5 29h-4q-.5 0-.875-.125T16 28.5l-.5-.5-.5-.5-.5-.5-.5-.5q-.25-.25-.625-.375t-.75 0q-.375.125-.625.375l-.5.5-.5.5-.5.5-.5.5q-.25.25-.625.375T8.5 29h-2q-.5 0-.875-.125T5 28.5l-.5-.5-.5-.5-.5-.5q-.25-.25-.375-.625T3 25.5V25h4.5q.5 0 .875-.125T9 24.5l.5-.5.5-.5.5-.5.5-.5.5-.5.5-.5.5-.5.5-.5.5-.5.5-.5.5-.5.5-.5.5-.5.5-.5.5-.5.5-.5.5-.5.5-.5.5-.5.5-.5.5-.5.5-.5.5-.5.5-.5.5-.5.5-.5.5-.5.5-.5.5-.5.5-.5.5-.5.5-.5.5-.5.5-.5.5-.5.5-.5M3 24.875v.875-.25-.75.125m25-5.5v-.625 1-.375m0-13V5.75v1-.375" fill="#f19583"/><path d="M25 12.5q.25-.25.6719-.4219l.4218-.1718-.0468-.0782L26 11.75l.0938.1563q.0937.1562.2812.2187l.1875.0625-.2813-.0938L26 12l.375.125q.375.125.625.375l.5.5q.25.25.375.625T28 14.5v.5l-.375.125q-.375.125-.625.375l-.5.5-.5.5-.5.5-.5.5-.5.5-.5.5-.5.5-.5.5-.5.5-.5.5q-.25.25-.625.375T20.5 21H17h.75-.25q-.25 0-.4688.0313l-.2187.0312.1094-.0156.1093-.0157.1094-.3906Q17.25 20.25 17.5 20l.5-.5.5-.5.5-.5.5-.5.5-.5.5-.5.5-.5.5-.5.5-.5.5-.5.5-.5.5-.5.5-.5.5-.5.5-.5m3 2.625v-.875 1-.125" fill="#fff3d6"/><path d="M27 15.5q.25-.25.625-.375L28 15v4l-.375.125q-.375.125-.625.375l-.5.5-.5.5-.5.5-.5.5-.5.5-.5.5-.5.5-.5.5-.5.5-.5.5q-.25.25-.625.375T20.5 25h-3q-.5 0-.875-.125T16 24.5l-.5-.5q-.25-.25-.375-.625t0-.75q.125-.375.375-.625l.5-.5q.25-.25.625-.375T17.5 21h3q.5 0 .875-.125T22 20.5l.5-.5.5-.5.5-.5.5-.5.5-.5.5-.5.5-.5.5-.5.5-.5.5-.5m1 3.625v-.875 1-.125m0-3.75v-.625 1-.375" fill="#ffd59e"/></svg>