<svg xmlns="http://www.w3.org/2000/svg" viewBox="0 -0.5 32 32" shape-rendering="crispEdges">
<metadata>Made with Pixels to Svg https://codepen.io/shshaw/pen/XbxvNj</metadata>
<path stroke="#cbd97f" d="M14 2h4M13 3h6M12 4h3M17 4h3M11 5h3M18 5h3M10 6h4M19 6h3M9 7h6M20 7h3M8 8h8M21 8h3M7 9h10M22 9h3M6 10h12M23 10h3M5 11h14M24 11h3M4 12h16M24 12h4M4 13h17M23 13h5M5 14h22M6 15h20M7 16h18M8 17h16M9 18h14M10 19h12M11 20h10M12 21h8M13 22h6M14 23h4" />
<path stroke="#edf3a9" d="M15 4h2M14 5h4M14 6h5M15 7h5M16 8h5M17 9h5M18 10h5M19 11h5M20 12h4M21 13h2" />
<path stroke="#9cb664" d="M4 14h1M27 14h1M4 15h2M26 15h2M4 16h3M25 16h3M4 17h4M24 17h4M4 18h5M23 18h5M4 19h6M22 19h6M5 20h6M21 20h6M6 21h6M20 21h6M7 22h6M19 22h6M8 23h6M18 23h6M9 24h14M10 25h12M11 26h10M12 27h8M13 28h6M14 29h4" />
</svg>