<svg xmlns="http://www.w3.org/2000/svg" viewBox="0 0 32 32"><path d="M0 .5V0h32v32H0V.5M22.5 28q.5 0 .875-.125T24 27.5l.5-.5.5-.5.5-.5.5-.5.5-.5.5-.5.5-.5q.25-.25.375-.625T28 22.5v-1-1-1-1-1-1-1-1-1-1-1-1-1q0-.5-.125-.875T27.5 8l-.5-.5-.5-.5-.5-.5-.5-.5-.5-.5-.5-.5-.5-.5q-.25-.25-.625-.375T22.5 4h-13q-.5 0-.875.125T8 4.5l-.5.5-.5.5-.5.5-.5.5-.5.5-.5.5-.5.5q-.25.25-.375.625T4 9.5v13q0 .5.125.875T4.5 24l.5.5.5.5.5.5.5.5.5.5.5.5.5.5q.25.25.625.375T9.5 28h13" fill="none"/><path d="M8 4.5q.25-.25.625-.375T9.5 4H13l.125.375q.125.375.375.625l.5.5.5.5.5.5.5.5.5.5.5.5.5.5.5.5.5.5.5.5.5.5.5.5.5.5.5.5.5.5.5.5.5.5.5.5q.25.25.375.625T23 15.5v4q0 .5-.125.875T22.5 21l-.5.5-.5.5-.5.5-.5.5-.5.5-.5.5-.5.5-.5.5-.5.5-.5.5-.5.5q-.25.25-.625.375L16 27v1H9.5q-.5 0-.875-.125T8 27.5l-.5-.5-.5-.5-.5-.5-.5-.5-.5-.5-.5-.5-.5-.5q-.25-.25-.375-.625T4 22.5v-1-1-1-1-1-1-1-1-1-1-1-1-1q0-.5.125-.875T4.5 8l.5-.5.5-.5.5-.5.5-.5.5-.5.5-.5.5-.5M15.625 28h.625-1 .375m0-1.125L16 27v-.5-1-1-1q0-.5-.125-.875T15.5 22l-.5-.5-.5-.5-.5-.5-.5-.5q-.25-.25-.375-.625T13 18.5q0-.5.125-.875T13.5 17l.5-.5.5-.5.5-.5.5-.5q.25-.25.375-.625t0-.75Q15.75 13.25 15.5 13l-.5-.5-.5-.5-.5-.5-.5-.5q-.25-.25-.375-.625T13 9.5v-1-1-1q0-.5-.125-.875t-.5-.5q-.375-.125-.75 0T11 5.5l-.5.5-.5.5-.5.5-.5.5-.5.5q-.25.25-.375.625T8 9.5q0 .5.125.875T8.5 11l.5.5.5.5.5.5.5.5q.25.25.375.625t0 .75q-.125.375-.375.625l-.5.5-.5.5-.5.5-.5.5q-.25.25-.375.625T8 18.5q0 .5.125.875T8.5 20l.5.5.5.5.5.5.5.5.5.5.5.5.5.5.5.5.5.5.5.5.5.5.5.5.5.5q.25.25.625.375M13.125 4h-.875 1-.125" fill="#d37f47"/><path d="M13.125 4.375L13 4h9.5q.5 0 .875.125T24 4.5l.5.5.5.5.5.5.5.5.5.5.5.5.5.5q.25.25.375.625T28 9.5v13q0 .5-.125.875T27.5 24l-.5.5-.5.5-.5.5-.5.5-.5.5-.5.5-.5.5q-.25.25-.625.375T22.5 28H16v-1l.375-.125q.375-.125.625-.375l.5-.5.5-.5.5-.5.5-.5.5-.5.5-.5.5-.5.5-.5.5-.5.5-.5.5-.5q.25-.25.375-.625T23 19.5v-1-1-1-1q0-.5-.125-.875T22.5 14l-.5-.5-.5-.5-.5-.5-.5-.5-.5-.5-.5-.5-.5-.5-.5-.5-.5-.5-.5-.5-.5-.5-.5-.5-.5-.5-.5-.5-.5-.5-.5-.5-.5-.5-.5-.5q-.25-.25-.375-.625M15.875 28h.875-1 .125m-2.5-24h-.625 1-.375" fill="#ffaa5f"/><path d="M11 5.5q.25-.25.625-.375t.75 0q.375.125.5.5T13 6.5v3q0 .5.125.875T13.5 11l.5.5.5.5.5.5.5.5q.25.25.375.625t0 .75q-.125.375-.375.625l-.5.5-.5.5-.5.5-.5.5q-.25.25-.375.625T13 18.5q0 .5.125.875T13.5 20l.5.5.5.5.5.5.5.5q.25.25.375.625T16 23.5V27l-.375-.125Q15.25 26.75 15 26.5l-.5-.5-.5-.5-.5-.5-.5-.5-.5-.5-.5-.5-.5-.5-.5-.5-.5-.5-.5-.5-.5-.5-.5-.5-.5-.5q-.25-.25-.375-.625T8 18.5q0-.5.125-.875T8.5 17l.5-.5.5-.5.5-.5.5-.5q.25-.25.375-.625t0-.75Q10.75 13.25 10.5 13l-.5-.5-.5-.5-.5-.5-.5-.5q-.25-.25-.375-.625T8 9.5q0-.5.125-.875T8.5 8l.5-.5.5-.5.5-.5.5-.5.5-.5" fill="#ffaa5f"/></svg>