<svg xmlns="http://www.w3.org/2000/svg" viewBox="0 0 32 32"><path d="M0 .5V0h32v32H0V.5M22.5 28l.9-.1q.4-.1.6-.4l.5-.5.5-.5.5-.5.5-.5.5-.5.5-.5.5-.5.4-.6.1-.9v-13l-.1-.9q-.1-.4-.4-.6l-.5-.5-.5-.5-.5-.5-.5-.5-.5-.5-.5-.5-.5-.5-.6-.4-.9-.1h-13l-.9.1q-.4.1-.6.4l-.5.5-.5.5-.5.5-.5.5-.5.5-.5.5-.5.5-.4.6-.1.9v13l.1.9q.1.4.4.6l.5.5.5.5.5.5.5.5.5.5.5.5.5.5.6.4.9.1h13" fill="none"/><path d="m8 4.5.6-.4.9-.1H13l.1.4.4.6.5.5.5.5.5.5.5.5.5.5.5.5.5.5.5.5.5.5.5.5.5.5.5.5.5.5.5.5.5.5.5.5.5.5.5.5.4.6.1.9v4l-.1.9q-.1.4-.4.6l-.5.5-.5.5-.5.5-.5.5-.5.5-.5.5-.5.5-.5.5-.5.5-.5.5-.5.5-.6.4-.4.1v1H9.5l-.9-.1q-.4-.1-.6-.4l-.5-.5-.5-.5-.5-.5-.5-.5-.5-.5-.5-.5-.5-.5-.4-.6-.1-.9v-13l.1-.9q.1-.4.4-.6l.5-.5.5-.5.5-.5.5-.5.5-.5.5-.5.5-.5M15.6 28h.7-1 .3m0-1.1.4.1v-3.5l-.1-.9q-.1-.4-.4-.6l-.5-.5-.5-.5-.5-.5-.5-.5-.4-.6-.1-.9.1-.9q.1-.4.4-.6l.5-.5.5-.5.5-.5.5-.5.4-.6v-.8l-.4-.6-.5-.5-.5-.5-.5-.5-.5-.5-.4-.6-.1-.9v-3l-.1-.9q-.1-.4-.5-.5-.4-.1-.8 0t-.6.4l-.5.5-.5.5-.5.5-.5.5-.5.5-.4.6-.1.9.1.9q.1.4.4.6l.5.5.5.5.5.5.5.5.4.6v.8l-.4.6-.5.5-.5.5-.5.5-.5.5-.4.6-.1.9.1.9q.1.4.4.6l.5.5.5.5.5.5.5.5.5.5.5.5.5.5.5.5.5.5.5.5.5.5.5.5.5.5.6.4M13.1 4h-.8 1-.2" fill="#d37f47"/><path d="M13.1 4.4 13 4h9.5l.9.1q.4.1.6.4l.5.5.5.5.5.5.5.5.5.5.5.5.5.5.4.6.1.9v13l-.1.9q-.1.4-.4.6l-.5.5-.5.5-.5.5-.5.5-.5.5-.5.5-.5.5-.6.4-.9.1H16v-1l.4-.1q.4-.1.6-.4l.5-.5.5-.5.5-.5.5-.5.5-.5.5-.5.5-.5.5-.5.5-.5.5-.5.5-.5.4-.6.1-.9v-4l-.1-.9q-.1-.4-.4-.6l-.5-.5-.5-.5-.5-.5-.5-.5-.5-.5-.5-.5-.5-.5-.5-.5-.5-.5-.5-.5-.5-.5-.5-.5-.5-.5-.5-.5-.5-.5-.5-.5-.5-.5-.5-.5-.4-.6M16 28h.8-1 .2M13.4 4h-.7 1-.3" fill="#ffaa5f"/><path d="m11 5.5.6-.4h.8l.5.5q.2.3.1.9v3l.1.9q.1.4.4.6l.5.5.5.5.5.5.5.5.4.6v.8l-.4.6-.5.5-.5.5-.5.5-.5.5-.4.6-.1.9.1.9q.1.4.4.6l.5.5.5.5.5.5.5.5.4.6.1.9V27l-.4-.1-.6-.4-.5-.5-.5-.5-.5-.5-.5-.5-.5-.5-.5-.5-.5-.5-.5-.5-.5-.5-.5-.5-.5-.5-.5-.5-.5-.5-.4-.6-.1-.9.1-.9q.1-.4.4-.6l.5-.5.5-.5.5-.5.5-.5.4-.6v-.8l-.4-.6-.5-.5-.5-.5-.5-.5-.5-.5-.4-.6-.1-.9.1-.9q.1-.4.4-.6l.5-.5.5-.5.5-.5.5-.5.5-.5" fill="#ffaa5f"/></svg>