<svg xmlns="http://www.w3.org/2000/svg" viewBox="0 -0.5 32 32" shape-rendering="crispEdges">
<metadata>Made with Pixels to Svg https://codepen.io/shshaw/pen/XbxvNj</metadata>
<path stroke="#d3ae8d" d="M12 4h2M11 5h3M10 6h4M9 7h5M8 8h6M7 9h7M6 10h7M5 11h7M4 12h7M17 12h2M4 13h6M16 13h4M4 14h5M15 14h5M4 15h4M14 15h5M4 16h4M13 16h5M4 17h4M12 17h5M4 18h4M12 18h5M4 19h4M13 19h5M4 20h5M14 20h5M4 21h6M15 21h5M4 22h7M16 22h4M5 23h7M17 23h2M6 24h7M7 25h7M8 26h7M9 27h7" />
<path stroke="#f7cba4" d="M14 4h6M14 5h7M14 6h8M14 7h9M14 8h10M14 9h11M13 10h13M12 11h15M11 12h6M19 12h9M10 13h6M20 13h8M9 14h6M20 14h8M8 15h6M19 15h9M8 16h5M18 16h10M8 17h4M17 17h11M8 18h4M17 18h11M8 19h5M18 19h10M9 20h5M19 20h9M10 21h5M20 21h8M11 22h5M20 22h8M12 23h5M19 23h8M13 24h13M14 25h11M15 26h9M16 27h7" />
</svg>