<svg xmlns="http://www.w3.org/2000/svg" viewBox="0 0 32 32"><path d="M0 .5V0h32v32H0V.5M9.5 12l.9-.1q.4-.1.6-.4l.5-.5.4-.6.1-.9v-3l-.1-.9q-.1-.4-.4-.6l-.5-.5-.6-.4-.9-.1h-3l-.9.1q-.4.1-.6.4l-.5.5-.4.6-.1.9v2l.1.9q.1.4.4.6l.5.5.5.5.5.5.6.4.9.1h2m-2 16 .9-.1q.4-.1.6-.4l.5-.5.5-.5.5-.5.5-.5.5-.5.5-.5.6-.4.9-.1h4l.9-.1q.4-.1.6-.4l.5-.5.5-.5.5-.5.5-.5.5-.5.5-.5.5-.5.5-.5.5-.5.5-.5.5-.5.5-.5.5-.5.5-.5.5-.5.5-.5.5-.5.5-.5.5-.5.4-.6.1-.9v-4l-.1-.9q-.1-.4-.4-.6l-.5-.5-.6-.4q-.3 0-.5-.5l-.4-.6-.5-.5-.6-.4-.9-.1h-3l-.9.1q-.4.1-.6.4l-.5.5-.5.5-.5.5-.5.5-.5.5-.5.5-.5.5-.5.5-.5.5-.5.5-.5.5-.5.5-.5.5-.5.5-.5.5-.4.6q0 .3-.5.5l-.6.4-.5.5-.5.5-.5.5-.5.5-.5.5-.5.5-.5.5-.5.5-.5.5-.5.5-.5.5-.5.5-.5.5-.4.6-.1.9v4l.1.9q.1.4.4.6l.5.5.6.4.9.1h1" fill="none"/><path d="m5 4.5.6-.4.9-.1h3l.9.1q.4.1.6.4l.5.5.4.6.1.9V7l-.4.1-.6.4-.5.5-.5.5-.5.5-.5.5-.5.5-.5.5-.5.5-.4.6v.4h.2H7l-.4-.1h-.2.3l.3.1-.4-.1-.6-.4-.5-.5-.5-.5-.5-.5-.4-.6-.1-.9v-2l.1-.9q.1-.4.4-.6l.5-.5m7 2.6v-.8 1V7m8-2.6.6-.4.9-.1h3l.9.1q.4.1.6.4l.5.5.4.6.1.4v-.3l-.2-.3v.2l.3.3v.2V6l-.2.3q-.1.5-.4.7l-.5.5-.5.5-.5.5-.5.5-.5.5-.5.5-.5.5-.5.5-.5.5-.5.5-.5.5-.5.5-.5.5-.5.5-.5.5-.5.5-.5.5-.6.4-.9.1h-2l-.9-.1q-.4-.1-.6-.4l-.5-.5-.4-.6-.1-1V13l-.1.1.2-.4v-.2.3l-.1.3.1-.4.4-.6.5-.5.5-.5.5-.5.5-.5.5-.5.5-.5.5-.5.5-.5.5-.5.5-.5.5-.5.5-.5.5-.5.5-.5.5-.5" fill="#e0b28d"/><path d="M27 6.3V6l.4.2h.2-.3L27 6l.4.1.6.4.5.5.4.6.1.9V9h-.5q-.5 0-.5.5t-.5.5-.5.5-.5.5-.5.5-.5.5-.5.5-.5.5-.5.5-.5.5-.5.5-.5.5-.5.5-.5.5-.5.5-.5.5-.5.5-.5.5h-3q-.5 0-.5.5t-.5.5-.5.5-.5.5-.5.5-.5.5-.5.5-.5.5-.5.5l-.1.9q-.1.4.1.6l.3.3.1-.1h-.1l-.3.3-.1.1.2-.2.2-.1-.3.2-.5.5-.5.5-.5.5-.5.5-.5.5-.5.5-.6.4-.9.1h-1l-.9-.1q-.4-.1-.6-.4l-.5-.5-.4-.6-.1-.9v-4l.1-.9q.1-.4.4-.6l.5-.5.5-.5.5-.5.5-.5.5-.5.5-.5.5-.5.5-.5.5-.5.5-.5.5-.5.5-.5.5-.5.6-.4.4-.1h-.3l-.3.2h.2l.3-.3h.2-.1v.6l.1.9q.1.4.4.6l.5.5.6.4.9.1h2l.9-.1q.4-.1.6-.4l.5-.5.5-.5.5-.5.5-.5.5-.5.5-.5.5-.5.5-.5.5-.5.5-.5.5-.5.5-.5.5-.5.5-.5.5-.5.5-.5.5-.5q.3-.3.4-.7M11 7.5l.6-.4.4-.1v2.5l-.1.9q-.1.4-.4.6l-.5.5-.6.4-.9.1H7h.8-1H7l.1-.4.4-.6.5-.5.5-.5.5-.5.5-.5.5-.5.5-.5.5-.5m1-.1v-.7 1-.3" fill="#9b928b"/><path d="M28 9.5q0-.5.5-.5h.5v3.5l-.1.9q-.1.4-.4.6l-.5.5-.5.5-.5.5-.5.5-.5.5-.5.5-.5.5-.5.5-.5.5-.5.5-.5.5-.5.5-.5.5-.5.5-.5.5-.5.5-.5.5-.5.5-.5.5-.6.4-.9.1h-4l-.9.1-.3.1h.2l.3-.1h-.2q-.2 0-.3.2H12h.1L12 24q-.3-.3-.1-.6l.1-.9q0-.5.5-.5t.5-.5.5-.5.5-.5.5-.5.5-.5.5-.5.5-.5.5-.5h3q.5 0 .5-.5t.5-.5.5-.5.5-.5.5-.5.5-.5.5-.5.5-.5.5-.5.5-.5.5-.5.5-.5.5-.5.5-.5.5-.5.5-.5.5-.5" fill="#666"/></svg>