<svg xmlns="http://www.w3.org/2000/svg" viewBox="0 -0.5 32 32" shape-rendering="crispEdges">
<metadata>Made with Pixels to Svg https://codepen.io/shshaw/pen/XbxvNj</metadata>
<path stroke="#e0b28d" d="M5 4h6M20 4h6M4 5h8M19 5h8M4 6h8M18 6h9M4 7h7M17 7h9M4 8h6M16 8h9M4 9h5M15 9h9M5 10h3M14 10h9M6 11h1M13 11h9M12 12h9M12 13h8M12 14h7M13 15h5" />
<path stroke="#9b928b" d="M27 6h1M11 7h1M26 7h3M10 8h2M25 8h4M9 9h3M24 9h4M8 10h4M23 10h4M7 11h4M22 11h4M21 12h4M11 13h1M20 13h4M10 14h2M19 14h4M9 15h4M18 15h4M8 16h13M7 17h13M6 18h10M5 19h10M4 20h10M4 21h9M4 22h8M4 23h8M4 24h8M4 25h7M4 26h6M5 27h4" />
<path stroke="#666666" d="M28 9h1M27 10h2M26 11h3M25 12h4M24 13h5M23 14h5M22 15h5M21 16h5M20 17h5M16 18h8M15 19h8M14 20h8M13 21h8M12 22h8M12 23h7" />
</svg>