<svg xmlns="http://www.w3.org/2000/svg" viewBox="0 0 32 32"><path d="M0 .5V0h32v32H0V.5M9.5 12q.5 0 .875-.125T11 11.5l.5-.5q.25-.25.375-.625T12 9.5v-1-1-1q0-.5-.125-.875T11.5 5l-.5-.5q-.25-.25-.625-.375T9.5 4h-3q-.5 0-.875.125T5 4.5l-.5.5q-.25.25-.375.625T4 6.5v2q0 .5.125.875T4.5 10l.5.5.5.5.5.5q.25.25.625.375T7.5 12h2m-2 16q.5 0 .875-.125T9 27.5l.5-.5.5-.5.5-.5.5-.5.5-.5.5-.5q.25-.25.625-.375T13.5 24h4q.5 0 .875-.125T19 23.5l.5-.5.5-.5.5-.5.5-.5.5-.5.5-.5.5-.5.5-.5.5-.5.5-.5.5-.5.5-.5.5-.5.5-.5.5-.5.5-.5.5-.5.5-.5.5-.5q.25-.25.375-.625T29 12.5v-1-1-2q0-.5-.125-.875T28.5 7l-.5-.5q-.25-.25-.625-.375t-.5-.5Q26.75 5.25 26.5 5l-.5-.5q-.25-.25-.625-.375T24.5 4h-3q-.5 0-.875.125T20 4.5l-.5.5-.5.5-.5.5-.5.5-.5.5-.5.5-.5.5-.5.5-.5.5-.5.5-.5.5-.5.5-.5.5-.5.5-.5.5q-.25.25-.375.625t-.5.5q-.375.125-.625.375l-.5.5-.5.5-.5.5-.5.5-.5.5-.5.5-.5.5-.5.5-.5.5-.5.5-.5.5-.5.5-.5.5q-.25.25-.375.625T4 21.5v4q0 .5.125.875T4.5 27l.5.5q.25.25.625.375T6.5 28h1" fill="none"/><path d="M5 4.5q.25-.25.625-.375T6.5 4h3q.5 0 .875.125T11 4.5l.5.5q.25.25.375.625T12 6.5V7l-.375.125Q11.25 7.25 11 7.5l-.5.5-.5.5-.5.5-.5.5-.5.5-.5.5-.5.5q-.25.25-.3594.6094l-.1094.3593.1094.0157L7.25 12l-.2188-.0313q-.2187-.0312-.4062-.0937l-.1875-.0625.2813.0938L7 12l-.375-.125Q6.25 11.75 6 11.5l-.5-.5-.5-.5-.5-.5q-.25-.25-.375-.625T4 8.5v-1-1q0-.5.125-.875T4.5 5l.5-.5m7 2.625V6.25v1-.125M20 4.5q.25-.25.625-.375T21.5 4h3q.5 0 .875.125T26 4.5l.5.5q.25.25.375.625L27 6l-.0938-.2813-.0937-.2812.0625.1875q.0625.1875.1875.3125l.125.125L27.125 6l-.0625-.0625-.1563.4063Q26.75 6.75 26.5 7l-.5.5-.5.5-.5.5-.5.5-.5.5-.5.5-.5.5-.5.5-.5.5-.5.5-.5.5-.5.5-.5.5-.5.5-.5.5-.5.5-.5.5q-.25.25-.625.375T16.5 16h-2q-.5 0-.875-.125T13 15.5l-.5-.5q-.25-.25-.375-.625t-.1563-.9063l-.0312-.5312L11.875 13l-.0625.0625.125-.125q.125-.125.1875-.3125l.0625-.1875-.0938.2813L12 13l.125-.375q.125-.375.375-.625l.5-.5.5-.5.5-.5.5-.5.5-.5.5-.5.5-.5.5-.5.5-.5.5-.5.5-.5.5-.5.5-.5.5-.5.5-.5" fill="#e0b28d"/><path d="M26.9063 6.3438l.1562-.4063L27 5.875l-.0625-.0625.125.125q.125.125.3125.1875l.1875.0625-.2813-.0938L27 6l.375.125q.375.125.625.375l.5.5q.25.25.375.625T29 8.5V9h-.5q-.5 0-.5.5t-.5.5-.5.5-.5.5-.5.5-.5.5-.5.5-.5.5-.5.5-.5.5-.5.5-.5.5-.5.5-.5.5-.5.5-.5.5-.5.5-.5.5h-3q-.5 0-.5.5t-.5.5-.5.5-.5.5-.5.5-.5.5-.5.5-.5.5-.5.5q0 .5-.125.875t.1406.6406l.2657.2657.078-.047.0782-.0468-.1562.0938Q12.125 24.375 12 24.5l-.125.125.1875-.1875.1875-.1875-.25.25-.5.5-.5.5-.5.5-.5.5-.5.5-.5.5q-.25.25-.625.375T7.5 28h-1q-.5 0-.875-.125T5 27.5l-.5-.5q-.25-.25-.375-.625T4 25.5v-1-1-1-1q0-.5.125-.875T4.5 20l.5-.5.5-.5.5-.5.5-.5.5-.5.5-.5.5-.5.5-.5.5-.5.5-.5.5-.5.5-.5.5-.5q.25-.25.625-.375L12 13l-.2813.0938-.2812.0937.1875-.0625q.1875-.0625.3125-.1875l.125-.125L12 12.875l-.0625.0625.0313.5313Q12 14 12.125 14.375T12.5 15l.5.5q.25.25.625.375T14.5 16h2q.5 0 .875-.125T18 15.5l.5-.5.5-.5.5-.5.5-.5.5-.5.5-.5.5-.5.5-.5.5-.5.5-.5.5-.5.5-.5.5-.5.5-.5.5-.5.5-.5.5-.5q.25-.25.4063-.6563M11 7.5q.25-.25.625-.375L12 7v2.5q0 .5-.125.875T11.5 11l-.5.5q-.25.25-.625.375T9.5 12H7h.75-.25q-.25 0-.4688-.0313l-.2187-.0312.1094.0156.1094.0157.1093-.3594Q7.25 11.25 7.5 11l.5-.5.5-.5.5-.5.5-.5.5-.5.5-.5.5-.5m1-.125V6.75v1-.375" fill="#9b928b"/><path d="M28 9.5q0-.5.5-.5h.5v3.5q0 .5-.125.875T28.5 14l-.5.5-.5.5-.5.5-.5.5-.5.5-.5.5-.5.5-.5.5-.5.5-.5.5-.5.5-.5.5-.5.5-.5.5-.5.5-.5.5-.5.5-.5.5-.5.5q-.25.25-.625.375T17.5 24h-4q-.5 0-.875.125l-.375.125.2813-.0938.2812-.0937-.1875.0625q-.1875.0625-.3438.1563l-.1562.0937.0781-.0469.0782-.0468-.2657-.2657q-.2656-.2656-.1406-.6406Q12 23 12 22.5t.5-.5.5-.5.5-.5.5-.5.5-.5.5-.5.5-.5.5-.5.5-.5h3q.5 0 .5-.5t.5-.5.5-.5.5-.5.5-.5.5-.5.5-.5.5-.5.5-.5.5-.5.5-.5.5-.5.5-.5.5-.5.5-.5.5-.5.5-.5" fill="#666"/></svg>