<svg xmlns="http://www.w3.org/2000/svg" viewBox="0 -0.5 32 32" shape-rendering="crispEdges">
<metadata>Made with Pixels to Svg https://codepen.io/shshaw/pen/XbxvNj</metadata>
<path stroke="#767a84" d="M13 4h4M20 4h3M12 5h4M21 5h3M11 6h5M22 6h3M10 7h6M23 7h3M9 8h7M24 8h3M8 9h4M13 9h4M24 9h4M8 10h4M14 10h4M24 10h4M8 11h4M15 11h4M24 11h4M8 12h4M16 12h4M24 12h4M8 13h4M16 13h4M24 13h4M8 14h4M16 14h4M24 14h4M8 15h4M16 15h4M24 15h4M8 16h4M17 16h4M24 16h4M8 17h4M18 17h4M24 17h4M8 18h4M19 18h4M24 18h4M9 19h3M20 19h7M10 20h3M20 20h6M11 21h3M20 21h5M12 22h3M20 22h4M13 23h3M19 23h4" />
<path stroke="#8e9097" d="M17 4h3M16 5h5M16 6h6M16 7h7M16 8h8M12 9h1M17 9h7M12 10h2M18 10h6M12 11h3M19 11h5M12 12h4M20 12h4M12 13h4M20 13h4M12 14h4M20 14h4M12 15h4M20 15h4M12 16h5M21 16h3M12 17h6M22 17h2M12 18h7M23 18h1M12 19h8M13 20h7M14 21h6M15 22h5M16 23h3" />
<path stroke="#3a3a50" d="M7 11h1M6 12h2M5 13h3M5 14h3M5 15h3M5 16h3M5 17h3M5 18h3M5 19h4M5 20h5M5 21h6M25 21h1M5 22h7M24 22h2M6 23h7M23 23h3M7 24h18M8 25h16M9 26h14M10 27h12" />
</svg>