<svg xmlns="http://www.w3.org/2000/svg" viewBox="0 0 32 32"><path d="M0 .5V0h32v32H0V.5M20.5 28l.9-.1q.4-.1.6-.4l.5-.5.5-.5.5-.5.5-.5.5-.5.5-.5.5-.5.4-.6.1-.9v-1l.1-.9q.1-.4.4-.6l.5-.5.5-.5.4-.6.1-.9v-7l-.1-.9q-.1-.4-.4-.6l-.5-.5-.5-.5-.5-.5-.5-.5-.5-.5-.5-.5-.5-.5-.5-.5-.5-.5-.6-.4-.9-.1h-7l-.9.1q-.4.1-.6.4l-.5.5-.5.5-.5.5-.5.5-.5.5-.5.5-.5.5-.5.5-.5.5-.4.6-.1.9v.5l-.4.1-.6.4-.5.5-.5.5-.5.5-.4.6-.1.9v7l.1.9q.1.4.4.6l.5.5.5.5.5.5.5.5.5.5.5.5.5.5.5.5.5.5.6.4.9.1h9M8 11.1v-.8 1-.2" fill="none"/><path d="m13 4.5.6-.4.9-.1H17v.5q0 .5-.5.5t-.5.5v3q0 .5.5.5t.5.5.5.5.5.5.5.5.5.5.5.5.5.5v3q0 .5.5.5t.5.5.5.5.5.5.5.5.5.5.5.5q.5 0 .5-.5v-10q0-.5-.5-.5t-.5-.5-.5-.5-.5-.5-.5-.5-.5-.5-.5-.5-.5-.5V4h1.5l.9.1q.4.1.6.4l.5.5.5.5.5.5.5.5.5.5.5.5.5.5.5.5.5.5.4.6.1.9v7l-.1.9q-.1.4-.4.6l-.5.5-.5.5-.4.6-.1.4v-.3l.2-.3v.2l-.2.4v.3-.2h-.4q-.4.1-.6.4l-.5.5-.5.5-.5.5-.5.5-.6.4-.9.1H19v-.5q0-.5.5-.5t.5-.5v-3q0-.5-.5-.5t-.5-.5-.5-.5-.5-.5-.5-.5-.5-.5-.5-.5-.5-.5v-3q0-.5-.5-.5t-.5-.5-.5-.5-.5-.5-.5-.5-.5-.5-.5-.5q-.5 0-.5.5v10q0 .5.5.5t.5.5.5.5.5.5.5.5.5.5.5.5.5.5v.5h-1.5l-.9-.1q-.4-.1-.6-.4l-.5-.5-.5-.5-.5-.5-.5-.5-.5-.5-.5-.5-.5-.5-.5-.5-.5-.5-.4-.6-.1-.9v-7l.1-.9q.1-.4.4-.6l.5-.5.5-.5.5-.5.5-.5.5-.5.5-.5.5-.5.5-.5.5-.5" fill="#767a84"/><path d="M17 4.5V4h3v.5q0 .5.5.5t.5.5.5.5.5.5.5.5.5.5.5.5.5.5v10q0 .5-.5.5t-.5-.5-.5-.5-.5-.5-.5-.5-.5-.5-.5-.5-.5-.5v-3q0-.5-.5-.5t-.5-.5-.5-.5-.5-.5-.5-.5-.5-.5-.5-.5-.5-.5v-3q0-.5.5-.5t.5-.5m-5 5q0-.5.5-.5t.5.5.5.5.5.5.5.5.5.5.5.5.5.5v3q0 .5.5.5t.5.5.5.5.5.5.5.5.5.5.5.5.5.5v3q0 .5-.5.5t-.5.5v.5h-3v-.5q0-.5-.5-.5t-.5-.5-.5-.5-.5-.5-.5-.5-.5-.5-.5-.5-.5-.5v-10" fill="#8e9097"/><path d="m7 11.5.6-.4.4-.1v6.5l.1.9q.1.4.4.6l.5.5.5.5.5.5.5.5.5.5.5.5.5.5.5.5.5.5.6.4.9.1h7l.9-.1q.4-.1.6-.4l.5-.5.5-.5.5-.5.5-.5.6-.4h.4v-.2V21.7 21v1.5l-.1.9q-.1.4-.4.6l-.5.5-.5.5-.5.5-.5.5-.5.5-.5.5-.5.5-.6.4-.9.1h-9l-.9-.1q-.4-.1-.6-.4l-.5-.5-.5-.5-.5-.5-.5-.5-.5-.5-.5-.5-.5-.5-.5-.5-.5-.5-.4-.6-.1-.9v-7l.1-.9q.1-.4.4-.6l.5-.5.5-.5.5-.5m1-.1v-.7 1-.3" fill="#3a3a50"/></svg>