<svg xmlns="http://www.w3.org/2000/svg" viewBox="0 0 32 32"><path d="M0 .5V0h32v32H0V.5M20.5 28q.5 0 .875-.125T22 27.5l.5-.5.5-.5.5-.5.5-.5.5-.5.5-.5.5-.5q.25-.25.375-.625T26 22.5v-1q0-.5.125-.875T26.5 20l.5-.5.5-.5q.25-.25.375-.625T28 17.5v-1-1-1-1-1-1-1q0-.5-.125-.875T27.5 9l-.5-.5-.5-.5-.5-.5-.5-.5-.5-.5-.5-.5-.5-.5-.5-.5-.5-.5q-.25-.25-.625-.375T21.5 4h-7q-.5 0-.875.125T13 4.5l-.5.5-.5.5-.5.5-.5.5-.5.5-.5.5-.5.5-.5.5-.5.5q-.25.25-.375.625T8 10.5v.5l-.375.125Q7.25 11.25 7 11.5l-.5.5-.5.5-.5.5q-.25.25-.375.625T5 14.5v7q0 .5.125.875T5.5 23l.5.5.5.5.5.5.5.5.5.5.5.5.5.5.5.5.5.5q.25.25.625.375T11.5 28h9M8 11.125v-.875 1-.125" fill="none"/><path d="M13 4.5q.25-.25.625-.375T14.5 4H17v.5q0 .5-.5.5t-.5.5v3q0 .5.5.5t.5.5.5.5.5.5.5.5.5.5.5.5.5.5v3q0 .5.5.5t.5.5.5.5.5.5.5.5.5.5.5.5q.5 0 .5-.5v-1-1-1-1-1-1-1-1-1-1q0-.5-.5-.5t-.5-.5-.5-.5-.5-.5-.5-.5-.5-.5-.5-.5-.5-.5V4h1.5q.5 0 .875.125T23 4.5l.5.5.5.5.5.5.5.5.5.5.5.5.5.5.5.5.5.5q.25.25.375.625T28 10.5v7q0 .5-.125.875T27.5 19l-.5.5-.5.5q-.25.25-.375.625L26 21l.0938-.2813.0937-.2812-.0625.1875q-.0625.1875-.0938.4063L26 21.25l.0156-.1094.0157-.1093-.3907.1093Q25.25 21.25 25 21.5l-.5.5-.5.5-.5.5-.5.5q-.25.25-.625.375T21.5 24H19v-.5q0-.5.5-.5t.5-.5v-1-1-1q0-.5-.5-.5t-.5-.5-.5-.5-.5-.5-.5-.5-.5-.5-.5-.5-.5-.5v-1-1-1q0-.5-.5-.5t-.5-.5-.5-.5-.5-.5-.5-.5-.5-.5-.5-.5q-.5 0-.5.5v10q0 .5.5.5t.5.5.5.5.5.5.5.5.5.5.5.5.5.5v.5h-1.5q-.5 0-.875-.125T13 23.5l-.5-.5-.5-.5-.5-.5-.5-.5-.5-.5-.5-.5-.5-.5-.5-.5-.5-.5q-.25-.25-.375-.625T8 17.5v-1-1-1-1-1-1-1q0-.5.125-.875T8.5 9l.5-.5.5-.5.5-.5.5-.5.5-.5.5-.5.5-.5.5-.5.5-.5" fill="#767a84"/><path d="M17 4.5V4h3v.5q0 .5.5.5t.5.5.5.5.5.5.5.5.5.5.5.5.5.5v10q0 .5-.5.5t-.5-.5-.5-.5-.5-.5-.5-.5-.5-.5-.5-.5-.5-.5v-1-1-1q0-.5-.5-.5t-.5-.5-.5-.5-.5-.5-.5-.5-.5-.5-.5-.5-.5-.5v-1-1-1q0-.5.5-.5t.5-.5M12 9.5q0-.5.5-.5t.5.5.5.5.5.5.5.5.5.5.5.5.5.5v3q0 .5.5.5t.5.5.5.5.5.5.5.5.5.5.5.5.5.5v3q0 .5-.5.5t-.5.5v.5h-3v-.5q0-.5-.5-.5t-.5-.5-.5-.5-.5-.5-.5-.5-.5-.5-.5-.5-.5-.5v-1-1-1-1-1-1-1-1-1-1" fill="#8e9097"/><path d="M7 11.5q.25-.25.625-.375L8 11v6.5q0 .5.125.875T8.5 19l.5.5.5.5.5.5.5.5.5.5.5.5.5.5.5.5.5.5q.25.25.625.375T14.5 24h7q.5 0 .875-.125T23 23.5l.5-.5.5-.5.5-.5.5-.5q.25-.25.6406-.3594l.3907-.1093.0156-.1094.0156-.1094-.0313.2188Q26 21.25 26 21.5v.25V21v1.5q0 .5-.125.875T25.5 24l-.5.5-.5.5-.5.5-.5.5-.5.5-.5.5-.5.5q-.25.25-.625.375T20.5 28h-9q-.5 0-.875-.125T10 27.5l-.5-.5-.5-.5-.5-.5-.5-.5-.5-.5-.5-.5-.5-.5-.5-.5-.5-.5q-.25-.25-.375-.625T5 21.5v-1-1-1-1-1-1-1q0-.5.125-.875T5.5 13l.5-.5.5-.5.5-.5m1-.125v-.625 1-.375" fill="#3a3a50"/></svg>