<svg xmlns="http://www.w3.org/2000/svg" viewBox="0 0 32 32"><path d="M0 .5V0h32v32H0V.5M16.5 28l.9-.1q.4-.1.6-.4l.5-.5.5-.5.5-.5.5-.5.6-.4.9-.1.9-.1q.4-.1.6-.4l.5-.5.5-.5.5-.5.5-.5.5-.5.5-.5.5-.5.5-.5.5-.5.4-.6.1-.9v-6l-.1-.9q-.1-.4-.4-.6l-.5-.5-.6-.4q-.3 0-.5-.5l-.4-.6-.5-.5-.5-.5-.5-.5-.5-.5-.5-.5-.5-.5-.5-.5-.5-.5-.5-.5-.6-.4-.9-.1h-6l-.9.1q-.4.1-.6.4l-.5.5-.5.5-.5.5-.5.5-.5.5-.5.5-.5.5-.4.6-.1.9v6l-.1.9q-.1.4-.4.6l-.5.5-.5.5-.5.5-.5.5-.5.5-.5.5-.4.6-.1.9v5l.1.9q.1.4.5.5l.9.1h11" fill="none"/><path d="m12 4.5.6-.4.9-.1h6l.9.1q.4.1.6.4l.5.5.5.5.5.5.5.5.5.5.5.5.5.5.5.5.5.5.4.6.1.4v-.3l-.2-.3v.2l.3.3v.2-.1h-.4l-.7.5-.5.5-.5.5-.5.5-.5.5-.5.5-.5.5-.5.5-.5.5-.5.5-.5.5-.5.5-.5.5-.5.5-.5.5-.5.5-.5.5-.5.5-.5.5-.5.5-.5.5-.5.5-.5.5-.5.5-.5.5-.6.4-.9.1h-1l-.9.1q-.4.1-.6.4l-.5.5-.5.5-.5.5-.5.5-.6.4-.9.1H4v-4.5l.1-.9q.1-.4.4-.6l.5-.5.5-.5.5-.5.5-.5.5-.5.5-.5.4-.6.1-.9v-6l.1-.9q.1-.4.4-.6l.5-.5.5-.5.5-.5.5-.5.5-.5.5-.5.5-.5M4 25.6v.6-1 .4m9.6-9.7q.4.1.8 0t.6-.4l.5-.5.5-.5.5-.5.5-.5.5-.5.5-.5.5-.5.5-.5.5-.5.4-.6v-.8l-.4-.6-.5-.5-.6-.4h-.8l-.6.4-.5.5-.5.5-.5.5-.5.5-.5.5-.5.5-.5.5-.5.5-.5.5-.4.6v.8l.4.6.5.5.6.4" fill="#9e78dc"/><path d="m17 8.5.6-.4h.8l.6.4.5.5.4.6v.8l-.4.6-.5.5-.5.5-.5.5-.5.5-.5.5-.5.5-.5.5-.5.5-.5.5-.6.4h-.8l-.6-.4-.5-.5-.4-.6v-.8l.4-.6.5-.5.5-.5.5-.5.5-.5.5-.5.5-.5.5-.5.5-.5.5-.5m8 2q.3-.3.7-.4l.4-.2H26l.4.2h.2-.3L26 10l.4.1.6.4.5.5.4.6.1.9V15h-.5q-.5 0-.5.5t-.5.5-.5.5-.5.5-.5.5-.5.5-.5.5-.5.5-.5.5-.5.5-.5.5-.5.5-.5.5-.5.5h-2q-.5 0-.5.5t-.5.5-.5.5-.5.5-.5.5-.5.5h-5q-.5 0-.5.5t-.5.5-.5.5-.5.5-.5.5v.5H5.5l-.9-.1q-.4-.1-.5-.5l-.1-.9V26h1.5l.9-.1q.4-.1.6-.4l.5-.5.5-.5.5-.5.5-.5.6-.4.9-.1h1l.9-.1q.4-.1.6-.4l.5-.5.5-.5.5-.5.5-.5.5-.5.5-.5.5-.5.5-.5.5-.5.5-.5.5-.5.5-.5.5-.5.5-.5.5-.5.5-.5.5-.5.5-.5.5-.5.5-.5.5-.5.5-.5.5-.5.5-.5M4 25.9v.9-1.1.2" fill="#7457ce"/><path d="M27 15.5q0-.5.5-.5h.5v3.5l-.1.9q-.1.4-.4.6l-.5.5-.5.5-.5.5-.5.5-.5.5-.5.5-.5.5-.5.5-.5.5-.6.4-.9.1-.9.1q-.4.1-.6.4l-.5.5-.5.5-.5.5-.5.5-.6.4-.9.1H8v-.5q0-.5.5-.5t.5-.5.5-.5.5-.5.5-.5h5q.5 0 .5-.5t.5-.5.5-.5.5-.5.5-.5.5-.5h2q.5 0 .5-.5t.5-.5.5-.5.5-.5.5-.5.5-.5.5-.5.5-.5.5-.5.5-.5.5-.5.5-.5.5-.5" fill="#5541b1"/></svg>