<svg xmlns="http://www.w3.org/2000/svg" viewBox="0 0 32 32"><path d="M0 .5V0h32v32H0V.5M16.5 28q.5 0 .875-.125T18 27.5l.5-.5.5-.5.5-.5.5-.5q.25-.25.625-.375T21.5 25t.875-.125q.375-.125.625-.375l.5-.5.5-.5.5-.5.5-.5.5-.5.5-.5.5-.5.5-.5.5-.5q.25-.25.375-.625T28 18.5v-1-1-2-1-1q0-.5-.125-.875T27.5 11l-.5-.5q-.25-.25-.625-.375t-.5-.5Q25.75 9.25 25.5 9l-.5-.5-.5-.5-.5-.5-.5-.5-.5-.5-.5-.5-.5-.5-.5-.5-.5-.5q-.25-.25-.625-.375T19.5 4h-6q-.5 0-.875.125T12 4.5l-.5.5-.5.5-.5.5-.5.5-.5.5-.5.5-.5.5q-.25.25-.375.625T8 9.5v6q0 .5-.125.875T7.5 17l-.5.5-.5.5-.5.5-.5.5-.5.5-.5.5q-.25.25-.375.625T4 21.5v5q0 .5.125.875t.5.5Q5 28 5.5 28h11" fill="none"/><path d="M12 4.5q.25-.25.625-.375T13.5 4h6q.5 0 .875.125T21 4.5l.5.5.5.5.5.5.5.5.5.5.5.5.5.5.5.5.5.5q.25.25.375.625L26 10l-.0938-.2813-.0937-.2812.0625.1875q.0625.1875.1875.3125l.125.125L26.125 10l-.0625-.0625-.4063.1563Q25.25 10.25 25 10.5l-.5.5-.5.5-.5.5-.5.5-.5.5-.5.5-.5.5-.5.5-.5.5-.5.5-.5.5-.5.5-.5.5-.5.5-.5.5-.5.5-.5.5-.5.5-.5.5-.5.5-.5.5-.5.5-.5.5-.5.5q-.25.25-.625.375T11.5 23h-1q-.5 0-.875.125T9 23.5l-.5.5-.5.5-.5.5-.5.5q-.25.25-.625.375T5.5 26H4v-.5-1-1-1-1q0-.5.125-.875T4.5 20l.5-.5.5-.5.5-.5.5-.5.5-.5.5-.5q.25-.25.375-.625T8 15.5v-1-1-1-1-1-1q0-.5.125-.875T8.5 8l.5-.5.5-.5.5-.5.5-.5.5-.5.5-.5.5-.5M4 25.625v.625V26v-.75.375m9.625-9.75q.375.125.75 0T15 15.5l.5-.5.5-.5.5-.5.5-.5.5-.5.5-.5.5-.5.5-.5.5-.5q.25-.25.375-.625t0-.75Q19.75 9.25 19.5 9l-.5-.5q-.25-.25-.625-.375t-.75 0Q17.25 8.25 17 8.5l-.5.5-.5.5-.5.5-.5.5-.5.5-.5.5-.5.5-.5.5-.5.5q-.25.25-.375.625t0 .75q.125.375.375.625l.5.5q.25.25.625.375" fill="#9e78dc"/><path d="M17 8.5q.25-.25.625-.375t.75 0q.375.125.625.375l.5.5q.25.25.375.625t0 .75q-.125.375-.375.625l-.5.5-.5.5-.5.5-.5.5-.5.5-.5.5-.5.5-.5.5-.5.5q-.25.25-.625.375t-.75 0Q13.25 15.75 13 15.5l-.5-.5q-.25-.25-.375-.625t0-.75q.125-.375.375-.625l.5-.5.5-.5.5-.5.5-.5.5-.5.5-.5.5-.5.5-.5.5-.5M25 10.5q.25-.25.6563-.4063l.4062-.1562L26 9.875l-.0625-.0625.125.125q.125.125.3125.1875l.1875.0625-.2813-.0938L26 10l.375.125q.375.125.625.375l.5.5q.25.25.375.625T28 12.5V15h-.5q-.5 0-.5.5t-.5.5-.5.5-.5.5-.5.5-.5.5-.5.5-.5.5-.5.5-.5.5-.5.5-.5.5-.5.5-.5.5h-2q-.5 0-.5.5t-.5.5-.5.5-.5.5-.5.5-.5.5h-5q-.5 0-.5.5t-.5.5-.5.5-.5.5-.5.5v.5H5.5q-.5 0-.875-.125t-.5-.5Q4 27 4 26.5V26h1.5q.5 0 .875-.125T7 25.5l.5-.5.5-.5.5-.5.5-.5q.25-.25.625-.375T10.5 23h1q.5 0 .875-.125T13 22.5l.5-.5.5-.5.5-.5.5-.5.5-.5.5-.5.5-.5.5-.5.5-.5.5-.5.5-.5.5-.5.5-.5.5-.5.5-.5.5-.5.5-.5.5-.5.5-.5.5-.5.5-.5.5-.5.5-.5.5-.5M4 25.875v.875-.25-.75.125" fill="#7457ce"/><path d="M27 15.5q0-.5.5-.5h.5v3.5q0 .5-.125.875T27.5 20l-.5.5-.5.5-.5.5-.5.5-.5.5-.5.5-.5.5-.5.5-.5.5q-.25.25-.625.375T21.5 25t-.875.125q-.375.125-.625.375l-.5.5-.5.5-.5.5-.5.5q-.25.25-.625.375T16.5 28H8v-.5q0-.5.5-.5t.5-.5.5-.5.5-.5.5-.5h5q.5 0 .5-.5t.5-.5.5-.5.5-.5.5-.5.5-.5h2q.5 0 .5-.5t.5-.5.5-.5.5-.5.5-.5.5-.5.5-.5.5-.5.5-.5.5-.5.5-.5.5-.5.5-.5" fill="#5541b1"/></svg>