<svg xmlns="http://www.w3.org/2000/svg" viewBox="0 -0.5 32 32" shape-rendering="crispEdges">
<metadata>Made with Pixels to Svg https://codepen.io/shshaw/pen/XbxvNj</metadata>
<path stroke="#9e78dc" d="M12 4h9M11 5h11M10 6h13M9 7h15M8 8h9M19 8h6M8 9h8M20 9h6M8 10h7M20 10h5M8 11h6M19 11h5M8 12h5M18 12h5M8 13h4M17 13h5M8 14h4M16 14h5M8 15h5M15 15h5M8 16h11M7 17h11M6 18h11M5 19h11M4 20h11M4 21h10M4 22h9M4 23h5M4 24h4M4 25h3" />
<path stroke="#7457ce" d="M17 8h2M16 9h4M15 10h5M25 10h2M14 11h5M24 11h4M13 12h5M23 12h5M12 13h5M22 13h6M12 14h4M21 14h7M13 15h2M20 15h7M19 16h7M18 17h7M17 18h7M16 19h7M15 20h7M14 21h7M13 22h5M9 23h8M8 24h8M7 25h3M4 26h5M4 27h4" />
<path stroke="#5541b1" d="M27 15h1M26 16h2M25 17h3M24 18h4M23 19h5M22 20h5M21 21h5M18 22h7M17 23h7M16 24h7M10 25h10M9 26h10M8 27h10" />
</svg>