<svg xmlns="http://www.w3.org/2000/svg" viewBox="0 -0.5 32 32" shape-rendering="crispEdges">
<metadata>Made with Pixels to Svg https://codepen.io/shshaw/pen/XbxvNj</metadata>
<path stroke="#e8d174" d="M13 1h4M12 2h6M11 3h8M10 4h3M17 4h3M9 5h3M18 5h3M8 6h3M19 6h3M7 7h3M20 7h3M6 8h3M14 8h1M21 8h3M5 9h3M13 9h3M22 9h3M4 10h4M12 10h5M23 10h3M5 11h4M11 11h7M24 11h3M6 12h13M25 12h3M7 13h13M26 13h3M8 14h13M27 14h3M9 15h7M17 15h5M27 15h4M10 16h5M18 16h5M27 16h4M11 17h4M19 17h5M27 17h4M12 18h4M19 18h6M26 18h4M13 19h4M18 19h11M14 20h10M27 20h1M15 21h8M16 22h6M17 23h4M18 24h2" />
<path stroke="#f3e979" d="M13 4h4M12 5h6M11 6h8M10 7h10M9 8h5M15 8h6M8 9h5M16 9h6M8 10h4M17 10h6M9 11h2M18 11h6M19 12h6M20 13h6M21 14h6M16 15h1M22 15h5M15 16h3M23 16h4M15 17h4M24 17h3M16 18h3M25 18h1M17 19h1" />
<path stroke="#d99f6b" d="M3 11h2M2 12h4M1 13h6M1 14h7M2 15h7M3 16h7M4 17h7M5 18h7M6 19h7M7 20h7M24 20h3M8 21h7M23 21h4M9 22h7M22 22h4M10 23h7M21 23h4M11 24h7M20 24h4M12 25h11M13 26h9M14 27h7M15 28h5M16 29h3" />
</svg>