<svg xmlns="http://www.w3.org/2000/svg" viewBox="0 0 32 32"><path d="M0 .5V0h32v32H0V.5M17.5 28q.5 0 .875-.125T19 27.5l.5-.5.5-.5.5-.5.5-.5.5-.5.5-.5.5-.5.5-.5.5-.5.5-.5.5-.5q.25-.25.375-.625T25 20.5v-1q0-.5.125-.875T25.5 18l.5-.5.5-.5.5-.5.5-.5.5-.5.5-.5q.25-.25.375-.625T29 13.5v-1-1-1-1-1q0-.5-.125-.875T28.5 7l-.5-.5-.5-.5-.5-.5-.5-.5-.5-.5-.5-.5-.5-.5q-.25-.25-.625-.375T23.5 3h-2q-.5 0-.875.125T20 3.5l-.5.5-.5.5-.5.5-.5.5-.5.5-.5.5-.5.5q-.25.25-.375.625T15.5 8h-2q-.5 0-.5-.5v-1q0-.5-.125-.875T12.5 5l-.5-.5-.5-.5-.5-.5q-.25-.25-.625-.375T9.5 3h-3q-.5 0-.875.125T5 3.5l-.5.5-.5.5-.5.5-.5.5-.5.5q-.25.25-.375.625T2 7.5v3q0 .5.125.875T2.5 12l.5.5.5.5.5.5q.25.25.625.375t.5.5q.125.375.375.625l.5.5.5.5q.25.25.375.625T7 17.5v2q0 .5.125.875T7.5 21l.5.5.5.5.5.5.5.5.5.5q.25.25.625.375t.5.5q.125.375.375.625l.5.5.5.5.5.5.5.5.5.5q.25.25.625.375T15.5 28h2" fill="none"/><path d="M5 3.5q.25-.25.625-.375T6.5 3h3q.5 0 .875.125T11 3.5l.5.5.5.5.5.5q.25.25.375.625T13 6.5V8v-.75.25q0 .25.125.375L13.25 8l-.0625-.0625-.0625-.0625-.1875.4375Q12.75 8.75 12.5 9l-.5.5-.5.5-.5.5-.5.5-.5.5-.5.5-.5.5-.5.5-.5.5q-.25.25-.625.375T6.5 14q-.5 0-1.0313.0313l-.5312.0312L5 14.125l.0625.0625-.125-.125q-.125-.125-.3125-.1875l-.1875-.0625.2813.0938L5 14l-.375-.125Q4.25 13.75 4 13.5l-.5-.5-.5-.5-.5-.5q-.25-.25-.375-.625T2 10.5v-1-1-1q0-.5.125-.875T2.5 6l.5-.5.5-.5.5-.5.5-.5.5-.5M20 3.5q.25-.25.625-.375T21.5 3h2q.5 0 .875.125T25 3.5l.5.5.5.5.5.5.5.5.5.5.5.5.5.5q.25.25.375.625T29 8.5V12l-.375.125q-.375.125-.625.375l-.5.5-.5.5-.5.5-.5.5-.5.5-.5.5-.5.5-.5.5q-.25.25-.625.375t-.75 0Q22.25 16.75 22 16.5l-.5-.5-.5-.5-.5-.5-.5-.5-.5-.5-.5-.5-.5-.5-.5-.5-.5-.5-.5-.5-.5-.5q-.25-.25-.375-.625T16 9.5q0-.5-.0469-1.0469l-.0468-.5468-.0782.0468L15.75 8l.1563-.0938q.1562-.0937.2187-.2812l.0625-.1875-.0938.2813L16 8l.125-.375Q16.25 7.25 16.5 7l.5-.5.5-.5.5-.5.5-.5.5-.5.5-.5.5-.5m9 8.625v-.875 1-.125" fill="#f9a3c7"/><path d="M12.9375 8.3125l.1875-.4375-.0625-.0625L13 7.75l.125.125Q13.25 8 13.5 8h.25H13h3-.75.25q.25 0 .4063-.0938l.1562-.0937-.0781.0469-.0782.0469.047.5468Q16 9 16 9.5q0 .5.125.875T16.5 11l.5.5.5.5.5.5.5.5.5.5.5.5.5.5.5.5.5.5.5.5.5.5q.25.25.625.375t.75 0q.375-.125.625-.375l.5-.5.5-.5.5-.5.5-.5.5-.5.5-.5.5-.5.5-.5q.25-.25.625-.375L29 12v1.5q0 .5-.125.875T28.5 15l-.5.5-.5.5-.5.5-.5.5-.5.5-.5.5q-.25.25-.375.625T25 19.5v1q0 .5-.125.875T24.5 22l-.5.5-.5.5-.5.5-.5.5-.5.5-.5.5-.5.5-.5.5-.5.5-.5.5-.5.5q-.25.25-.625.375T17.5 28h-2q-.5 0-.875-.125T14 27.5l-.5-.5-.5-.5-.5-.5-.5-.5-.5-.5q-.25-.25-.375-.625L11 24l.0938.2813.0937.2812-.0625-.1875q-.0625-.1875-.1875-.3125l-.125-.125.0625.0625.0625.0625.5313-.0313Q12 24 12.5 24h2q.5 0 .875-.125T16 23.5l.5-.5.5-.5.5-.5.5-.5.5-.5.5-.5.5-.5q.25-.25.375-.625T20 18.5q0-.5-.125-.875T19.5 17l-.5-.5-.5-.5-.5-.5-.5-.5-.5-.5-.5-.5-.5-.5q-.25-.25-.625-.375T14.5 13h-1q-.5 0-.875.125T12 13.5l-.5.5-.5.5-.5.5-.5.5-.5.5-.5.5-.5.5-.5.5q-.25.25-.625.375L7 18v-.5q0-.5-.125-.875T6.5 16l-.5-.5-.5-.5q-.25-.25-.375-.625L5 14l.0938.2813.0937.2812-.0625-.1875q-.0625-.1875-.1875-.3125l-.125-.125L4.875 14l.0625.0625.5313-.0313Q6 14 6.5 14q.5 0 .875-.125T8 13.5l.5-.5.5-.5.5-.5.5-.5.5-.5.5-.5.5-.5.5-.5.5-.5q.25-.25.4375-.6875M7 17.625v.625V18v-.75.375m22-5.25v-.625 1-.375" fill="#cb8ebf"/><path d="M12 13.5q.25-.25.625-.375T13.5 13h1q.5 0 .875.125T16 13.5l.5.5.5.5.5.5.5.5.5.5.5.5.5.5q.25.25.375.625T20 18.5q0 .5-.125.875T19.5 20l-.5.5-.5.5-.5.5-.5.5-.5.5-.5.5-.5.5q-.25.25-.625.375T14.5 24h-2q-.5 0-1.0313.0313l-.5312.0312.0625.0625.0625.0625-.125-.125q-.125-.125-.3125-.1875l-.1875-.0625.2813.0938L11 24l-.375-.125Q10.25 23.75 10 23.5l-.5-.5-.5-.5-.5-.5-.5-.5-.5-.5q-.25-.25-.375-.625T7 19.5V18l.375-.125Q7.75 17.75 8 17.5l.5-.5.5-.5.5-.5.5-.5.5-.5.5-.5.5-.5.5-.5m-5 4.375v.875-.25-.75.125" fill="#f9a3c7"/></svg>