<svg xmlns="http://www.w3.org/2000/svg" viewBox="0 -0.5 32 32" shape-rendering="crispEdges">
<metadata>Made with Pixels to Svg https://codepen.io/shshaw/pen/XbxvNj</metadata>
<path stroke="#f9a3c7" d="M5 3h6M20 3h5M4 4h8M19 4h7M3 5h10M18 5h9M2 6h11M17 6h11M2 7h11M16 7h13M2 8h11M16 8h13M2 9h10M16 9h13M2 10h9M16 10h13M2 11h8M17 11h12M3 12h6M18 12h10M4 13h4M12 13h4M19 13h8M11 14h6M20 14h6M10 15h8M21 15h4M9 16h10M22 16h2M8 17h12M7 18h13M7 19h13M7 20h12M8 21h10M9 22h8M10 23h6" />
<path stroke="#cb8ebf" d="M13 8h3M12 9h4M11 10h5M10 11h7M9 12h9M28 12h1M8 13h4M16 13h3M27 13h2M5 14h6M17 14h3M26 14h3M6 15h4M18 15h3M25 15h3M7 16h2M19 16h3M24 16h3M7 17h1M20 17h6M20 18h5M20 19h5M19 20h6M18 21h7M17 22h7M16 23h7M11 24h11M12 25h9M13 26h7M14 27h5" />
</svg>