<svg xmlns="http://www.w3.org/2000/svg" viewBox="0 0 32 32"><path d="M0 .5V0h32v32H0V.5M17.5 28l.9-.1q.4-.1.6-.4l.5-.5.5-.5.5-.5.5-.5.5-.5.5-.5.5-.5.5-.5.5-.5.5-.5.5-.5.4-.6.1-.9v-1l.1-.9q.1-.4.4-.6l.5-.5.5-.5.5-.5.5-.5.5-.5.5-.5.4-.6.1-.9v-5l-.1-.9q-.1-.4-.4-.6l-.5-.5-.5-.5-.5-.5-.5-.5-.5-.5-.5-.5-.5-.5-.6-.4-.9-.1h-2l-.9.1q-.4.1-.6.4l-.5.5-.5.5-.5.5-.5.5-.5.5-.5.5-.5.5-.4.6q0 .3-.6.4h-2q-.5 0-.5-.5v-1l-.1-.9q-.1-.4-.4-.6l-.5-.5-.5-.5-.5-.5-.6-.4-.9-.1h-3l-.9.1q-.4.1-.6.4l-.5.5-.5.5-.5.5-.5.5-.5.5-.4.6-.1.9v3l.1.9q.1.4.4.6l.5.5.5.5.5.5.6.4q.3 0 .5.5l.4.6.5.5.5.5.4.6.1.9v2l.1.9q.1.4.4.6l.5.5.5.5.5.5.5.5.5.5.6.4q.3 0 .5.5l.4.6.5.5.5.5.5.5.5.5.5.5.6.4.9.1h2" fill="none"/><path d="m5 3.5.6-.4.9-.1h3l.9.1q.4.1.6.4l.5.5.5.5.5.5.4.6.1.9V8v-.8.3l.1.4.2.1h-.1v-.1l-.3.4-.4.7-.5.5-.5.5-.5.5-.5.5-.5.5-.5.5-.5.5-.5.5-.5.5-.6.4-.9.1H4.9l.1.1-.4-.2h-.2.3l.3.1-.4-.1-.6-.4-.5-.5-.5-.5-.5-.5-.4-.6-.1-.9v-3l.1-.9q.1-.4.4-.6l.5-.5.5-.5.5-.5.5-.5.5-.5m15 0 .6-.4.9-.1h2l.9.1q.4.1.6.4l.5.5.5.5.5.5.5.5.5.5.5.5.5.5.4.6.1.9V12l-.4.1-.6.4-.5.5-.5.5-.5.5-.5.5-.5.5-.5.5-.5.5-.5.5-.6.4h-.8q-.4-.1-.6-.4l-.5-.5-.5-.5-.5-.5-.5-.5-.5-.5-.5-.5-.5-.5-.5-.5-.5-.5-.5-.5-.5-.5-.4-.6-.1-.9V7.9h-.2V8h.1l.2-.4v-.2.3L16 8l.1-.4.4-.6.5-.5.5-.5.5-.5.5-.5.5-.5.5-.5.5-.5m9 8.6v-.8 1-.2" fill="#f9a3c7"/><path d="M13 8.3 13 8l-.1-.2.1.2.4.1h.3-.8 3-.8.7l.2-.2H16v1.7l.1.9q.1.4.4.6l.5.5.5.5.5.5.5.5.5.5.5.5.5.5.5.5.5.5.5.5.5.5.6.4h.8q.4-.1.6-.4l.5-.5.5-.5.5-.5.5-.5.5-.5.5-.5.5-.5.5-.5.6-.4.4-.1v1.5l-.1.9q-.1.4-.4.6l-.5.5-.5.5-.5.5-.5.5-.5.5-.5.5-.4.6-.1.9v1l-.1.9q-.1.4-.4.6l-.5.5-.5.5-.5.5-.5.5-.5.5-.5.5-.5.5-.5.5-.5.5-.5.5-.5.5-.6.4-.9.1h-2l-.9-.1q-.4-.1-.6-.4l-.5-.5-.5-.5-.5-.5-.5-.5-.5-.5-.4-.6-.1-.4v.3l.2.3v-.2l-.3-.3v-.2.1h3.6l.9-.1q.4-.1.6-.4l.5-.5.5-.5.5-.5.5-.5.5-.5.5-.5.5-.5.4-.6.1-.9-.1-.9q-.1-.4-.4-.6l-.5-.5-.5-.5-.5-.5-.5-.5-.5-.5-.5-.5-.5-.5-.6-.4-.9-.1h-1l-.9.1q-.4.1-.6.4l-.5.5-.5.5-.5.5-.5.5-.5.5-.5.5-.5.5-.5.5-.6.4-.4.1v-.5l-.1-.9q-.1-.4-.4-.6l-.5-.5-.5-.5-.4-.6L5 14v.3l.2.3v-.2l-.3-.3v-.2.1h1.6l.9-.1q.4-.1.6-.4l.5-.5.5-.5.5-.5.5-.5.5-.5.5-.5.5-.5.5-.5.5-.5q.3-.3.4-.7M7 17.6v.6-1 .4m22-5.2v-.7 1-.3" fill="#cb8ebf"/><path d="m12 13.5.6-.4.9-.1h1l.9.1q.4.1.6.4l.5.5.5.5.5.5.5.5.5.5.5.5.5.5.4.6.1.9-.1.9q-.1.4-.4.6l-.5.5-.5.5-.5.5-.5.5-.5.5-.5.5-.5.5-.6.4-.9.1h-3.6l.1.1-.4-.2h-.2.3l.3.1-.4-.1-.6-.4-.5-.5-.5-.5-.5-.5-.5-.5-.5-.5-.4-.6-.1-.9V18l.4-.1.6-.4.5-.5.5-.5.5-.5.5-.5.5-.5.5-.5.5-.5.5-.5m-5 4.4v.9-1.1.2" fill="#f9a3c7"/></svg>