<svg xmlns="http://www.w3.org/2000/svg" viewBox="0 0 32 32"><path d="M0 .5V0h32v32H0V.5M21.5 31l.9-.1q.4-.1.6-.4l.5-.5.5-.5.5-.5.5-.5.5-.5.5-.5.6-.4.8-.2q.4-.1.6-.4l.5-.5.5-.5.5-.5.5-.5.5-.5.4-.6.1-.9v-4l-.1-.9q-.1-.4-.4-.6l-.5-.5-.5-.5-.4-.6-.2-.8-.4-.6-.5-.5-.5-.5-.5-.5-.5-.5-.5-.5-.5-.5-.5-.5-.5-.5-.5-.5-.5-.5-.5-.5-.5-.5-.5-.5-.5-.5-.5-.5-.5-.5-.5-.5-.5-.5-.5-.5-.5-.5-.5-.5-.5-.5-.5-.5-.5-.5-.5-.5-.6-.4-.9-.1h-1l-.9.1q-.4.1-.6.4l-.5.5-.5.5-.5.5-.5.5-.5.5-.5.5-.5.5-.5.5-.5.5-.5.5-.5.5-.5.5-.5.5-.5.5-.5.5-.5.5-.5.5-.5.5-.5.5-.5.5-.5.5-.4.6-.1.9v2l.1.9q.1.4.4.6l.5.5.5.5.5.5.5.5.5.5.5.5.5.5.5.5.5.5.5.5.5.5.5.5.5.5.5.5.5.5.5.5.5.5.5.5.5.5.5.5.5.5.5.5.5.5.5.5.5.5.5.5.5.5.6.4.9.1h5" fill="none"/><path d="m12 1.5.6-.4.9-.1h1l.9.1q.4.1.6.4l.5.5.5.5.5.5.5.5.5.5.5.5.5.5.5.5.5.5.5.5.5.5.5.5.5.5.5.5.5.5.5.5.5.5.5.5.3.3-.3.2q-.3.3-.1.6t-.4.4q-.5 0-.5.5t-.5.5-.5.5-.5.5-.5.5-.5.5h-1q-.5 0-.5-.5t-.5-.5-.5-.5-.5-.5-.5-.5-.5-.5-.5-.5-.5-.5-.5-.5-.5-.5-.5-.5-.5-.5-.5-.5-.5-.5-.5-.5-.5-.5h-1q-.5 0-.5.5t-.5.5-.5.5q0 .5.5.5t.5.5.5.5.5.5.5.5.5.5.5.5.5.5.5.5.5.5.5.5.5.5.5.5.5.5.5.5.5.5v1q0 .5-.5.5t-.5.5-.5.5h-2q-.5 0-.5-.5t-.5-.5-.5-.5-.5-.5-.5-.5-.5-.5-.5-.5-.5-.5-.5-.5-.5-.5-.5-.5-.5-.5-.5-.5-.5-.5-.5-.5-.5-.5-.5-.5-.5-.5q-.5 0-.4-.4T5 9l-.3-.3.3-.2.5-.5.5-.5.5-.5.5-.5.5-.5.5-.5.5-.5.5-.5.5-.5.5-.5.5-.5.5-.5.5-.5.5-.5m-7 7-.3.3.3-.3.1-.1-.2.2m20.4 2.2-.2-.2-.2-.2.1.1.3.3" fill="#a4b8fa"/><path d="M11 7.5q0-.5.5-.5h1q.5 0 .5.5t.5.5.5.5.5.5.5.5.5.5.5.5.5.5.5.5.5.5.5.5.5.5.5.5.5.5.5.5.5.5h1q.5 0 .5-.5t.5-.5.5-.5.5-.5.5-.5.5-.5q.5 0 .4-.4t.1-.6l.3-.3.2.3.5.5.5.5.5.5.5.5.5.5.5.5.4.6.2.8.4.6.5.5.5.5.4.6.1.9v4l-.1.9q-.1.4-.4.6l-.5.5-.5.5-.5.5-.5.5-.5.5-.6.4-.8.2-.4.1h.3l.3-.1h-.2q-.2 0-.3.2H26h.1L26 27q-.3-.3-.6-.1l-.9.1h-3q-.5 0-.5-.5t-.5-.5h-1q-.5 0-.5-.5t-.5-.5-.5-.5-.5-.5-.5-.5-.5-.5-.5-.5-.5-.5-.5-.5-.5-.5-.5-.5-.5-.5-.5-.5-.5-.5-.5-.5-.5-.5-.5-.5-.5-.5-.5-.5-.5-.5-.5-.5-.5-.5-.5-.5-.5-.5-.5-.5-.5-.5-.5-.5-.5-.5-.5-.5-.5-.5q-.5 0-.4-.4T4 10l-.3-.3.3-.2.5-.5.3-.3.2.3q.3.3.1.6t.4.4q.5 0 .5.5t.5.5.5.5.5.5.5.5.5.5.5.5.5.5.5.5.5.5.5.5.5.5.5.5.5.5.5.5.5.5.5.5.5.5h2q.5 0 .5-.5t.5-.5.5-.5v-1q0-.5-.5-.5t-.5-.5-.5-.5-.5-.5-.5-.5-.5-.5-.5-.5-.5-.5-.5-.5-.5-.5-.5-.5-.5-.5-.5-.5-.5-.5-.5-.5-.5-.5q0-.5.5-.5t.5-.5M4.8 8.7l-.2.2-.2.2.1-.1.3-.3m-.9.9-.1.2h-.1l.3-.3.1-.1-.2.2M20.5 22q.5 0 .5-.5t.5-.5.5-.5v-1q0-.5-.5-.5t-.5-.5-.5-.5h-1q-.5 0-.5.5t-.5.5-.5.5v2q0 .5.5.5h2m7-1q.5 0 .5-.5t.5-.5.5-.5.5-.5.5-.5l-.1-.9q-.1-.4-.5-.5t-.5-.5-.5-.5q-.4-.1-.4-.6t-.5-.5-.5-.5-.5-.5h-1q-.5 0-.5.5t-.5.5-.5.5-.5.5-.5.5v1q0 .5.5.5t.5.5.5.5.5.5.5.5.5.5.5.5h1m-2-10-.3-.3.3.3.1.1-.2-.2" fill="#919fe7"/><path d="m3 10.5.5-.5.3-.3.2.3q.3.3.1.6t.4.4q.5 0 .5.5t.5.5.5.5.5.5.5.5.5.5.5.5.5.5.5.5.5.5.5.5.5.5.5.5.5.5.5.5.5.5.5.5.5.5.5.5.5.5.5.5.5.5.5.5.5.5.5.5.5.5.5.5.5.5.5.5.5.5h1q.5 0 .5.5t.5.5h3l.9-.1q.4-.1.6.1l.3.3.1-.1h-.1l-.3.3-.1.1.2-.2.1-.1-.2.2-.5.5-.5.5-.5.5-.5.5-.5.5-.5.5-.6.4-.9.1h-5l-.9-.1q-.4-.1-.6-.4l-.5-.5-.5-.5-.5-.5-.5-.5-.5-.5-.5-.5-.5-.5-.5-.5-.5-.5-.5-.5-.5-.5-.5-.5-.5-.5-.5-.5-.5-.5-.5-.5-.5-.5-.5-.5-.5-.5-.5-.5-.5-.5-.5-.5-.5-.5-.5-.5-.5-.5-.5-.5-.5-.5-.4-.6-.1-.9v-2l.1-.9q.1-.4.4-.6l.5-.5.5-.5.5-.5m.8-.8-.2.2-.2.2.1-.1.3-.3" fill="#7575c8"/><path d="M25 14.5q0-.5.5-.5h1q.5 0 .5.5t.5.5.5.5q0 .5.4.6t.5.5.5.5.5.5l.1.9q0 .5-.5.5t-.5.5-.5.5-.5.5-.5.5h-1q-.5 0-.5-.5t-.5-.5-.5-.5-.5-.5-.5-.5-.5-.5-.5-.5v-1q0-.5.5-.5t.5-.5.5-.5.5-.5m-6 4q0-.5.5-.5h1q.5 0 .5.5t.5.5.5.5v1q0 .5-.5.5t-.5.5-.5.5h-2q-.5 0-.5-.5v-2q0-.5.5-.5t.5-.5" fill="#a4b8fa"/></svg>