<svg xmlns="http://www.w3.org/2000/svg" viewBox="0 -0.5 32 32" shape-rendering="crispEdges">
<metadata>Made with Pixels to Svg https://codepen.io/shshaw/pen/XbxvNj</metadata>
<path stroke="#a4b8fa" d="M12 1h4M11 2h6M10 3h8M9 4h10M8 5h12M7 6h14M6 7h5M13 7h9M5 8h5M14 8h9M5 9h6M15 9h9M6 10h6M16 10h9M7 11h6M17 11h8M8 12h6M18 12h6M9 13h6M19 13h4M10 14h6M20 14h2M25 14h2M11 15h6M24 15h4M12 16h6M23 16h6M13 17h5M23 17h7M14 18h3M19 18h2M24 18h6M18 19h4M25 19h4M18 20h4M26 20h2M18 21h3" />
<path stroke="#919fe7" d="M11 7h2M10 8h4M4 9h1M11 9h4M4 10h2M12 10h4M5 11h2M13 11h4M25 11h1M6 12h2M14 12h4M24 12h3M7 13h2M15 13h4M23 13h5M8 14h2M16 14h4M22 14h3M27 14h2M9 15h2M17 15h7M28 15h1M10 16h2M18 16h5M29 16h1M11 17h2M18 17h5M30 17h1M12 18h2M17 18h2M21 18h3M30 18h1M13 19h5M22 19h3M29 19h2M14 20h4M22 20h4M28 20h3M15 21h3M21 21h10M16 22h15M17 23h14M18 24h12M19 25h10M21 26h7" />
<path stroke="#7575c8" d="M3 10h1M2 11h3M1 12h5M1 13h6M1 14h7M1 15h8M1 16h9M2 17h9M3 18h9M4 19h9M5 20h9M6 21h9M7 22h9M8 23h9M9 24h9M10 25h9M11 26h10M12 27h14M13 28h12M14 29h10M15 30h8" />
</svg>