<svg xmlns="http://www.w3.org/2000/svg" viewBox="0 0 32 32"><path d="M0 .5V0h32v32H0V.5M21.5 31q.5 0 .875-.125T23 30.5l.5-.5.5-.5.5-.5.5-.5.5-.5.5-.5q.25-.25.625-.375l.75-.25q.375-.125.625-.375l.5-.5.5-.5.5-.5.5-.5.5-.5q.25-.25.375-.625T31 22.5v-1-1-1-1q0-.5-.125-.875T30.5 17l-.5-.5-.5-.5q-.25-.25-.375-.625l-.25-.75Q28.75 14.25 28.5 14l-.5-.5-.5-.5-.5-.5-.5-.5-.5-.5-.5-.5-.5-.5-.5-.5-.5-.5-.5-.5-.5-.5-.5-.5-.5-.5-.5-.5-.5-.5-.5-.5-.5-.5-.5-.5-.5-.5-.5-.5-.5-.5-.5-.5-.5-.5-.5-.5-.5-.5q-.25-.25-.625-.375T14.5 1h-1q-.5 0-.875.125T12 1.5l-.5.5-.5.5-.5.5-.5.5-.5.5-.5.5-.5.5-.5.5-.5.5-.5.5-.5.5-.5.5-.5.5-.5.5-.5.5-.5.5-.5.5-.5.5-.5.5-.5.5-.5.5q-.25.25-.375.625T1 13.5v2q0 .5.125.875T1.5 17l.5.5.5.5.5.5.5.5.5.5.5.5.5.5.5.5.5.5.5.5.5.5.5.5.5.5.5.5.5.5.5.5.5.5.5.5.5.5.5.5.5.5.5.5.5.5.5.5.5.5.5.5.5.5q.25.25.625.375T16.5 31h5" fill="none"/><path d="M12 1.5q.25-.25.625-.375T13.5 1h1q.5 0 .875.125T16 1.5l.5.5.5.5.5.5.5.5.5.5.5.5.5.5.5.5.5.5.5.5.5.5.5.5.5.5.5.5.5.5.5.5.5.5.5.5.25.25L25 11q-.25.25-.125.625T24.5 12q-.5 0-.5.5t-.5.5-.5.5-.5.5-.5.5-.5.5h-1q-.5 0-.5-.5t-.5-.5-.5-.5-.5-.5-.5-.5-.5-.5-.5-.5-.5-.5-.5-.5-.5-.5-.5-.5-.5-.5-.5-.5-.5-.5-.5-.5-.5-.5h-1q-.5 0-.5.5t-.5.5-.5.5q0 .5.5.5t.5.5.5.5.5.5.5.5.5.5.5.5.5.5.5.5.5.5.5.5.5.5.5.5.5.5.5.5.5.5v1q0 .5-.5.5t-.5.5-.5.5h-2q-.5 0-.5-.5t-.5-.5-.5-.5-.5-.5-.5-.5-.5-.5-.5-.5-.5-.5-.5-.5-.5-.5-.5-.5-.5-.5-.5-.5-.5-.5-.5-.5-.5-.5-.5-.5-.5-.5q-.5 0-.375-.375T5 9l-.25-.25L5 8.5l.5-.5.5-.5.5-.5.5-.5.5-.5.5-.5.5-.5.5-.5.5-.5.5-.5.5-.5.5-.5.5-.5.5-.5M4.9375 8.5625L4.75 8.75l-.0625.0625-.0625.0625.125-.125L5 8.5l.125-.125-.1875.1875m20.375 2.25L25.25 10.75l-.1875-.1875-.1875-.1875.125.125.25.25.125.125-.0625-.0625" fill="#a4b8fa"/><path d="M11 7.5q0-.5.5-.5h1q.5 0 .5.5t.5.5.5.5.5.5.5.5.5.5.5.5.5.5.5.5.5.5.5.5.5.5.5.5.5.5.5.5.5.5h1q.5 0 .5-.5t.5-.5.5-.5.5-.5.5-.5.5-.5q.5 0 .375-.375T25 11l.25-.25.25.25.5.5.5.5.5.5.5.5.5.5.5.5q.25.25.375.625l.25.75q.125.375.375.625l.5.5.5.5q.25.25.375.625T31 18.5v4q0 .5-.125.875T30.5 24l-.5.5-.5.5-.5.5-.5.5-.5.5q-.25.25-.625.375l-.75.25-.375.125.2813-.0938.2812-.0937-.1875.0625q-.1875.0625-.3438.1563l-.1562.0937.0781-.0469.0782-.0468-.2657-.2657q-.2656-.2656-.6406-.1406Q25 27 24.5 27h-3q-.5 0-.5-.5t-.5-.5h-1q-.5 0-.5-.5t-.5-.5-.5-.5-.5-.5-.5-.5-.5-.5-.5-.5-.5-.5-.5-.5-.5-.5-.5-.5-.5-.5-.5-.5-.5-.5-.5-.5-.5-.5-.5-.5-.5-.5-.5-.5-.5-.5-.5-.5-.5-.5-.5-.5-.5-.5-.5-.5-.5-.5-.5-.5-.5-.5-.5-.5-.5-.5q-.5 0-.375-.375T4 10l-.25-.25L4 9.5l.5-.5.25-.25L5 9q.25.25.125.625T5.5 10q.5 0 .5.5t.5.5.5.5.5.5.5.5.5.5.5.5.5.5.5.5.5.5.5.5.5.5.5.5.5.5.5.5.5.5.5.5.5.5h2q.5 0 .5-.5t.5-.5.5-.5v-1q0-.5-.5-.5t-.5-.5-.5-.5-.5-.5-.5-.5-.5-.5-.5-.5-.5-.5-.5-.5-.5-.5-.5-.5-.5-.5-.5-.5-.5-.5-.5-.5-.5-.5q0-.5.5-.5t.5-.5M4.8125 8.6875L4.75 8.75l-.1875.1875-.1875.1875L4.5 9l.25-.25.125-.125-.0625.0625m-.875.875L3.75 9.75l-.0625.0625-.0625.0625.125-.125L4 9.5l.125-.125-.1875.1875M20.5 22q.5 0 .5-.5t.5-.5.5-.5v-1q0-.5-.5-.5t-.5-.5-.5-.5h-1q-.5 0-.5.5t-.5.5-.5.5v2q0 .5.5.5h2m7-1q.5 0 .5-.5t.5-.5.5-.5.5-.5.5-.5q0-.5-.125-.875t-.5-.5-.5-.5-.5-.5Q28 16 28 15.5t-.5-.5-.5-.5-.5-.5h-1q-.5 0-.5.5t-.5.5-.5.5-.5.5-.5.5v1q0 .5.5.5t.5.5.5.5.5.5.5.5.5.5.5.5h1m-2.0625-10.0625L25.25 10.75l-.0625-.0625-.0625-.0625.125.125.25.25.125.125-.1875-.1875" fill="#919fe7"/><path d="M3 10.5l.5-.5.25-.25L4 10q.25.25.125.625T4.5 11q.5 0 .5.5t.5.5.5.5.5.5.5.5.5.5.5.5.5.5.5.5.5.5.5.5.5.5.5.5.5.5.5.5.5.5.5.5.5.5.5.5.5.5.5.5.5.5.5.5.5.5.5.5.5.5.5.5.5.5.5.5.5.5h1q.5 0 .5.5t.5.5h3q.5 0 .875-.125t.6406.1406l.2657.2657.078-.047.0782-.0468-.1562.0938Q26.125 27.375 26 27.5l-.125.125.1875-.1875.1875-.1875-.25.25-.5.5-.5.5-.5.5-.5.5-.5.5-.5.5q-.25.25-.625.375T21.5 31h-5q-.5 0-.875-.125T15 30.5l-.5-.5-.5-.5-.5-.5-.5-.5-.5-.5-.5-.5-.5-.5-.5-.5-.5-.5-.5-.5-.5-.5-.5-.5-.5-.5-.5-.5-.5-.5-.5-.5-.5-.5-.5-.5-.5-.5-.5-.5-.5-.5-.5-.5-.5-.5-.5-.5-.5-.5-.5-.5-.5-.5q-.25-.25-.375-.625T1 15.5v-1-1q0-.5.125-.875T1.5 12l.5-.5.5-.5.5-.5m.8125-.8125L3.75 9.75l-.1875.1875-.1875.1875L3.5 10l.25-.25.125-.125-.0625.0625" fill="#7575c8"/><path d="M25 14.5q0-.5.5-.5h1q.5 0 .5.5t.5.5.5.5q0 .5.375.625t.5.5.5.5.5.5Q30 18 30 18.5t-.5.5-.5.5-.5.5-.5.5-.5.5h-1q-.5 0-.5-.5t-.5-.5-.5-.5-.5-.5-.5-.5-.5-.5-.5-.5v-1q0-.5.5-.5t.5-.5.5-.5.5-.5M19 18.5q0-.5.5-.5h1q.5 0 .5.5t.5.5.5.5v1q0 .5-.5.5t-.5.5-.5.5h-2q-.5 0-.5-.5v-1-1q0-.5.5-.5t.5-.5" fill="#a4b8fa"/></svg>