<svg width="32" height="32" xmlns="http://www.w3.org/2000/svg"><path style="fill:#4c5878;fill-opacity:1" d="m6.1 23.6.4-.6.3-.3.2.3q.3.3.6.1.4-.1.4.4t.5.5.5.5.5.5.5.5.5.5h2q.5 0 .5-.5t.5-.5.5-.5.5-.5.5-.5.5-.5h2q.5 0 .5.5t.5.5q.5 0 .4.4-.1.4.1.6l.3.3-.3.2-.5.5-.5.5-.5.5-.5.5-.5.5-.5.5-.5.5-.5.5-.5.5-.5.5-.6.4-.9.1h-2l-.9-.1-.6-.4-.5-.5-.5-.5-.5-.5-.5-.5-.5-.5-.4-.6-.1-.9v-2l.1-.9m13 1.8.1-.1.1-.1-.3.3-.1.1.2-.2M6.8 22.7l-.2.2-.2.2.1-.1.3-.3"/><path style="fill:#768a9a;fill-opacity:1" d="M13 16.5q0-.5.4-.6l.3-.2-.2.1-.3.1h.2q.2 0 .3-.2h.2-.1l.2.3q.3.3.1.6l-.1.9v1q0 .5.5.5t.5.5.5.5.5.5.5.5h1q.5 0 .5-.5t.5-.5.5-.5.5-.5h1q.5 0 .5.5t.5.5.5.5q0 .5.4.4.4-.1.6.1l.3.3-.3.2-.5.5-.5.5-.5.5-.5.5-.5.5-.5.5-.5.5-.3.3-.2-.3q-.3-.3-.1-.6.1-.4-.4-.4t-.5-.5-.5-.5h-2q-.5 0-.5.5t-.5.5-.5.5-.5.5-.5.5-.5.5h-2q-.5 0-.5-.5t-.5-.5-.5-.5-.5-.5-.5-.5q0-.5-.4-.4-.3.1-.6-.1l-.3-.3.3-.2.5-.5.5-.5.5-.5q.3-.3.3-.5v-.3.4-.1l-.1-.2-.1-.1.4-.2q.3-.3.6-.1.4.1.4-.4t.5-.5.5-.5.5-.5.5-.5.5-.5.5-.5m-6 6-.3.3.3-.3.1-.1-.2.2m12.3 2.7.2-.2.2-.2-.1.1-.3.3m3.9-3.9.1-.1.1-.1-.3.3-.1.1.2-.2"/><path style="fill:#4c5878;fill-opacity:1" d="m7 10.5.5-.5.3-.3.2.3q.3.3.1.6-.1.4.4.4t.5.5.5.5.5.5.5.5q.5 0 .5-.5t.5-.5.5-.5.5-.5h1q.5 0 .5.5t.5.5.5.5.5.5h.5l-.1.4-.4.6-.5.5-.5.5-.5.5-.6.4q-.4.1-.4.6t-.5.5-.5.5-.5.5-.5.5-.5.5-.5.5q0 .5-.4.4-.3-.1-.6.1l-.3.3-.3-.2h-.2.3l.3.1h-.4l-.8-.3-.6-.4-.5-.5-.5-.5-.5-.5-.5-.5-.5-.5-.4-.6-.1-.9v-1l.1-.9.4-.6.5-.5.5-.5.5-.5.5-.5.5-.5m.8-.8-.2.2-.2.2.1-.1.3-.3"/><path style="fill:#768a9a;fill-opacity:1" d="m10 7.5.5-.5.3-.3.2.3q.3.3.1.6-.1.4.4.4t.5.5.5.5.5.5.5.5h1q.5 0 .5-.5t.5-.5.5-.5.5-.5q.5 0 .5.5t.5.5.5.5.5.5.5.5q0 .5-.5.5t-.5.5-.5.5-.5.5-.5.5h-1q-.5 0-.5-.5t-.5-.5-.5-.5-.5-.5h-1q-.5 0-.5.5t-.5.5-.5.5-.5.5q-.5 0-.5-.5t-.5-.5-.5-.5-.5-.5q-.5 0-.4-.4.2-.3-.1-.6l-.3-.3.3-.2.5-.5.5-.5.5-.5.5-.5m-2 2-.3.3.3-.3.1-.1-.2.2m3-3-.2.2-.1.1-.2.2.1-.1.3-.3"/><path style="fill:#a0b0c8;fill-opacity:1" d="m15 2.5.6-.4.9-.1h2l.9.1q.4.1.6.4l.5.5.5.5.5.5.5.5.5.5.4.6.1.9v1l.1.9.4.6.5.5.5.5.5.5.5.5.5.5.5.5.5.5.5.5.4.6.1.9v1l-.1.9q-.1.4-.4.6l-.5.5-.5.5-.5.5-.5.5-.5.5-.5.5-.5.5-.5.5-.3.3-.2-.3q-.3-.3-.6-.1-.4.1-.4-.4t-.5-.5-.5-.5-.5-.5h-1q-.5 0-.5.5t-.5.5-.5.5-.5.5h-1q-.5 0-.5-.5t-.5-.5-.5-.5-.5-.5-.5-.5v-1l.1-.9q.2-.4-.1-.6l-.3-.3-.1.1h.1l.3-.3.1-.1-.2.2-.2.2.3-.3.5-.5.5-.5.5-.5.4-.6.1-.4h.5q.5 0 .5-.5t.5-.5.5-.5.5-.5.5-.5q0-.5-.5-.5t-.5-.5-.5-.5-.5-.5-.5-.5q-.5 0-.5.5t-.5.5-.5.5-.5.5h-1q-.5 0-.5-.5t-.5-.5-.5-.5-.5-.5q-.5 0-.4-.4.2-.3-.1-.6l-.3-.3.3-.2.5-.5.5-.5.5-.5.5-.5.5-.5.5-.5.5-.5.5-.5m-4 4-.3.3.3-.3.1-.1-.2.2m12.3 14.7.2-.2.2-.2-.1.1-.3.3"/><path style="fill:#000;fill-opacity:0" d="M0 .5V0h32v32H0V.5M12.5 31l.9-.1.6-.4.5-.5.5-.5.5-.5.5-.5.5-.5.5-.5.5-.5.5-.5.5-.5.5-.5.5-.5.5-.5.5-.5.5-.5.5-.5.5-.5.5-.5.5-.5.5-.5.5-.5.5-.5.5-.5.5-.5.5-.5.5-.5.5-.5.5-.5.4-.6.1-.9v-1l-.1-.9-.4-.6-.5-.5-.5-.5-.5-.5-.5-.5-.5-.5-.5-.5-.5-.5-.5-.5-.4-.6-.1-.9v-1l-.1-.9-.4-.6-.5-.5-.5-.5-.5-.5-.5-.5-.5-.5-.6-.4-.9-.1h-2l-.9.1-.6.4-.5.5-.5.5-.5.5-.5.5-.5.5-.5.5-.5.5-.5.5-.5.5-.5.5-.5.5-.5.5-.5.5-.5.5-.5.5-.5.5-.5.5-.5.5-.5.5-.5.5-.5.5-.4.6-.1.9v1l.1.9.4.6.5.5.5.5.5.5.5.5.5.5.6.4.8.2q.3.1.3.4 0 .3-.2.5l-.5.5-.5.5-.5.5-.5.5-.4.6-.1.9v2l.1.9.4.6.5.5.5.5.5.5.5.5.5.5.6.4.9.1h2" fill="none"/></svg>