<svg id="svg" version="1.1" xmlns="http://www.w3.org/2000/svg" xmlns:xlink="http://www.w3.org/1999/xlink" width="400" height="400" viewBox="0, 0, 400,400"><g id="svgg"><path id="path0" d="M160.600 111.012 C 155.880 111.929,153.510 112.460,150.800 113.210 C 149.370 113.605,147.480 114.111,146.600 114.335 C 145.720 114.559,143.740 115.129,142.200 115.601 C 140.660 116.074,138.590 116.709,137.600 117.012 C 134.874 117.847,131.939 118.850,130.600 119.403 C 129.940 119.676,128.050 120.417,126.400 121.049 C 124.750 121.681,122.777 122.514,122.015 122.899 C 121.254 123.285,120.320 123.600,119.939 123.600 C 119.559 123.600,119.139 123.775,119.007 123.989 C 118.874 124.203,118.181 124.656,117.465 124.996 C 116.750 125.335,115.813 126.172,115.382 126.855 C 114.952 127.539,114.285 128.571,113.899 129.149 C 113.514 129.727,112.931 130.773,112.605 131.473 C 112.279 132.173,111.841 132.851,111.632 132.980 C 111.260 133.210,108.357 138.046,105.647 142.951 C 104.902 144.298,103.875 146.120,103.364 147.000 C 102.115 149.152,98.400 156.642,98.400 157.009 C 98.400 157.170,97.790 158.584,97.043 160.151 C 94.748 164.972,93.600 167.672,93.600 168.250 C 93.600 168.554,93.240 169.475,92.800 170.296 C 92.360 171.116,92.000 172.001,92.000 172.262 C 92.000 172.522,91.752 173.245,91.449 173.868 C 90.567 175.680,88.804 181.153,87.734 185.400 C 87.402 186.720,86.896 188.430,86.611 189.200 C 86.326 189.970,85.904 191.500,85.675 192.600 C 85.274 194.524,85.058 195.487,83.744 201.200 C 83.416 202.630,82.898 205.510,82.594 207.600 C 82.289 209.690,81.856 212.660,81.631 214.200 C 79.963 225.593,79.467 245.253,80.592 255.400 L 81.168 260.600 83.084 262.292 C 84.138 263.222,85.180 263.999,85.400 264.018 C 85.620 264.037,86.610 264.663,87.600 265.408 C 88.590 266.152,90.570 267.465,92.000 268.324 C 93.430 269.183,95.823 270.638,97.317 271.558 C 98.811 272.477,101.061 273.774,102.317 274.439 C 103.573 275.104,105.320 276.078,106.200 276.603 C 107.080 277.129,108.214 277.747,108.720 277.977 C 110.738 278.895,115.954 281.358,118.600 282.643 C 120.140 283.392,121.557 284.003,121.750 284.002 C 122.062 284.000,124.811 285.105,128.200 286.595 C 129.553 287.189,132.508 288.186,135.218 288.963 C 136.219 289.250,137.389 289.670,137.818 289.896 C 141.291 291.723,142.030 291.224,146.855 283.800 C 150.115 278.783,150.928 277.437,152.244 274.876 C 152.958 273.488,153.761 272.088,154.029 271.765 C 154.689 270.970,153.215 269.389,151.241 268.774 C 148.974 268.067,136.179 261.661,135.471 260.878 C 134.880 260.225,134.928 260.098,136.119 259.147 C 138.014 257.635,139.910 256.731,140.201 257.201 C 140.336 257.421,140.752 257.602,141.124 257.604 C 141.496 257.606,142.700 258.050,143.800 258.591 C 144.900 259.132,146.079 259.581,146.420 259.587 C 146.761 259.594,147.211 259.766,147.420 259.968 C 147.805 260.341,151.117 261.574,154.400 262.566 C 155.390 262.865,156.740 263.303,157.400 263.539 C 159.702 264.364,163.018 265.313,165.400 265.830 C 166.720 266.116,168.700 266.555,169.800 266.806 C 175.440 268.090,177.315 268.427,180.800 268.784 C 182.890 268.999,185.860 269.348,187.400 269.561 C 198.360 271.078,213.629 270.207,228.400 267.224 C 235.404 265.810,239.650 264.702,243.200 263.362 C 243.970 263.072,245.230 262.656,246.000 262.437 C 248.359 261.768,251.736 260.517,253.000 259.844 C 253.660 259.493,254.475 259.204,254.811 259.202 C 255.147 259.201,255.777 258.953,256.211 258.651 C 256.645 258.349,257.583 257.975,258.295 257.820 C 259.008 257.665,259.693 257.374,259.817 257.172 C 260.111 256.696,262.750 258.055,263.877 259.262 C 264.709 260.155,264.719 260.245,264.077 261.074 C 263.339 262.024,253.532 267.198,252.460 267.203 C 252.097 267.204,251.260 267.563,250.600 268.000 C 249.940 268.437,249.088 268.796,248.706 268.797 C 248.325 268.799,247.469 269.295,246.804 269.900 L 245.596 271.000 246.614 273.000 C 247.174 274.100,247.985 275.540,248.416 276.200 C 248.848 276.860,249.426 277.851,249.700 278.402 C 250.532 280.070,257.108 289.826,257.772 290.377 C 258.482 290.966,260.540 290.697,262.283 289.788 C 262.897 289.467,263.760 289.198,264.200 289.189 C 264.640 289.180,265.720 288.825,266.600 288.400 C 267.480 287.975,268.470 287.615,268.800 287.600 C 269.130 287.585,270.120 287.225,271.000 286.800 C 271.880 286.375,272.826 286.021,273.101 286.014 C 273.377 286.006,274.275 285.640,275.096 285.200 C 275.916 284.760,276.861 284.399,277.194 284.397 C 277.527 284.396,278.340 284.037,279.000 283.600 C 279.660 283.163,280.446 282.804,280.746 282.803 C 281.858 282.797,296.825 275.064,304.200 270.685 C 305.546 269.886,310.587 266.613,310.800 266.400 C 310.910 266.290,312.547 265.172,314.437 263.917 C 316.328 262.661,318.089 261.374,318.352 261.058 C 319.709 259.423,320.647 233.540,319.605 226.477 C 319.388 225.004,319.034 221.341,318.819 218.336 C 318.603 215.331,318.166 211.731,317.847 210.336 C 317.528 208.941,317.081 206.540,316.855 205.000 C 316.174 200.368,314.829 194.282,313.141 188.200 C 311.289 181.523,307.270 169.821,305.104 164.800 C 304.677 163.810,304.184 162.640,304.008 162.200 C 303.306 160.443,295.020 143.760,294.571 143.200 C 294.307 142.870,293.561 141.610,292.913 140.400 C 291.080 136.977,286.513 129.608,285.103 127.800 C 284.932 127.580,284.417 126.901,283.960 126.292 C 282.945 124.938,278.781 122.909,272.200 120.560 C 271.320 120.246,270.122 119.722,269.538 119.395 C 268.954 119.068,268.144 118.799,267.738 118.798 C 267.332 118.796,266.472 118.520,265.826 118.183 C 265.181 117.846,264.011 117.410,263.226 117.213 C 262.442 117.015,260.990 116.582,260.000 116.250 C 251.801 113.500,236.167 110.071,234.143 110.579 C 233.596 110.716,232.811 111.703,231.982 113.297 C 231.266 114.674,230.533 116.070,230.353 116.400 C 230.174 116.730,229.477 118.215,228.805 119.700 C 227.610 122.344,227.059 122.781,225.400 122.404 C 218.728 120.887,194.512 120.559,180.618 121.798 C 176.130 122.198,172.574 122.354,172.493 122.155 C 172.414 121.960,171.046 119.280,169.452 116.200 L 166.555 110.600 164.977 110.534 C 164.110 110.498,162.140 110.713,160.600 111.012 M163.567 185.987 C 169.221 186.804,176.175 192.100,178.851 197.628 C 181.028 202.123,181.178 202.676,181.415 207.037 C 181.734 212.929,180.911 217.949,179.126 221.000 C 178.869 221.440,178.433 222.230,178.158 222.755 C 173.607 231.445,160.723 235.803,151.869 231.646 C 147.527 229.607,143.402 225.274,140.974 220.200 L 139.060 216.200 139.030 209.800 C 138.969 196.870,146.824 186.646,157.400 185.888 C 158.500 185.809,159.760 185.715,160.200 185.680 C 160.640 185.645,162.155 185.783,163.567 185.987 M243.210 185.993 C 245.573 186.336,247.558 187.007,249.200 188.021 C 249.530 188.225,250.453 188.746,251.251 189.179 C 256.519 192.038,260.755 199.958,261.078 207.557 C 261.581 219.388,257.286 227.052,247.400 231.966 C 244.516 233.399,235.633 233.475,232.722 232.092 C 231.689 231.601,230.725 231.200,230.579 231.200 C 230.008 231.200,225.118 227.034,223.844 225.462 C 212.584 211.574,220.229 187.927,236.600 186.004 C 240.170 185.585,240.381 185.584,243.210 185.993 " stroke="none" fill="#fafbfc" fill-rule="evenodd"></path><path id="path1" d="M0.000 200.000 L 0.000 400.000 200.000 400.000 L 400.000 400.000 400.000 200.000 L 400.000 0.000 200.000 0.000 L 0.000 0.000 0.000 200.000 M169.452 116.200 C 171.046 119.280,172.414 121.960,172.493 122.155 C 172.574 122.354,176.130 122.198,180.618 121.798 C 194.512 120.559,218.728 120.887,225.400 122.404 C 227.059 122.781,227.610 122.344,228.805 119.700 C 229.477 118.215,230.174 116.730,230.353 116.400 C 230.533 116.070,231.266 114.674,231.982 113.297 C 232.811 111.703,233.596 110.716,234.143 110.579 C 236.167 110.071,251.801 113.500,260.000 116.250 C 260.990 116.582,262.442 117.015,263.226 117.213 C 264.011 117.410,265.181 117.846,265.826 118.183 C 266.472 118.520,267.332 118.796,267.738 118.798 C 268.144 118.799,268.954 119.068,269.538 119.395 C 270.122 119.722,271.320 120.246,272.200 120.560 C 278.781 122.909,282.945 124.938,283.960 126.292 C 284.417 126.901,284.932 127.580,285.103 127.800 C 286.513 129.608,291.080 136.977,292.913 140.400 C 293.561 141.610,294.307 142.870,294.571 143.200 C 295.020 143.760,303.306 160.443,304.008 162.200 C 304.184 162.640,304.677 163.810,305.104 164.800 C 307.270 169.821,311.289 181.523,313.141 188.200 C 314.829 194.282,316.174 200.368,316.855 205.000 C 317.081 206.540,317.528 208.941,317.847 210.336 C 318.166 211.731,318.603 215.331,318.819 218.336 C 319.034 221.341,319.388 225.004,319.605 226.477 C 320.647 233.540,319.709 259.423,318.352 261.058 C 318.089 261.374,316.328 262.661,314.437 263.917 C 312.547 265.172,310.910 266.290,310.800 266.400 C 310.587 266.613,305.546 269.886,304.200 270.685 C 296.825 275.064,281.858 282.797,280.746 282.803 C 280.446 282.804,279.660 283.163,279.000 283.600 C 278.340 284.037,277.527 284.396,277.194 284.397 C 276.861 284.399,275.916 284.760,275.096 285.200 C 274.275 285.640,273.377 286.006,273.101 286.014 C 272.826 286.021,271.880 286.375,271.000 286.800 C 270.120 287.225,269.130 287.585,268.800 287.600 C 268.470 287.615,267.480 287.975,266.600 288.400 C 265.720 288.825,264.640 289.180,264.200 289.189 C 263.760 289.198,262.897 289.467,262.283 289.788 C 260.540 290.697,258.482 290.966,257.772 290.377 C 257.108 289.826,250.532 280.070,249.700 278.402 C 249.426 277.851,248.848 276.860,248.416 276.200 C 247.985 275.540,247.174 274.100,246.614 273.000 L 245.596 271.000 246.804 269.900 C 247.469 269.295,248.325 268.799,248.706 268.797 C 249.088 268.796,249.940 268.437,250.600 268.000 C 251.260 267.563,252.097 267.204,252.460 267.203 C 253.532 267.198,263.339 262.024,264.077 261.074 C 264.719 260.245,264.709 260.155,263.877 259.262 C 262.750 258.055,260.111 256.696,259.817 257.172 C 259.693 257.374,259.008 257.665,258.295 257.820 C 257.583 257.975,256.645 258.349,256.211 258.651 C 255.777 258.953,255.147 259.201,254.811 259.202 C 254.475 259.204,253.660 259.493,253.000 259.844 C 251.736 260.517,248.359 261.768,246.000 262.437 C 245.230 262.656,243.970 263.072,243.200 263.362 C 237.463 265.527,226.222 267.976,216.400 269.202 C 206.209 270.473,194.996 270.612,187.400 269.561 C 185.860 269.348,182.890 268.999,180.800 268.784 C 177.315 268.427,175.440 268.090,169.800 266.806 C 168.700 266.555,166.720 266.116,165.400 265.830 C 163.018 265.313,159.702 264.364,157.400 263.539 C 156.740 263.303,155.390 262.865,154.400 262.566 C 151.117 261.574,147.805 260.341,147.420 259.968 C 147.211 259.766,146.761 259.594,146.420 259.587 C 146.079 259.581,144.900 259.132,143.800 258.591 C 142.700 258.050,141.496 257.606,141.124 257.604 C 140.752 257.602,140.336 257.421,140.201 257.201 C 139.910 256.731,138.014 257.635,136.119 259.147 C 134.928 260.098,134.880 260.225,135.471 260.878 C 136.179 261.661,148.974 268.067,151.241 268.774 C 153.215 269.389,154.689 270.970,154.029 271.765 C 153.761 272.088,152.958 273.488,152.244 274.876 C 150.928 277.437,150.115 278.783,146.855 283.800 C 142.030 291.224,141.291 291.723,137.818 289.896 C 137.389 289.670,136.219 289.250,135.218 288.963 C 132.508 288.186,129.553 287.189,128.200 286.595 C 124.811 285.105,122.062 284.000,121.750 284.002 C 121.557 284.003,120.140 283.392,118.600 282.643 C 115.954 281.358,110.738 278.895,108.720 277.977 C 108.214 277.747,107.080 277.129,106.200 276.603 C 105.320 276.078,103.573 275.104,102.317 274.439 C 101.061 273.774,98.811 272.477,97.317 271.558 C 95.823 270.638,93.430 269.183,92.000 268.324 C 90.570 267.465,88.590 266.152,87.600 265.408 C 86.610 264.663,85.620 264.037,85.400 264.018 C 85.180 263.999,84.138 263.222,83.084 262.292 L 81.168 260.600 80.592 255.400 C 79.467 245.253,79.963 225.593,81.631 214.200 C 81.856 212.660,82.289 209.690,82.594 207.600 C 82.898 205.510,83.416 202.630,83.744 201.200 C 85.058 195.487,85.274 194.524,85.675 192.600 C 85.904 191.500,86.326 189.970,86.611 189.200 C 86.896 188.430,87.402 186.720,87.734 185.400 C 88.804 181.153,90.567 175.680,91.449 173.868 C 91.752 173.245,92.000 172.522,92.000 172.262 C 92.000 172.001,92.360 171.116,92.800 170.296 C 93.240 169.475,93.600 168.554,93.600 168.250 C 93.600 167.672,94.748 164.972,97.043 160.151 C 97.790 158.584,98.400 157.170,98.400 157.009 C 98.400 156.642,102.115 149.152,103.364 147.000 C 103.875 146.120,104.902 144.298,105.647 142.951 C 108.357 138.046,111.260 133.210,111.632 132.980 C 111.841 132.851,112.279 132.173,112.605 131.473 C 112.931 130.773,113.514 129.727,113.899 129.149 C 114.285 128.571,114.952 127.539,115.382 126.855 C 115.813 126.172,116.750 125.335,117.465 124.996 C 118.181 124.656,118.874 124.203,119.007 123.989 C 119.139 123.775,119.559 123.600,119.939 123.600 C 120.320 123.600,121.254 123.285,122.015 122.899 C 122.777 122.514,124.750 121.681,126.400 121.049 C 128.050 120.417,129.940 119.676,130.600 119.403 C 131.939 118.850,134.874 117.847,137.600 117.012 C 138.590 116.709,140.660 116.074,142.200 115.601 C 143.740 115.129,145.720 114.559,146.600 114.335 C 147.480 114.111,149.370 113.605,150.800 113.210 C 156.088 111.747,162.964 110.450,164.977 110.534 L 166.555 110.600 169.452 116.200 M157.400 185.888 C 146.824 186.646,138.969 196.870,139.030 209.800 L 139.060 216.200 140.974 220.200 C 148.078 235.047,165.432 237.871,175.796 225.867 C 176.820 224.680,177.883 223.280,178.158 222.755 C 178.433 222.230,178.869 221.440,179.126 221.000 C 180.911 217.949,181.734 212.929,181.415 207.037 C 181.178 202.676,181.028 202.123,178.851 197.628 C 175.608 190.929,166.612 185.167,160.200 185.680 C 159.760 185.715,158.500 185.809,157.400 185.888 M236.600 186.004 C 220.229 187.927,212.584 211.574,223.844 225.462 C 225.118 227.034,230.008 231.200,230.579 231.200 C 230.725 231.200,231.689 231.601,232.722 232.092 C 239.066 235.106,249.176 232.608,254.847 226.625 C 264.652 216.281,262.643 195.360,251.251 189.179 C 250.453 188.746,249.530 188.225,249.200 188.021 C 247.558 187.007,245.573 186.336,243.210 185.993 C 240.381 185.584,240.170 185.585,236.600 186.004 " stroke="none" fill="#5c64f4" fill-rule="evenodd"></path></g></svg>