<svg version="1.1" id="svg59" width="32" height="32" xmlns="http://www.w3.org/2000/svg"><g id="g65"><g id="g2308"><path style="fill:#d2dd76;fill-opacity:1" d="m15 12.5.6-.4.9-.1h2l.9.1.6.4.5.5.5.5.5.5.4.6.1.9v2l-.1.9q-.1.4-.4.6l-.5.5-.6.4q-.4.1-.8 0t-.6-.4l-.6-.4-.8-.2q-.4-.1-.6-.4l-.5-.5-.5-.5-.5-.5-.4-.6-.2-.8-.4-.6-.4-.6q-.1-.4 0-.8l.4-.6.5-.5" id="path2316"/><path style="fill:#3c7141;fill-opacity:1" d="m11 12.5.6-.4.4-.1v.5l-.1.9-.4.6-.5.5-.5.5-.4.6-.2.8-.4.6-.4.6-.2.8-.4.6-.4.6-.1.9.1.9.4.6.4.6.2.8.4.6.5.5.5.5.5.5.6.4.8.2.6.4.6.4.9.1h3l.9-.1q.4-.1.6-.4l.6-.4.8-.2q.4-.1.6-.4l.6-.4.8-.2q.4-.1.6-.4l.5-.5.5-.5.6-.4.4-.1v.5l-.1.9q-.1.4-.4.6l-.4.6-.2.8q-.1.4-.4.6l-.5.5-.5.5-.5.5-.5.5-.5.5-.6.4-.8.2q-.4.1-.6.4l-.6.4-.9.1h-5l-.9-.1-.6-.4-.6-.4-.8-.2-.6-.4-.5-.5-.5-.5-.5-.5-.5-.5-.5-.5-.4-.6-.2-.8-.4-.6-.4-.6-.1-.9v-4l.1-.9.4-.6.4-.6.2-.8.4-.6.5-.5.5-.5.5-.5.5-.5.5-.5.6-.4.8-.2.6-.4m14 10.9v-.6 1-.4m-13-11v-.7 1.1-.4" id="path2314"/><path style="fill:#84a94b;fill-opacity:1" d="m9 1.5.6-.4.9-.1.9.1.6.4.6.4.8.2.6.4.6.4.8.2.6.4.5.5.5.5.5.5.5.5.5.5.5.5.5.5.4.6.2.8.4.6.5.5.5.5.4.6.2.8.4.6.4.6.2.8.4.6.4.6.2.8.4.6.4.6.1.9V23l-.4.1q-.4.1-.6.4l-.5.5-.5.5-.6.4-.8.2q-.4.1-.6.4l-.6.4-.8.2q-.4.1-.6.4l-.6.4-.9.1h-3l-.9-.1-.6-.4-.6-.4-.8-.2-.6-.4-.5-.5-.5-.5-.5-.5-.4-.6-.2-.8-.4-.6-.4-.6-.1-.9.1-.9.4-.6.4-.6.2-.8.4-.6.4-.6.2-.8.4-.6.5-.5.5-.5.4-.6.1-.9v-2l-.1-.9-.4-.6-.4-.6-.1-.9-.1-.9-.4-.6-.5-.5-.5-.5-.5-.5-.5-.5-.4-.6q-.1-.4 0-.8l.4-.6.5-.5m10.6 18.4q.4.1.8 0t.6-.4l.5-.5.4-.6.1-.9v-2l-.1-.9-.4-.6-.5-.5-.5-.5-.5-.5-.6-.4-.9-.1h-2l-.9.1-.6.4-.5.5-.4.6q-.1.4 0 .8l.4.6.4.6.2.8.4.6.5.5.5.5.5.5.6.4.8.2q.4.1.6.4l.6.4M25 23v-.9 1.1-.2" id="path2312"/><path style="fill:#000;fill-opacity:0" d="M0 .5V0h32v32H0V.5M17.5 31l.9-.1q.4-.1.6-.4l.6-.4.8-.2q.4-.1.6-.4l.5-.5.5-.5.5-.5.5-.5.5-.5.4-.6.2-.8q.1-.4.4-.6l.4-.6.1-.9v-6l-.1-.9q-.1-.4-.4-.6l-.4-.6-.2-.8-.4-.6-.4-.6-.2-.8-.4-.6-.4-.6-.2-.8-.4-.6-.5-.5-.5-.5-.4-.6-.2-.8-.4-.6-.5-.5-.5-.5-.5-.5-.5-.5-.5-.5-.5-.5-.5-.5-.6-.4-.8-.2-.6-.4-.6-.4-.8-.2-.6-.4-.6-.4-.9-.1-.9.1-.6.4-.5.5-.4.6q-.1.4 0 .8l.4.6.5.5.5.5.5.5.5.5.4.6.1.9.1.9.4.6.4.6.1.9V12l-.4.1-.6.4-.6.4-.8.2-.6.4-.5.5-.5.5-.5.5-.5.5-.5.5-.4.6-.2.8-.4.6-.4.6-.1.9v4l.1.9.4.6.4.6.2.8.4.6.5.5.5.5.5.5.5.5.5.5.6.4.8.2.6.4.6.4.9.1h5M12 12.1v-.8 1-.2" id="path2310"/></g></g></svg>