<svg xmlns="http://www.w3.org/2000/svg" viewBox="0 0 32 32"><path d="M0 .5V0h32v32H0V.5M17.5 31l.9-.1q.4-.1.6-.4t.6-.4l.8-.2q.4-.1.6-.4l.5-.5.5-.5.5-.5.5-.5.5-.5.4-.6.2-.8q.1-.4.4-.6t.4-.6l.1-.9v-6l-.1-.9q-.1-.4-.4-.6t-.4-.6l-.2-.8-.4-.6-.4-.6-.2-.8-.4-.6-.4-.6-.2-.8-.4-.6-.5-.5-.5-.5-.4-.6-.2-.8-.4-.6-.5-.5-.5-.5-.5-.5-.5-.5-.5-.5-.5-.5-.5-.5-.6-.4-.8-.2-.6-.4-.6-.4-.8-.2-.6-.4-.6-.4-.9-.1-.9.1-.6.4-.5.5-.4.6v.8l.4.6.5.5.5.5.5.5.5.5.4.6.1.9.1.9.4.6.4.6.1.9v1q0 .5-.4.6t-.6.4-.6.4l-.8.2-.6.4-.5.5-.5.5-.5.5-.5.5-.5.5-.4.6-.2.8-.4.6-.4.6-.1.9v4l.1.9q.1.4.4.6t.4.6l.2.8.4.6.5.5.5.5.5.5.5.5.5.5.6.4.8.2.6.4.6.4.9.1h5" fill="none"/><path d="m9 1.5.6-.4.9-.1.9.1q.4.1.6.4t.6.4l.8.2.6.4.6.4.8.2.6.4.5.5.5.5.5.5.5.5.5.5.5.5.5.5.4.6.2.8.4.6.5.5.5.5.4.6.2.8.4.6.4.6.2.8.4.6.4.6.2.8.4.6.4.6.1.9V23l-.4.1q-.4.1-.6.4l-.5.5-.5.5-.6.4-.8.2q-.4.1-.6.4t-.6.4l-.8.2q-.4.1-.6.4t-.6.4l-.9.1h-3l-.9-.1q-.4-.1-.6-.4t-.6-.4l-.8-.2-.6-.4-.5-.5-.5-.5-.5-.5-.5-.5-.5-.5-.4-.6-.1-.9v-1l.1-.9q.1-.4.4-.6t.4-.6l.2-.8.4-.6.4-.6.2-.8.4-.6.5-.5.5-.5.4-.6v-1.5.2-.2l.1-.4v-.3.8-1.5l-.1-.9q-.1-.4-.4-.6t-.4-.6l-.1-.9-.1-.9-.4-.6-.5-.5-.5-.5-.5-.5-.5-.5-.4-.6v-.8l.4-.6.5-.5m10.6 18.4q.4.1.8 0t.6-.4l.5-.5.4-.6.1-.9v-2l-.1-.9q-.1-.4-.4-.6l-.5-.5-.5-.5-.5-.5-.6-.4-.9-.1h-2l-.9.1q-.4.1-.6.4l-.5.5-.4.6v.8l.4.6.4.6.2.8q.2.4.5.5l.8.2q.4.1.5.5l.2.8q.1.4.5.5l.8.2q.4.1.6.4t.6.4M25 23v-.9 1" fill="#87ceeb"/><path d="m11 12.5.6-.4.4-.1h-.3l-.3.2h.2l.3-.3.1-.2v.8l-.1.9q-.1.4-.4.6l-.5.5-.5.5-.4.6-.2.8-.4.6-.4.6-.2.8-.4.6-.4.6-.1.9v1l.1.9q.1.4.4.6l.5.5.5.5.5.5.5.5.5.5.6.4.8.2.6.4.6.4.9.1h3l.9-.1q.4-.1.6-.4t.6-.4l.8-.2q.4-.1.6-.4t.6-.4l.8-.2q.4-.1.6-.4l.5-.5.5-.5.6-.4.4-.1v.5l-.1.9q-.1.4-.4.6t-.4.6l-.2.8q-.1.4-.4.6l-.5.5-.5.5-.5.5-.5.5-.5.5-.6.4-.8.2q-.4.1-.6.4t-.6.4l-.9.1h-5l-.9-.1q-.4-.1-.6-.4t-.6-.4l-.8-.2-.6-.4-.5-.5-.5-.5-.5-.5-.5-.5-.5-.5-.4-.6-.2-.8-.4-.6-.4-.6-.1-.9v-4l.1-.9q.1-.4.4-.6t.4-.6l.2-.8.4-.6.5-.5.5-.5.5-.5.5-.5.5-.5.6-.4.8-.2.6-.4m14 10.9v-.6 1-.4" fill="#6586b0"/><path d="m15 12.5.6-.4.9-.1h2l.9.1q.4.1.6.4l.5.5.5.5.5.5.4.6.1.9v2l-.1.9q-.1.4-.4.6l-.5.5-.6.4h-.8q-.4-.1-.6-.4t-.6-.4l-.8-.2q-.4-.1-.5-.5l-.2-.8q-.1-.4-.5-.5l-.8-.2q-.3-.1-.5-.5l-.2-.8-.4-.6-.4-.6q-.1-.4 0-.8t.4-.6l.5-.5" fill="#c0ecff"/></svg>