<svg version="1.1" id="svg2408" width="32" height="32" xmlns="http://www.w3.org/2000/svg"><g id="g2414"><g id="g2418"><path style="fill:#9e172c;fill-opacity:1" d="m21 22.5.6-.4.9-.1.9.1q.4.1.6.4l.6.4.4.1v1.5l-.1.9q-.1.4-.4.6l-.4.6-.2.8q-.1.4-.4.6l-.5.5-.5.5-.5.5-.6.4-.9.1h-1l-.9-.1q-.4-.1-.6-.4l-.5-.5-.4-.6-.1-.9.1-.9q.1-.4.4-.6l.5-.5.5-.5.5-.5.5-.5.5-.5.5-.5.5-.5m4 .9v-.6 1-.4" id="path2430"/><path style="fill:#9e172c;fill-opacity:1" d="m13 18.5.6-.4.9-.1.9.1.6.4.5.5.5.5.5.5.4.6q.1.4 0 .8t-.4.6l-.5.5-.5.5-.5.5-.6.4-.9.1-.9-.1-.6-.4-.5-.5-.5-.5-.5-.5-.4-.6q-.1-.4 0-.8l.4-.6.5-.5.5-.5.5-.5" id="path2428"/><path style="fill:#f98f4a;fill-opacity:1" d="m15 12.5.6-.4.9-.1h2l.9.1.6.4.5.5.5.5.5.5.4.6q.1.4 0 .8l-.4.6-.5.5-.5.5-.5.5-.6.4q-.4.1-.8 0t-.6-.4l-.6-.4-.8-.2q-.4-.1-.6-.4l-.5-.5-.5-.5-.5-.5-.4-.6q-.1-.4 0-.8l.4-.6.5-.5" id="path2426"/><path style="fill:#9e172c;fill-opacity:1" d="m6 11.5.6-.4.9-.1.9.1.6.4.6.4.8.2.6.4.6.4.4.1v.5l-.1.9-.4.6-.5.5-.5.5-.5.5-.5.5-.4.6-.2.8-.4.6-.4.6-.1.9.1.9.4.6.4.6.2.8.4.6.5.5.6.4.8.2.6.4.5.5.5.5.5.5.4.6q.1.4 0 .8-.2.4-.5.5l-.8.2-.6.4-.6.4-.8.2-.6.4-.6.4-.9.1h-1l-.9-.1-.6-.4-.5-.5-.5-.5-.5-.5-.5-.5-.5-.5-.4-.6-.1-.9v-1l.1-.9q.1-.4.4-.6l.5-.5.5-.5.4-.6.2-.8.4-.6.4-.6q.1-.4 0-.8l-.4-.6-.4-.6-.2-.8-.4-.6-.4-.6-.1-.9v-1l.1-.9.4-.6.5-.5.5-.5.5-.5m6 1.9v-.7 1.1-.4" id="path2424"/><path style="fill:#e05438;fill-opacity:1" d="m10 1.5.6-.4.9-.1h1l.9.1.6.4.5.5.5.5.5.5.5.5.5.5.5.5.5.5.5.5.5.5.5.5.5.5.4.6.2.8.4.6.5.5.5.5.4.6.2.8.4.6.4.6.2.8.4.6.4.6.2.8.4.6.4.6.1.9V23l-.4-.1q-.4-.1-.6-.4l-.6-.4-.9-.1-.9.1q-.4.1-.6.4l-.5.5-.5.5-.5.5-.5.5-.5.5-.5.5-.5.5-.4.6-.1.9v.5-.8 1-.2H14v.2-.8.3l.1.3-.1-.4-.4-.6-.5-.5-.5-.5-.5-.5-.6-.4-.8-.2-.6-.4-.5-.5-.4-.6-.2-.8-.4-.6-.4-.6-.1-.9.1-.9.4-.6.4-.6.2-.8.4-.6.5-.5.5-.5.5-.5.5-.5.4-.6.1-.9v-3l-.1-.9-.4-.6-.4-.6-.1-.9-.1-.9-.4-.6-.4-.6-.2-.8-.4-.6-.4-.6q-.1-.4 0-.8l.4-.6.5-.5M14.5 24l.9-.1.6-.4.5-.5.5-.5.5-.5.4-.6q.1-.4 0-.8t-.4-.6l-.5-.5-.5-.5-.5-.5-.6-.4-.9-.1-.9.1-.6.4-.5.5-.5.5-.5.5-.4.6q-.1.4 0 .8l.4.6.5.5.5.5.5.5.6.4.9.1m4.1-6.1q.4.1.8 0t.6-.4l.5-.5.5-.5.5-.5.4-.6q.1-.4 0-.8l-.4-.6-.5-.5-.5-.5-.5-.5-.6-.4-.9-.1h-2l-.9.1-.6.4-.5.5-.4.6q-.1.4 0 .8l.4.6.5.5.5.5.5.5.6.4.8.2q.4.1.6.4l.6.4M25 23v-.9 1.1-.2" id="path2422"/><path style="fill:#000;fill-opacity:0" d="M0 .5V0h32v32H0V.5M8.5 31l.9-.1.6-.4.6-.4.8-.2.6-.4.6-.4.8-.2q.3-.1.5-.5l.1-.4v.3l-.2.3v-.2l.1-.4v-.2.2H17v-.2.2l.1.4v.2-.3L17 28l.1.4q.1.4.4.6l.5.5.6.4.9.1h1l.9-.1q.4-.1.6-.4l.5-.5.5-.5.5-.5.4-.6.2-.8q.1-.4.4-.6l.4-.6.1-.9v-7l-.1-.9q-.1-.4-.4-.6l-.4-.6-.2-.8-.4-.6-.4-.6-.2-.8-.4-.6-.4-.6-.2-.8-.4-.6-.5-.5-.5-.5-.4-.6-.2-.8-.4-.6-.5-.5-.5-.5-.5-.5-.5-.5-.5-.5-.5-.5-.5-.5-.5-.5-.5-.5-.5-.5-.5-.5-.6-.4-.9-.1h-1l-.9.1-.6.4-.5.5-.4.6q-.1.4 0 .8l.4.6.4.6.2.8.4.6.4.6.1.9.1.9.4.6.4.6.1.9V13l-.4-.1-.6-.4-.6-.4-.8-.2-.6-.4-.6-.4-.9-.1-.9.1-.6.4-.5.5-.5.5-.5.5-.4.6-.1.9v1l.1.9.4.6.4.6.2.8.4.6.4.6q.1.4 0 .8l-.4.6-.4.6-.2.8-.4.6-.5.5-.5.5-.4.6-.1.9v1l.1.9q.1.4.4.6l.5.5.5.5.5.5.5.5.5.5.6.4.9.1h1M12 13.1v-.8 1-.2" id="path2420"/></g></g></svg>