<svg xmlns="http://www.w3.org/2000/svg" viewBox="0 0 32 32"><path d="M0 .5V0h32v32H0V.5M18.5 31q.5 0 .5-.5t.5-.5h1q.5 0 .5-.5t.5-.5.5-.5.5-.5.5-.5.5-.5.5-.5v-1q0-.5.5-.5t.5-.5q0-.5.125-.875t-.1563-.6563l-.2812-.2812-.0625.0625-.0625.0625.125-.125q.125-.125.1875-.3125l.0625-.1875-.0938.2813-.0937.2812.125-.375Q25 22 25 21.5v-1-1-1-1q0-.5-.125-.875T24.5 16t-.375-.625l-.25-.75Q23.75 14.25 23.5 14t-.375-.625l-.25-.75Q22.75 12.25 22.5 12t-.375-.625l-.25-.75Q21.75 10.25 21.5 10l-.5-.5-.5-.5q-.25-.25-.375-.625l-.25-.75Q19.75 7.25 19.5 7l-.5-.5-.5-.5-.5-.5-.5-.5-.5-.5-.5-.5-.5-.5q-.25-.25-.625-.375l-.75-.25Q14.25 2.75 14 2.5t-.625-.375l-.75-.25Q12.25 1.75 12 1.5t-.625-.375Q11 1 10.5 1t-.875.125Q9.25 1.25 9 1.5l-.5.5q-.25.25-.375.625t0 .75Q8.25 3.75 8.5 4l.5.5.5.5.5.5.5.5q.25.25.375.625T11 7.5t.125.875q.125.375.375.625t.375.625Q12 10 12 10.5t-.125.875q-.125.375-.5.5T11 12.5q0 .5-.5.5h-1q-.5 0-.5.5t-.5.5-.5.5-.5.5-.5.5-.5.5-.5.5v1q0 .5-.5.5t-.5.5v6q0 .5.5.5t.5.5v1q0 .5.5.5t.5.5.5.5.5.5.5.5.5.5.5.5h1q.5 0 .5.5t.5.5h7" fill="none"/><path d="M9 1.5q.25-.25.625-.375T10.5 1q.5 0 .875.125T12 1.5t.625.375l.75.25q.375.125.625.375t.625.375l.75.25q.375.125.625.375l.5.5.5.5.5.5.5.5.5.5.5.5.5.5q.25.25.375.625l.25.75q.125.375.375.625l.5.5.5.5q.25.25.375.625l.25.75q.125.375.375.625t.375.625l.25.75q.125.375.375.625t.375.625l.25.75q.125.375.375.625t.375.625Q25 17 25 17.5v4q0 .5-.125.875t-.5.5Q24 23 24 23.5t-.5.5-.5.5-.5.5h-1q-.5 0-.5.5t-.5.5h-1q-.5 0-.5.5t-.5.5h-5q-.5 0-.5-.5t-.5-.5h-1q-.5 0-.5-.5t-.5-.5-.5-.5-.5-.5-.5-.5-.5-.5-.5-.5v-1-1-1q0-.5.5-.5t.5-.5v-1q0-.5.5-.5t.5-.5v-1q0-.5.5-.5t.5-.5.5-.5.5-.5q0-.5.125-.875t-.1563-.6563l-.2812-.2812-.0625.0625-.0625.0625.125-.125q.125-.125.1875-.3125l.0625-.1875-.0938.2813-.0937.2812.125-.375Q12 11 12 10.5t-.125-.875Q11.75 9.25 11.5 9t-.375-.625Q11 8 11 7.5t-.125-.875Q10.75 6.25 10.5 6l-.5-.5-.5-.5-.5-.5-.5-.5q-.25-.25-.375-.625t0-.75Q8.25 2.25 8.5 2l.5-.5M20.5 20q.5 0 .5-.5t.5-.5.5-.5v-1-1-1-1q0-.5-.5-.5t-.5-.5-.5-.5-.5-.5-.5-.5h-4q-.5 0-.5.5t-.5.5-.5.5v1q0 .5.5.5t.5.5v1q0 .5.5.5h1q.5 0 .5.5v1q0 .5.5.5h1q.5 0 .5.5t.5.5h1" fill="#313131"/><path d="M11 12.5q0-.5.375-.625l.375-.125-.2813.0938-.2812.0937.1875-.0625q.1875-.0625.3125-.1875l.125-.125-.0625.0625-.0625.0625.2813.2813q.2812.2812.1562.6562T12 13.5q0 .5-.5.5t-.5.5-.5.5-.5.5v1q0 .5-.5.5t-.5.5v1q0 .5-.5.5t-.5.5v3q0 .5.5.5t.5.5.5.5.5.5.5.5.5.5.5.5h1q.5 0 .5.5t.5.5h5q.5 0 .5-.5t.5-.5h1q.5 0 .5-.5t.5-.5h1q.5 0 .5-.5t.5-.5.5-.5q0-.5.375-.625l.375-.125-.2813.0938-.2812.0937.1875-.0625q.1875-.0625.3125-.1875l.125-.125-.0625.0625-.0625.0625.2813.2813q.2812.2812.1562.6562T25 24.5q0 .5-.5.5t-.5.5v1q0 .5-.5.5t-.5.5-.5.5-.5.5-.5.5-.5.5-.5.5h-1q-.5 0-.5.5t-.5.5h-7q-.5 0-.5-.5t-.5-.5h-1q-.5 0-.5-.5t-.5-.5-.5-.5-.5-.5-.5-.5-.5-.5-.5-.5v-1q0-.5-.5-.5t-.5-.5v-1-1-1-1-1-1q0-.5.5-.5t.5-.5v-1q0-.5.5-.5t.5-.5.5-.5.5-.5.5-.5.5-.5.5-.5h1q.5 0 .5-.5" fill="#1d1d23"/><path d="M15 12.5q0-.5.5-.5h4q.5 0 .5.5t.5.5.5.5.5.5.5.5v4q0 .5-.5.5t-.5.5-.5.5h-1q-.5 0-.5-.5t-.5-.5h-1q-.5 0-.5-.5v-1q0-.5-.5-.5h-1q-.5 0-.5-.5v-1q0-.5-.5-.5t-.5-.5v-1q0-.5.5-.5t.5-.5" fill="#61615b"/></svg>