<svg xmlns="http://www.w3.org/2000/svg" viewBox="0 0 32 32"><path d="M0 .5V0h32v32H0V.5M18.5 31q.5 0 .5-.5t.5-.5h1q.5 0 .5-.5t.5-.5.5-.5.5-.5.5-.5.5-.5.5-.5v-1q0-.5.5-.5t.5-.5l.1-.9q.1-.4-.1-.6l-.3-.3-.1.1v-.1l.3-.3v-.2.3l-.2.3.2-.4.1-.9v-4l-.1-.9q-.1-.4-.4-.6t-.4-.6l-.2-.8-.4-.6-.4-.6-.2-.8-.4-.6-.4-.6-.2-.8-.4-.6-.5-.5-.5-.5-.4-.6-.2-.8-.4-.6-.5-.5-.5-.5-.5-.5-.5-.5-.5-.5-.5-.5-.5-.5-.6-.4-.8-.2-.6-.4-.6-.4-.8-.2-.6-.4-.6-.4-.9-.1-.9.1-.6.4-.5.5-.4.6v.8l.4.6.5.5.5.5.5.5.5.5.4.6.1.9.1.9.4.6.4.6.1.9-.1.9-.5.5q-.3.2-.4.6 0 .5-.5.5h-1q-.5 0-.5.5t-.5.5-.5.5-.5.5-.5.5-.5.5-.5.5v1q0 .5-.5.5t-.5.5v6q0 .5.5.5t.5.5v1q0 .5.5.5t.5.5.5.5.5.5.5.5.5.5.5.5h1q.5 0 .5.5t.5.5h7" fill="none"/><path d="m9 1.5.6-.4.9-.1.9.1q.4.1.6.4t.6.4l.8.2.6.4.6.4.8.2.6.4.5.5.5.5.5.5.5.5.5.5.5.5.5.5.4.6.2.8.4.6.5.5.5.5.4.6.2.8.4.6.4.6.2.8.4.6.4.6.2.8.4.6.4.6.1.9v4l-.1.9q-.1.4-.5.5-.4.1-.4.6t-.5.5-.5.5-.5.5h-1q-.5 0-.5.5t-.5.5h-1q-.5 0-.5.5t-.5.5h-5q-.5 0-.5-.5t-.5-.5h-1q-.5 0-.5-.5t-.5-.5-.5-.5-.5-.5-.5-.5-.5-.5-.5-.5v-3q0-.5.5-.5t.5-.5v-1q0-.5.5-.5t.5-.5v-1q0-.5.5-.5t.5-.5.5-.5.5-.5l.1-.9q.1-.4-.1-.6l-.3-.3-.1.1v-.1l.3-.3v-.2.3l-.2.2.2-.3.1-.9-.1-.9-.4-.6-.4-.6-.1-.9-.1-.9-.4-.6-.5-.5-.5-.5-.5-.5-.5-.5-.4-.6v-.8l.4-.6.5-.5M20.5 20q.5 0 .5-.5t.5-.5.5-.5v-4q0-.5-.5-.5t-.5-.5-.5-.5-.5-.5-.5-.5h-4q-.5 0-.5.5t-.5.5-.5.5v1q0 .5.5.5t.5.5v1q0 .5.5.5h1q.5 0 .5.5v1q0 .5.5.5h1q.5 0 .5.5t.5.5h1" fill="#313131"/><path d="M11 12.5q0-.5.4-.6l.3-.2-.2.1-.3.1h.2q.2 0 .3-.2l.1-.1h-.1l.3.4q.2.2.1.6t-.1.9q0 .5-.5.5t-.5.5-.5.5-.5.5v1q0 .5-.5.5t-.5.5v1q0 .5-.5.5t-.5.5v3q0 .5.5.5t.5.5.5.5.5.5.5.5.5.5.5.5h1q.5 0 .5.5t.5.5h5q.5 0 .5-.5t.5-.5h1q.5 0 .5-.5t.5-.5h1q.5 0 .5-.5t.5-.5.5-.5q0-.5.4-.6l.4-.1h-.3l-.3.1h.2q.2 0 .3-.2l.1-.1h-.1l.3.4q.3.3.1.6t-.1.9q0 .5-.5.5t-.5.5v1q0 .5-.5.5t-.5.5-.5.5-.5.5-.5.5-.5.5-.5.5h-1q-.5 0-.5.5t-.5.5h-7q-.5 0-.5-.5t-.5-.5h-1q-.5 0-.5-.5t-.5-.5-.5-.5-.5-.5-.5-.5-.5-.5-.5-.5v-1q0-.5-.5-.5t-.5-.5v-6q0-.5.5-.5t.5-.5v-1q0-.5.5-.5t.5-.5.5-.5.5-.5.5-.5.5-.5.5-.5h1q.5 0 .5-.5" fill="#1d1d23"/><path d="M15 12.5q0-.5.5-.5h4q.5 0 .5.5t.5.5.5.5.5.5.5.5v4q0 .5-.5.5t-.5.5-.5.5h-1q-.5 0-.5-.5t-.5-.5h-1q-.5 0-.5-.5v-1q0-.5-.5-.5h-1q-.5 0-.5-.5v-1q0-.5-.5-.5t-.5-.5v-1q0-.5.5-.5t.5-.5" fill="#61615b"/></svg>