<svg version="1.1" id="svg2469" width="32" height="32" xmlns="http://www.w3.org/2000/svg"><g id="g2475"><g id="g2479"><path style="fill:#fc81dd;fill-opacity:1" d="m5.1 8.6.5-.5L6 8h-.3l-.3.2h.2l.3-.3h.2H6v.4l.5.7.5.5.5.5.5.5.5.5.5.5.5.5q.3.3.4.7l.2.4v-.2.2l-.1.4v.3-.8 4.5l.1.9.4.6.4.6.2.8.4.6.5.5.5.5.5.5.5.5.5.5.6.4.8.2.6.4.6.4.9.1h2l.9-.1q.4-.1.6-.4l.6-.4q.4-.1.8 0t.6.4l.5.5.4.6q.1.4 0 .8t-.4.6l-.5.5-.6.4-.8.2q-.4.1-.6.4l-.6.4-.8.2q-.4.1-.6.4l-.6.4-.9.1h-2l-.9-.1-.6-.4-.6-.4-.9-.1-.9-.1-.6-.4-.6-.4-.8-.2-.6-.4-.5-.5-.5-.5-.5-.5-.5-.5-.5-.5-.5-.5-.5-.5-.4-.6-.2-.8-.4-.6-.4-.6-.1-.9-.1-.9q-.1-.4-.4-.6l-.4-.6-.1-.9v-3l.1-.9.4-.6.4-.6.1-.9.1-.9.4-.6.4-.6.2-.8" id="path2485"/><path style="fill:#ffbdd4;fill-opacity:1" d="m12 3.5.6-.4.9-.1h5l.9.1q.4.1.6.4l.6.4.8.2.6.4.6.4.8.2.6.4.5.5.5.5.5.5.4.6.2.8.4.6.4.6.2.8.4.6.4.6.1.9v3l-.1.9q-.1.4-.4.6l-.4.6-.2.8q-.1.4-.4.6l-.5.5-.6.4-.8.2q-.4.1-.6.4l-.6.4-.8.2q-.4.1-.6.4l-.6.4-.9.1h-3l-.9-.1q-.4-.1-.6-.4l-.5-.5-.5-.5-.5-.5-.5-.5-.5-.5-.4-.6-.1-.9v-2l.1-.9.4-.6.4-.6.2-.8.4-.6.5-.5.6-.4.9-.1.9.1.6.4.6.4q.4.1.8 0 .4-.2.4-.4 0-.3-.3-.5l-.5-.5-.5-.5-.5-.5-.6-.4-.9-.1h-1l-.9.1-.6.4-.6.4-.8.2-.6.4-.5.5-.4.6-.2.8-.5.5-.4.1h.3l.3-.2h-.2l-.3.3-.1.2V12.7l-.5-.7-.5-.5-.5-.5-.5-.5-.5-.5-.5-.5-.5-.5q-.3-.3-.4-.7L5.9 8V8l.2-.4v-.2.3L6 8l.1-.4.4-.6.5-.5.5-.5.5-.5.6-.4.8-.2.6-.4.6-.4.8-.2.6-.4" id="path2483"/><path style="fill:#000;fill-opacity:0" d="M0 .5V0h32v32H0V.5M17.5 30l.9-.1q.4-.1.6-.4l.6-.4.8-.2q.4-.1.6-.4l.6-.4.8-.2q.4-.1.6-.4l.5-.5.4-.6q.1-.4 0-.8t-.4-.6l-.5-.5-.6-.4q-.4-.1-.8 0t-.6.4l-.6.4-.9.1h-2l-.9-.1q-.4-.1-.6-.4l-.6-.4-.8-.2-.6-.4-.5-.5-.5-.5-.5-.5-.5-.5-.5-.5-.4-.6-.2-.8-.4-.6-.4-.6-.1-.9v-4q0-.5.4-.6l.5-.5.2-.8.4-.6.5-.5.6-.4.8-.2.6-.4.6-.4.9-.1h1l.9.1.6.4.5.5.5.5.5.5q.3.3.3.5 0 .3-.4.4-.4.1-.8 0l-.6-.4-.6-.4-.9-.1-.9.1-.6.4-.5.5-.4.6-.2.8-.4.6-.4.6-.1.9v2l.1.9.4.6.5.5.5.5.5.5.5.5.5.5.6.4.9.1h3l.9-.1q.4-.1.6-.4l.6-.4.8-.2q.4-.1.6-.4l.6-.4.8-.2q.4-.1.6-.4l.5-.5.4-.6.2-.8q.1-.4.4-.6l.4-.6.1-.9v-3l-.1-.9-.4-.6-.4-.6-.2-.8-.4-.6-.4-.6-.2-.8-.4-.6-.5-.5-.5-.5-.5-.5-.6-.4-.8-.2-.6-.4-.6-.4-.8-.2q-.4-.1-.6-.4l-.6-.4-.9-.1h-5l-.9.1-.6.4-.6.4-.8.2-.6.4-.6.4-.8.2-.6.4-.5.5-.5.5-.5.5-.4.6q-.1.4-.5.5l-.5.5-.2.8-.4.6-.4.6-.1.9-.1.9-.4.6-.4.6-.1.9v3l.1.9q.1.4.4.6l.4.6.1.9.1.9.4.6.4.6.2.8.4.6.5.5.5.5.5.5.5.5.5.5.5.5.5.5.6.4.8.2.6.4.6.4.9.1.9.1.6.4.6.4.9.1h2" id="path2481"/></g></g></svg>