<svg xmlns="http://www.w3.org/2000/svg" viewBox="0 0 32 32"><path d="M0 .5V0h32v32H0V.5M17.5 31q.5 0 .875-.125T19 30.5t.625-.375l.75-.25q.375-.125.625-.375l.5-.5.5-.5.5-.5.5-.5.5-.5q.25-.25.375-.625l.25-.75q.125-.375.375-.625t.375-.625Q25 24 25 23.5v-1-1-1-1-1-1q0-.5-.125-.875T24.5 16t-.375-.625l-.25-.75Q23.75 14.25 23.5 14t-.375-.625l-.25-.75Q22.75 12.25 22.5 12t-.375-.625l-.25-.75Q21.75 10.25 21.5 10l-.5-.5-.5-.5q-.25-.25-.375-.625l-.25-.75Q19.75 7.25 19.5 7l-.5-.5-.5-.5-.5-.5-.5-.5-.5-.5-.5-.5-.5-.5q-.25-.25-.625-.375l-.75-.25Q14.25 2.75 14 2.5t-.625-.375l-.75-.25Q12.25 1.75 12 1.5t-.625-.375Q11 1 10.5 1t-.875.125Q9.25 1.25 9 1.5l-.5.5q-.25.25-.375.625t0 .75Q8.25 3.75 8.5 4l.5.5.5.5.5.5.5.5q.25.25.375.625T11 7.5t.125.875q.125.375.375.625t.375.625Q12 10 12 10.5V12l-.375.125q-.375.125-.625.375t-.625.375l-.75.25Q9.25 13.25 9 13.5l-.5.5-.5.5-.5.5-.5.5-.5.5q-.25.25-.375.625l-.25.75Q5.75 17.75 5.5 18t-.375.625Q5 19 5 19.5v4q0 .5.125.875T5.5 25t.375.625l.25.75q.125.375.375.625l.5.5.5.5.5.5.5.5.5.5q.25.25.625.375l.75.25q.375.125.625.375t.625.375Q12 31 12.5 31h5M12 12.125v-.875 1-.125" fill="none"/><path d="M9 1.5q.25-.25.625-.375T10.5 1q.5 0 .875.125T12 1.5t.625.375l.75.25q.375.125.625.375t.625.375l.75.25q.375.125.625.375l.5.5.5.5.5.5.5.5.5.5.5.5.5.5q.25.25.375.625l.25.75q.125.375.375.625l.5.5.5.5q.25.25.375.625l.25.75q.125.375.375.625t.375.625l.25.75q.125.375.375.625t.375.625l.25.75q.125.375.375.625t.375.625Q25 17 25 17.5V23l-.375.125q-.375.125-.625.375l-.5.5-.5.5q-.25.25-.625.375l-.75.25q-.375.125-.625.375t-.625.375l-.75.25q-.375.125-.625.375t-.625.375Q18 27 17.5 27h-3q-.5 0-.875-.125T13 26.5t-.625-.375l-.75-.25Q11.25 25.75 11 25.5l-.5-.5-.5-.5-.5-.5-.5-.5-.5-.5q-.25-.25-.375-.625T8 21.5v-1q0-.5.125-.875T8.5 19t.375-.625l.25-.75Q9.25 17.25 9.5 17t.375-.625l.25-.75q.125-.375.375-.625l.5-.5.5-.5q.25-.25.375-.625T12 12.5v-1-1q0-.5-.125-.875T11.5 9t-.375-.625Q11 8 11 7.5t-.125-.875Q10.75 6.25 10.5 6l-.5-.5-.5-.5-.5-.5-.5-.5q-.25-.25-.375-.625t0-.75Q8.25 2.25 8.5 2l.5-.5M20.5 20q.5 0 .5-.5t.5-.5.5-.5v-1-1-1-1q0-.5-.5-.5t-.5-.5-.5-.5-.5-.5-.5-.5h-4q-.5 0-.5.5t-.5.5-.5.5v1q0 .5.5.5t.5.5v1q0 .5.5.5h1q.5 0 .5.5v1q0 .5.5.5h1q.5 0 .5.5t.5.5h1m4.5 3.125v-.875 1-.125" fill="#486acd"/><path d="M11 12.5q.25-.25.625-.375L12 12v.5q0 .5-.125.875T11.5 14l-.5.5-.5.5q-.25.25-.375.625l-.25.75Q9.75 16.75 9.5 17t-.375.625l-.25.75Q8.75 18.75 8.5 19t-.375.625Q8 20 8 20.5v1q0 .5.125.875T8.5 23l.5.5.5.5.5.5.5.5.5.5q.25.25.625.375l.75.25q.375.125.625.375t.625.375Q14 27 14.5 27h3q.5 0 .875-.125T19 26.5t.625-.375l.75-.25q.375-.125.625-.375t.625-.375l.75-.25q.375-.125.625-.375l.5-.5.5-.5q.25-.25.625-.375L25 23v.5q0 .5-.125.875T24.5 25t-.375.625l-.25.75q-.125.375-.375.625l-.5.5-.5.5-.5.5-.5.5-.5.5q-.25.25-.625.375l-.75.25q-.375.125-.625.375t-.625.375Q18 31 17.5 31h-5q-.5 0-.875-.125T11 30.5t-.625-.375l-.75-.25Q9.25 29.75 9 29.5l-.5-.5-.5-.5-.5-.5-.5-.5-.5-.5q-.25-.25-.375-.625l-.25-.75Q5.75 25.25 5.5 25t-.375-.625Q5 24 5 23.5v-1-1-1-1q0-.5.125-.875T5.5 18t.375-.625l.25-.75Q6.25 16.25 6.5 16l.5-.5.5-.5.5-.5.5-.5.5-.5q.25-.25.625-.375l.75-.25q.375-.125.625-.375m14 10.875v-.625 1-.375m-13-11v-.625 1-.375" fill="#363f9a"/><path d="M15 12.5q0-.5.5-.5h4q.5 0 .5.5t.5.5.5.5.5.5.5.5v4q0 .5-.5.5t-.5.5-.5.5h-1q-.5 0-.5-.5t-.5-.5h-1q-.5 0-.5-.5v-1q0-.5-.5-.5h-1q-.5 0-.5-.5v-1q0-.5-.5-.5t-.5-.5v-1q0-.5.5-.5t.5-.5" fill="#7090ea"/></svg>