<svg xmlns="http://www.w3.org/2000/svg" viewBox="0 0 32 32"><path d="M0 .5V0h32v32H0V.5M17.5 31l.9-.1q.4-.1.6-.4t.6-.4l.8-.2q.4-.1.6-.4l.5-.5.5-.5.5-.5.5-.5.5-.5.4-.6.2-.8q.1-.4.4-.6t.4-.6l.1-.9v-6l-.1-.9q-.1-.4-.4-.6t-.4-.6l-.2-.8-.4-.6-.4-.6-.2-.8-.4-.6-.4-.6-.2-.8-.4-.6-.5-.5-.5-.5-.4-.6-.2-.8-.4-.6-.5-.5-.5-.5-.5-.5-.5-.5-.5-.5-.5-.5-.5-.5-.6-.4-.8-.2-.6-.4-.6-.4-.8-.2-.6-.4-.6-.4-.9-.1-.9.1-.6.4-.5.5-.4.6v.8l.4.6.5.5.5.5.5.5.5.5.4.6.1.9.1.9.4.6.4.6.1.9V12l-.4.1-.6.4-.6.4-.8.2-.6.4-.5.5-.5.5-.5.5-.5.5-.5.5-.4.6-.2.8-.4.6-.4.6-.1.9v4l.1.9q.1.4.4.6t.4.6l.2.8.4.6.5.5.5.5.5.5.5.5.5.5.6.4.8.2.6.4.6.4.9.1h5M12 12.1v-.8 1-.2" fill="none"/><path d="m9 1.5.6-.4.9-.1.9.1q.4.1.6.4t.6.4l.8.2.6.4.6.4.8.2.6.4.5.5.5.5.5.5.5.5.5.5.5.5.5.5.4.6.2.8.4.6.5.5.5.5.4.6.2.8.4.6.4.6.2.8.4.6.4.6.2.8.4.6.4.6.1.9V23l-.4.1q-.4.1-.6.4l-.5.5-.5.5-.6.4-.8.2q-.4.1-.6.4t-.6.4l-.8.2q-.4.1-.6.4t-.6.4l-.9.1h-3l-.9-.1q-.4-.1-.6-.4t-.6-.4l-.8-.2-.6-.4-.5-.5-.5-.5-.5-.5-.5-.5-.5-.5-.4-.6-.1-.9v-1l.1-.9q.1-.4.4-.6t.4-.6l.2-.8.4-.6.4-.6.2-.8.4-.6.5-.5.5-.5.4-.6.1-.9v-2l-.1-.9q-.1-.4-.4-.6t-.4-.6l-.1-.9-.1-.9-.4-.6-.5-.5-.5-.5-.5-.5-.5-.5-.4-.6v-.8l.4-.6.5-.5M20.5 20q.5 0 .5-.5t.5-.5.5-.5v-4q0-.5-.5-.5t-.5-.5-.5-.5-.5-.5-.5-.5h-4q-.5 0-.5.5t-.5.5-.5.5v1q0 .5.5.5t.5.5v1q0 .5.5.5h1q.5 0 .5.5v1q0 .5.5.5h1q.5 0 .5.5t.5.5h1m4.5 3.1v-.9 1" fill="#486acd"/><path d="m11 12.5.6-.4.4-.1v.5l-.1.9q-.1.4-.4.6l-.5.5-.5.5-.4.6-.2.8-.4.6-.4.6-.2.8-.4.6-.4.6-.1.9v1l.1.9q.1.4.4.6l.5.5.5.5.5.5.5.5.5.5.6.4.8.2.6.4.6.4.9.1h3l.9-.1q.4-.1.6-.4t.6-.4l.8-.2q.4-.1.6-.4t.6-.4l.8-.2q.4-.1.6-.4l.5-.5.5-.5.6-.4.4-.1v.5l-.1.9q-.1.4-.4.6t-.4.6l-.2.8q-.1.4-.4.6l-.5.5-.5.5-.5.5-.5.5-.5.5-.6.4-.8.2q-.4.1-.6.4t-.6.4l-.9.1h-5l-.9-.1q-.4-.1-.6-.4t-.6-.4l-.8-.2-.6-.4-.5-.5-.5-.5-.5-.5-.5-.5-.5-.5-.4-.6-.2-.8-.4-.6-.4-.6-.1-.9v-4l.1-.9q.1-.4.4-.6t.4-.6l.2-.8.4-.6.5-.5.5-.5.5-.5.5-.5.5-.5.6-.4.8-.2.6-.4m14 10.9v-.6 1-.4m-13-11v-.7 1-.3" fill="#363f9a"/><path d="M15 12.5q0-.5.5-.5h4q.5 0 .5.5t.5.5.5.5.5.5.5.5v4q0 .5-.5.5t-.5.5-.5.5h-1q-.5 0-.5-.5t-.5-.5h-1q-.5 0-.5-.5v-1q0-.5-.5-.5h-1q-.5 0-.5-.5v-1q0-.5-.5-.5t-.5-.5v-1q0-.5.5-.5t.5-.5" fill="#7090ea"/></svg>